<svg xmlns="http://www.w3.org/2000/svg" xmlns:xlink="http://www.w3.org/1999/xlink" width="23" height="16" viewBox="0 0 23 16">
    <defs>
        <path id="b" d="M0 110h170v2782H0z"/>
        <filter id="a" width="109.4%" height="100.6%" x="-2.4%" y="-.2%" filterUnits="objectBoundingBox">
            <feOffset dx="4" dy="3" in="SourceAlpha" result="shadowOffsetOuter1"/>
            <feGaussianBlur in="shadowOffsetOuter1" result="shadowBlurOuter1" stdDeviation="2"/>
            <feColorMatrix in="shadowBlurOuter1" values="0 0 0 0 0 0 0 0 0 0 0 0 0 0 0 0 0 0 0.239668252 0"/>
        </filter>
    </defs>
    <g fill="none" fill-rule="evenodd">
        <path fill="#EFF3F6" d="M-28-380h1281v3000H-28z"/>
        <g transform="translate(-28 -380)">
            <use fill="#000" filter="url(#a)" xlink:href="#b"/>
            <use fill="#2E3842" xlink:href="#b"/>
        </g>
        <g fill="#CBCBCB" fill-rule="nonzero">
            <path d="M21.16 15.038H.92c-.552 0-.92-.353-.92-.884V1.769C0 1.24.368.885.92.885h20.24c.552 0 .92.353.92.884v12.385c0 .53-.368.884-.92.884zM1.84 13.27h18.4V2.654H1.84v10.615z"/>
            <path d="M11.04 8.846c-.276 0-.644-.177-.736-.442-.276-.442-.184-.973.276-1.239L20.7.973c.46-.265 1.012-.177 1.288.265.276.443.184.974-.276 1.239l-10.12 6.192c-.184.089-.368.177-.552.177z"/>
            <path d="M11.04 8.846a.718.718 0 0 1-.46-.177L.46 2.477C0 2.212-.092 1.68.184 1.327c.276-.442.828-.53 1.196-.265L11.5 7.254c.46.265.552.796.276 1.238-.092.177-.46.354-.736.354z"/>
        </g>
    </g>
</svg>
