<svg xmlns="http://www.w3.org/2000/svg" xmlns:xlink="http://www.w3.org/1999/xlink" width="23" height="23" viewBox="0 0 23 23">
    <defs>
        <path id="b" d="M0 110h170v2782H0z"/>
        <filter id="a" width="109.4%" height="100.6%" x="-2.4%" y="-.2%" filterUnits="objectBoundingBox">
            <feOffset dx="4" dy="3" in="SourceAlpha" result="shadowOffsetOuter1"/>
            <feGaussianBlur in="shadowOffsetOuter1" result="shadowBlurOuter1" stdDeviation="2"/>
            <feColorMatrix in="shadowBlurOuter1" values="0 0 0 0 0 0 0 0 0 0 0 0 0 0 0 0 0 0 0.239668252 0"/>
        </filter>
    </defs>
    <g fill="none" fill-rule="evenodd">
        <path fill="#EFF3F6" d="M-28-755h1281v3000H-28z"/>
        <g transform="translate(-28 -755)">
            <use fill="#000" filter="url(#a)" xlink:href="#b"/>
            <use fill="#2E3842" xlink:href="#b"/>
        </g>
        <path fill="#CBCBCB" fill-rule="nonzero" d="M2.772 15.268l8.625 5.75v-5.135l-4.777-3.19-3.848 2.575zm-1.68-.632l4.246-2.838L1.092 8.96v5.676zm11.396 6.382l8.625-5.75-3.847-2.574-4.778 3.19v5.134zm-.547-6.293l4.817-3.223L11.94 8.28l-4.817 3.223 4.817 3.223zM6.62 10.277l4.777-3.19V1.952l-8.625 5.75 3.848 2.575zm11.042 1.52l4.246 2.839V8.96l-4.246 2.838zm-.396-1.52l3.847-2.575-8.625-5.75v5.135l4.778 3.19zM23 7.997v7.007c0 .35-.145.625-.436.821l-10.512 7.008c-.18.111-.364.167-.552.167-.188 0-.372-.056-.552-.167L.436 15.825A.938.938 0 0 1 0 15.004V7.996c0-.35.145-.625.436-.821L10.948.167c.18-.111.364-.167.552-.167.188 0 .372.056.552.167l10.512 7.008c.29.196.436.47.436.821z"/>
    </g>
</svg>
