<svg xmlns="http://www.w3.org/2000/svg" width="151" height="118" viewBox="0 0 151 118">
    <defs>
        <filter id="a" width="106.9%" height="109.9%" x="-3.4%" y="-3%" filterUnits="objectBoundingBox">
            <feOffset dy="2" in="SourceAlpha" result="shadowOffsetOuter1"/>
            <feGaussianBlur in="shadowOffsetOuter1" result="shadowBlurOuter1" stdDeviation="1"/>
            <feColorMatrix in="shadowBlurOuter1" result="shadowMatrixOuter1" values="0 0 0 0 0 0 0 0 0 0 0 0 0 0 0 0 0 0 0.302281476 0"/>
            <feMerge>
                <feMergeNode in="shadowMatrixOuter1"/>
                <feMergeNode in="SourceGraphic"/>
            </feMerge>
        </filter>
    </defs>
    <g fill="none" fill-rule="evenodd">
        <g filter="url(#a)" transform="translate(3 13.968)">
            <path fill="#CD6116" d="M37.363 16.816L11.97 33.592.132 51.972l10.545 9.543H33.49l37.446-8.706 13.341-20.164-1.23-13.379H69.86l-9.254-5.616z"/>
            <path stroke="#CD6116" stroke-linecap="round" stroke-linejoin="round" stroke-width=".5" d="M70.936 52.81l13.341-20.165-1.23-13.379H69.86l-9.254-5.615-23.243 3.165L11.97 33.591.132 51.971l10.545 9.544H33.49z"/>
            <path fill="#E4761B" d="M.993 70.585l14.204 16.91 32.066 11.31H90.89l26.042-13.018 20.11-17.815H84.13l-20.728-15.6-29.914 9.143H10.677L.132 51.972z"/>
            <path stroke="#E4761B" stroke-linecap="round" stroke-linejoin="round" stroke-width=".5" d="M.132 51.972l.861 18.613 14.204 16.91 32.066 11.31H90.89l26.042-13.018 20.11-17.815h-52.91l-20.728-15.6-29.915 9.143H10.678L.132 51.972"/>
            <path fill="#E4761B" d="M137.042 67.972l-3.05-8.615-50.946-11.094-19.643 4.109 4.305 10.179 9.471 4.455 15.104 9.604 7.74 5.335 16.91 3.842z"/>
            <path stroke="#E4761B" stroke-linecap="round" stroke-linejoin="round" stroke-width=".5" d="M137.042 67.972l-3.05-8.615-50.946-11.094-19.643 4.109 4.305 10.179 9.471 4.455 15.104 9.604 7.74 5.335 16.91 3.842z"/>
            <path fill="#CD6116" d="M90.89 98.806l26.042-13.019-16.908-3.842z"/>
            <path stroke="#CD6116" stroke-linecap="round" stroke-linejoin="round" stroke-width=".5" d="M90.89 98.806l9.134-16.86 16.908 3.841z"/>
            <path fill="#CD6116" d="M15.197 87.494l32.066 11.311L32.413 82.8z"/>
            <path stroke="#CD6116" stroke-linecap="round" stroke-linejoin="round" stroke-width=".5" d="M47.263 98.806l-14.85-16.007-17.216 4.696z"/>
            <path fill="#F6851B" d="M32.414 82.8l14.849 16.005H90.89l9.133-16.86z"/>
            <path stroke="#F6851B" stroke-linecap="round" stroke-linejoin="round" stroke-width=".5" d="M32.414 82.8l67.61-.855-9.134 16.86H47.263z"/>
            <path fill="#F6851B" d="M100.024 81.945l20.489-27.14-13.489-7.165-39.316 14.91z"/>
            <path stroke="#F6851B" stroke-linecap="round" stroke-linejoin="round" stroke-width=".5" d="M100.024 81.945l20.489-27.14-13.489-7.165-39.316 14.91z"/>
            <path fill="#F6851B" d="M67.708 62.55l-4.305-10.178 19.643-4.109 5.16 6.253z"/>
            <path stroke="#F6851B" stroke-linecap="round" stroke-linejoin="round" stroke-width=".5" d="M67.708 62.55l-4.305-10.178 19.643-4.109 5.16 6.253z"/>
            <path fill="#F6851B" d="M32.414 82.8l30.99-30.428-29.915 9.143z"/>
            <path stroke="#F6851B" stroke-linecap="round" stroke-linejoin="round" stroke-width=".5" d="M32.414 82.8l30.99-30.428-29.915 9.143z"/>
            <path fill="#F6851B" d="M.993 70.585l2.218-2.446 7.466-6.624L.132 51.972z"/>
            <path stroke="#F6851B" stroke-linecap="round" stroke-linejoin="round" stroke-width=".5" d="M3.212 68.138l7.466-6.623L.132 51.972l.861 18.613z"/>
            <path fill="#F6851B" d="M11.969 33.591L.132 51.971l37.231-35.155z"/>
            <path stroke="#F6851B" stroke-linecap="round" stroke-linejoin="round" stroke-width=".5" d="M11.969 33.591L.132 51.971l37.231-35.155z"/>
            <path fill="#E4761B" d="M37.363 16.816L.133 51.972 60.605 13.65z"/>
            <path stroke="#E4761B" stroke-linecap="round" stroke-linejoin="round" stroke-width=".5" d="M.132 51.972L60.606 13.65l-23.243 3.166z"/>
            <path fill="#CD6116" d="M137.042 67.972l-3.05-8.615-17.997 4.141 10.523 13.797z"/>
            <path stroke="#CD6116" stroke-linecap="round" stroke-linejoin="round" stroke-width=".5" d="M137.042 67.972l-3.05-8.615-17.997 4.141 10.523 13.797z"/>
            <path fill="#E2761B" d="M143.737 12.488l-29.833 13.557 7.179-10.187z"/>
            <path stroke="#E2761B" stroke-linecap="round" stroke-linejoin="round" stroke-width=".5" d="M143.737 12.488l-29.833 13.557 7.179-10.187z"/>
            <path fill="#E4761B" d="M84.277.001l21.46 24.516-2.127-12.329z"/>
            <path stroke="#E4761B" stroke-linecap="round" stroke-linejoin="round" stroke-width=".5" d="M84.277.001l21.46 24.516-2.127-12.329z"/>
            <path fill="#E4761B" d="M125.08 54.516l-9.085 8.982 13.822 7.087 7.225-13.315z"/>
            <path stroke="#E4761B" stroke-linecap="round" stroke-linejoin="round" stroke-width=".5" d="M125.08 54.516l-9.085 8.982 13.822 7.087 7.225-13.315z"/>
            <path fill="#E4761B" d="M72.12 43.636l1.136 15.071 15.533-.922-4.609-11.858z"/>
            <path stroke="#E4761B" stroke-linecap="round" stroke-linejoin="round" stroke-width=".5" d="M72.12 43.636l1.136 15.071 15.533-.922-4.609-11.858z"/>
            <path fill="#E4761B" d="M93.972 29.584l-5.4 5.276 14.411 3.697 2.824-15.634z"/>
            <path stroke="#E4761B" stroke-linecap="round" stroke-linejoin="round" stroke-width=".5" d="M93.972 29.584l-5.4 5.276 14.411 3.697 2.824-15.634z"/>
            <path fill="#E4761B" d="M122.783 35.634l-8.182-11.08-3.723 15.661 14.685 2.413z"/>
            <path stroke="#E4761B" stroke-linecap="round" stroke-linejoin="round" stroke-width=".5" d="M122.783 35.634l-8.182-11.08-3.723 15.661 14.685 2.413z"/>
            <path fill="#E4761B" d="M88.789 57.785l9.68-2.393-6.31-7.44z"/>
            <path stroke="#E4761B" stroke-linecap="round" stroke-linejoin="round" stroke-width=".5" d="M88.789 57.785l9.68-2.393-6.31-7.44z"/>
            <path fill="#E4761B" d="M108.124 57.42l7.87 6.078.938-10.344z"/>
            <path stroke="#E4761B" stroke-linecap="round" stroke-linejoin="round" stroke-width=".5" d="M108.124 57.42l7.87 6.078.938-10.344z"/>
            <path fill="#D7C1B3" d="M115.995 63.498l-7.87-6.079-.514 5.82-.587 2.372z"/>
            <path stroke="#D7C1B3" stroke-linecap="round" stroke-linejoin="round" stroke-width=".5" d="M115.995 63.498l-7.87-6.079-.514 5.82-.587 2.372z"/>
            <path fill="#D7C1B3" d="M88.789 57.785l7.337 5.537.458-2.398 1.885-5.532z"/>
            <path stroke="#D7C1B3" stroke-linecap="round" stroke-linejoin="round" stroke-width=".5" d="M88.789 57.785l7.337 5.537.458-2.398 1.885-5.532z"/>
            <path fill="#233447" d="M110.649 47.64l4.122-1.082 5.4-.322-1.487.994z"/>
            <path stroke="#233447" stroke-linecap="round" stroke-linejoin="round" stroke-width=".5" d="M110.649 47.64l4.122-1.082 5.4-.322-1.487.994z"/>
            <path fill="#CD6116" d="M88.789 57.785l3.494-10.156-8.152-1.47z"/>
            <path stroke="#CD6116" stroke-linecap="round" stroke-linejoin="round" stroke-width=".5" d="M88.789 57.785l3.494-10.156-8.152-1.47z"/>
            <path fill="#CD6116" d="M116.952 52.81l-.957 10.688 9.036-8.75z"/>
            <path stroke="#CD6116" stroke-linecap="round" stroke-linejoin="round" stroke-width=".5" d="M116.952 52.81l-.957 10.688 9.036-8.75z"/>
            <path fill="#CD6116" d="M125.563 42.628l-14.685-2.413-.22 7.146 3.88-.852 5.942-.539z"/>
            <path stroke="#CD6116" stroke-linecap="round" stroke-linejoin="round" stroke-width=".5" d="M125.563 42.628l-14.685-2.413-.22 7.146 3.88-.852 5.942-.539z"/>
            <path fill="#E4751F" d="M88.572 34.86l3.588 13.092 1.048-5.923z"/>
            <path stroke="#E4751F" stroke-linecap="round" stroke-linejoin="round" stroke-width=".5" d="M88.572 34.86l3.588 13.092 1.048-5.923z"/>
            <path fill="#E4751F" d="M118.42 47.324l-1.488 5.83 8.631-10.526z"/>
            <path stroke="#E4751F" stroke-linecap="round" stroke-linejoin="round" stroke-width=".5" d="M118.42 47.324l-1.488 5.83 8.631-10.526z"/>
            <path fill="#E4751F" d="M102.983 38.557l-2.93 7.136-.161 9.113 2.85-11.445z"/>
            <path stroke="#E4751F" stroke-linecap="round" stroke-linejoin="round" stroke-width=".5" d="M102.983 38.557l-2.93 7.136-.161 9.113 2.85-11.445z"/>
            <path fill="#E4751F" d="M110.878 40.215l-1.66 4.48-2.156 11.617 3.578-8.396z"/>
            <path stroke="#E4751F" stroke-linecap="round" stroke-linejoin="round" stroke-width=".5" d="M110.878 40.215l-1.66 4.48-2.156 11.617 3.578-8.396z"/>
            <path fill="#233447" d="M92.855 41.65l-.948-1.509 4.798 2.478 3.319 2.656z"/>
            <path stroke="#233447" stroke-linecap="round" stroke-linejoin="round" stroke-width=".5" d="M92.855 41.65l-.948-1.509 4.798 2.478 3.319 2.656z"/>
            <path fill="#F6851B" d="M110.64 47.916l-3.578 8.395 1.062 1.109 8.808-4.266 1.489-5.83z"/>
            <path stroke="#F6851B" stroke-linecap="round" stroke-linejoin="round" stroke-width=".5" d="M110.64 47.916l-3.578 8.395 1.062 1.109 8.808-4.266 1.489-5.83z"/>
            <path fill="#F6851B" d="M93.195 42.1l-1.035 5.852 6.309 7.44 1.423-.586.212-9.24z"/>
            <path stroke="#F6851B" stroke-linecap="round" stroke-linejoin="round" stroke-width=".5" d="M93.195 42.1l-1.035 5.852 6.309 7.44 1.423-.586.212-9.24z"/>
            <path fill="#C0AD9E" d="M107.024 65.61l.587-2.37-.526-.701-9.759-2.05-.742.435-.458 2.398-7.337-5.537 2.354 2.908 4.949 5.197 9.914 2.082 6.648-2.761 3.34-1.713z"/>
            <path stroke="#C0AD9E" stroke-linecap="round" stroke-linejoin="round" stroke-width=".5" d="M107.024 65.61l.587-2.37-.526-.701-9.759-2.05-.742.435-.458 2.398-7.337-5.537 2.354 2.908 4.949 5.197 9.914 2.082 6.648-2.761 3.34-1.713z"/>
            <path fill="#161616" d="M108.124 57.42l-1.062-1.109-7.17-1.505-1.423.586-1.885 5.532.742-.434 9.759 2.049.527.7z"/>
            <path stroke="#161616" stroke-linecap="round" stroke-linejoin="round" stroke-width=".5" d="M108.124 57.42l-1.062-1.109-7.17-1.505-1.423.586-1.885 5.532.742-.434 9.759 2.049.527.7z"/>
            <path fill="#763D16" d="M140.51 32.92l4.411-10.018-1.184-10.414-28.816 13.1 7.862 10.046 12.7 6.77 3.717-2.84-1.097-1.196 2.47-1.439-1.315-1.564 2.405-1.13z"/>
            <path stroke="#763D16" stroke-linecap="round" stroke-linejoin="round" stroke-width=".5" d="M140.51 32.92l4.411-10.018-1.184-10.414-28.816 13.1 7.862 10.046 12.7 6.77 3.717-2.84-1.097-1.196 2.47-1.439-1.315-1.564 2.405-1.13z"/>
            <path fill="#763D16" d="M78.938 9.046l-.036 10.936-1.617.733 1.736 2-1.842.901 1.671 2.31-1.492.652 2.237 4.09 14.377-1.084 11.294-6.024L84.277.001z"/>
            <path stroke="#763D16" stroke-linecap="round" stroke-linejoin="round" stroke-width=".5" d="M78.938 9.046l-.036 10.936-1.617.733 1.736 2-1.842.901 1.671 2.31-1.492.652 2.237 4.09 14.377-1.084 11.294-6.024L84.277.001z"/>
            <path fill="#F6851B" d="M135.483 42.405l-12.7-6.771 2.78 6.994-8.63 10.526 8.098 1.593 12.01 2.522z"/>
            <path stroke="#F6851B" stroke-linecap="round" stroke-linejoin="round" stroke-width=".5" d="M135.483 42.405l-12.7-6.771 2.78 6.994-8.63 10.526 8.098 1.593 12.01 2.522z"/>
            <path fill="#F6851B" d="M93.972 29.584l-14.377 1.084-7.475 12.968 12.011 2.522 8.029 1.793-3.588-13.091z"/>
            <path stroke="#F6851B" stroke-linecap="round" stroke-linejoin="round" stroke-width=".5" d="M93.972 29.584l-14.377 1.084-7.475 12.968 12.011 2.522 8.029 1.793-3.588-13.091z"/>
            <path fill="#F6851B" d="M110.878 40.215l4.043-14.627 6.162-9.73-17.473-3.67 1.656 11.372-2.283 14.997-.661 4.743-2.43 11.506 7.17 1.506 2.482-11.496z"/>
            <path stroke="#F6851B" stroke-linecap="round" stroke-linejoin="round" stroke-width=".5" d="M110.878 40.215l4.043-14.627 6.162-9.73-17.473-3.67 1.656 11.372-2.283 14.997-.661 4.743-2.43 11.506 7.17 1.506 2.482-11.496z"/>
            <path fill="#CD6116" d="M91.726 39.785l5.212 2.88 3.211 2.427 2.707-6.709-14.41-3.697z"/>
            <path stroke="#CD6116" stroke-linecap="round" stroke-linejoin="round" stroke-width=".5" d="M91.726 39.785l5.212 2.88 3.211 2.427 2.707-6.709-14.41-3.697z"/>
        </g>
        <path fill="#438CEF" d="M125.35 24.494a.743.743 0 0 1-.443-.167.497.497 0 0 1-.189-.406c0-.098.018-.174.054-.227a.615.615 0 0 0 .08-.174 20.403 20.403 0 0 1 2.065-2.82 76.16 76.16 0 0 1 2.4-2.635c-.152 0-.293.003-.422.007-.13.005-.268.007-.41.007a59.1 59.1 0 0 1-1.924.027h-.572c-.193 0-.383-.005-.571-.014-.234-.035-.404-.107-.511-.213a.51.51 0 0 1-.162-.374c0-.142.058-.273.175-.393.116-.12.305-.185.565-.194.61.027 1.201.038 1.775.034a73.938 73.938 0 0 0 1.722-.034 82.364 82.364 0 0 1 2.044-.026c.368.098.551.289.551.573a.69.69 0 0 1-.174.44 14.439 14.439 0 0 0-1.944 1.821c-.587.663-1.159 1.34-1.715 2.034-.26.311-.477.576-.652.793a14.39 14.39 0 0 0-.49.647h.147c.206 0 .417.005.632.014l.632.026c.43.027.865.04 1.305.04.305 0 .608-.013.908-.04.3-.026.616-.08.948-.16.242 0 .428.058.558.174.13.116.195.249.195.4a.501.501 0 0 1-.087.28.935.935 0 0 1-.317.267 7.88 7.88 0 0 1-.618.16 4.929 4.929 0 0 1-.619.093 5.94 5.94 0 0 1-1.082.034 88.201 88.201 0 0 0-1.056-.06 17.123 17.123 0 0 0-1.345-.054 8.6 8.6 0 0 0-.68.027c-.228.018-.459.049-.692.093h-.08z"/>
        <path stroke="#438CEF" stroke-width=".8" d="M125.35 24.494a.743.743 0 0 1-.443-.167.497.497 0 0 1-.189-.406c0-.098.018-.174.054-.227a.615.615 0 0 0 .08-.174 20.403 20.403 0 0 1 2.065-2.82 76.16 76.16 0 0 1 2.4-2.635c-.152 0-.293.003-.422.007-.13.005-.268.007-.41.007a59.1 59.1 0 0 1-1.924.027h-.572c-.193 0-.383-.005-.571-.014-.234-.035-.404-.107-.511-.213a.51.51 0 0 1-.162-.374c0-.142.058-.273.175-.393.116-.12.305-.185.565-.194.61.027 1.201.038 1.775.034a73.938 73.938 0 0 0 1.722-.034 82.364 82.364 0 0 1 2.044-.026c.368.098.551.289.551.573a.69.69 0 0 1-.174.44 14.439 14.439 0 0 0-1.944 1.821c-.587.663-1.159 1.34-1.715 2.034-.26.311-.477.576-.652.793a14.39 14.39 0 0 0-.49.647h.147c.206 0 .417.005.632.014l.632.026c.43.027.865.04 1.305.04.305 0 .608-.013.908-.04.3-.026.616-.08.948-.16.242 0 .428.058.558.174.13.116.195.249.195.4a.501.501 0 0 1-.087.28.935.935 0 0 1-.317.267 7.88 7.88 0 0 1-.618.16 4.929 4.929 0 0 1-.619.093 5.94 5.94 0 0 1-1.082.034 88.201 88.201 0 0 0-1.056-.06 17.123 17.123 0 0 0-1.345-.054 8.6 8.6 0 0 0-.68.027c-.228.018-.459.049-.692.093h-.08z"/>
        <path fill="#438CEF" d="M137.73 13.94a.504.504 0 0 1-.32.005.338.338 0 0 1-.219-.209.27.27 0 0 1-.023-.155.408.408 0 0 0 .008-.128c.127-.759.324-1.517.59-2.275.268-.758.55-1.505.85-2.24a8.076 8.076 0 0 0-.264.108c-.081.035-.166.07-.256.105a40.461 40.461 0 0 1-1.2.488l-.358.14a7.93 7.93 0 0 1-.361.132c-.155.035-.28.032-.374-.009a.346.346 0 0 1-.194-.194.373.373 0 0 1 .011-.29c.043-.104.145-.19.306-.26.39-.132.763-.27 1.122-.414.358-.143.715-.291 1.07-.443a52.041 52.041 0 0 1 1.275-.517c.256-.03.419.045.49.224a.467.467 0 0 1 0 .319 9.655 9.655 0 0 0-.765 1.618 35.71 35.71 0 0 0-.568 1.695c-.086.259-.156.478-.212.657-.055.18-.104.355-.146.526l.093-.036c.13-.05.262-.1.4-.147l.403-.138c.276-.089.552-.187.827-.295.191-.074.378-.157.56-.247.181-.09.366-.201.554-.333.152-.06.283-.069.393-.028.11.04.185.108.222.203a.343.343 0 0 1 .015.197.63.63 0 0 1-.132.245c-.113.09-.23.173-.348.252a3.31 3.31 0 0 1-.364.21 4 4 0 0 1-.67.286c-.228.073-.454.147-.678.222a11.61 11.61 0 0 0-.856.296c-.14.055-.28.116-.42.183a4.272 4.272 0 0 0-.41.228l-.05.02z"/>
        <path stroke="#438CEF" stroke-width=".8" d="M137.73 13.94a.504.504 0 0 1-.32.005.338.338 0 0 1-.219-.209.27.27 0 0 1-.023-.155.408.408 0 0 0 .008-.128c.127-.759.324-1.517.59-2.275.268-.758.55-1.505.85-2.24a8.076 8.076 0 0 0-.264.108c-.081.035-.166.07-.256.105a40.461 40.461 0 0 1-1.2.488l-.358.14a7.93 7.93 0 0 1-.361.132c-.155.035-.28.032-.374-.009a.346.346 0 0 1-.194-.194.373.373 0 0 1 .011-.29c.043-.104.145-.19.306-.26.39-.132.763-.27 1.122-.414.358-.143.715-.291 1.07-.443a52.041 52.041 0 0 1 1.275-.517c.256-.03.419.045.49.224a.467.467 0 0 1 0 .319 9.655 9.655 0 0 0-.765 1.618 35.71 35.71 0 0 0-.568 1.695c-.086.259-.156.478-.212.657-.055.18-.104.355-.146.526l.093-.036c.13-.05.262-.1.4-.147l.403-.138c.276-.089.552-.187.827-.295.191-.074.378-.157.56-.247.181-.09.366-.201.554-.333.152-.06.283-.069.393-.028.11.04.185.108.222.203a.343.343 0 0 1 .015.197.63.63 0 0 1-.132.245c-.113.09-.23.173-.348.252a3.31 3.31 0 0 1-.364.21 4 4 0 0 1-.67.286c-.228.073-.454.147-.678.222a11.61 11.61 0 0 0-.856.296c-.14.055-.28.116-.42.183a4.272 4.272 0 0 0-.41.228l-.05.02z"/>
        <path fill="#438CEF" d="M129.814 6.238a.502.502 0 0 1-.299-.115.336.336 0 0 1-.124-.275c0-.066.013-.117.037-.152a.415.415 0 0 0 .056-.117c.404-.656.873-1.286 1.406-1.89a51.139 51.139 0 0 1 1.633-1.761c-.103-.001-.198 0-.286.002-.087.002-.18.003-.276.002a36.44 36.44 0 0 1-1.296.007l-.385-.003a8.066 8.066 0 0 1-.386-.012c-.157-.025-.271-.074-.343-.146a.344.344 0 0 1-.107-.253c.001-.096.041-.184.12-.264.08-.08.207-.123.382-.127.41.02.81.032 1.196.032.387 0 .774-.004 1.16-.013a54.77 54.77 0 0 1 1.378-.007c.248.068.37.198.37.39-.002.101-.042.2-.121.295-.481.368-.92.773-1.32 1.216-.4.444-.789.897-1.167 1.362-.177.208-.325.385-.444.53-.12.147-.23.291-.334.434l.1.001c.138.001.28.005.425.012l.426.022c.29.02.583.032.879.034.205.002.41-.006.612-.022s.416-.05.64-.103c.163.001.288.042.375.12.087.079.13.169.13.27a.343.343 0 0 1-.061.189.634.634 0 0 1-.215.178 5.31 5.31 0 0 1-.418.105 3.26 3.26 0 0 1-.417.06 4.01 4.01 0 0 1-.73.016 62.907 62.907 0 0 0-.711-.047 11.552 11.552 0 0 0-.906-.043 5.975 5.975 0 0 0-.458.014c-.154.011-.31.031-.467.06h-.054z"/>
        <path stroke="#438CEF" stroke-width=".8" d="M129.814 6.238a.502.502 0 0 1-.299-.115.336.336 0 0 1-.124-.275c0-.066.013-.117.037-.152a.415.415 0 0 0 .056-.117c.404-.656.873-1.286 1.406-1.89a51.139 51.139 0 0 1 1.633-1.761c-.103-.001-.198 0-.286.002-.087.002-.18.003-.276.002a36.44 36.44 0 0 1-1.296.007l-.385-.003a8.066 8.066 0 0 1-.386-.012c-.157-.025-.271-.074-.343-.146a.344.344 0 0 1-.107-.253c.001-.096.041-.184.12-.264.08-.08.207-.123.382-.127.41.02.81.032 1.196.032.387 0 .774-.004 1.16-.013a54.77 54.77 0 0 1 1.378-.007c.248.068.37.198.37.39-.002.101-.042.2-.121.295-.481.368-.92.773-1.32 1.216-.4.444-.789.897-1.167 1.362-.177.208-.325.385-.444.53-.12.147-.23.291-.334.434l.1.001c.138.001.28.005.425.012l.426.022c.29.02.583.032.879.034.205.002.41-.006.612-.022s.416-.05.64-.103c.163.001.288.042.375.12.087.079.13.169.13.27a.343.343 0 0 1-.061.189.634.634 0 0 1-.215.178 5.31 5.31 0 0 1-.418.105 3.26 3.26 0 0 1-.417.06 4.01 4.01 0 0 1-.73.016 62.907 62.907 0 0 0-.711-.047 11.552 11.552 0 0 0-.906-.043 5.975 5.975 0 0 0-.458.014c-.154.011-.31.031-.467.06h-.054z"/>
    </g>
</svg>
