<svg xmlns="http://www.w3.org/2000/svg" width="174" height="155" viewBox="0 0 174 155">
    <defs>
        <filter id="a" width="106.8%" height="106%" x="-3.6%" y="-2%" filterUnits="objectBoundingBox">
            <feOffset dy="2" in="SourceAlpha" result="shadowOffsetOuter1"/>
            <feGaussianBlur in="shadowOffsetOuter1" result="shadowBlurOuter1" stdDeviation="1"/>
            <feColorMatrix in="shadowBlurOuter1" result="shadowMatrixOuter1" values="0 0 0 0 0 0 0 0 0 0 0 0 0 0 0 0 0 0 0.223137455 0"/>
            <feMerge>
                <feMergeNode in="shadowMatrixOuter1"/>
                <feMergeNode in="SourceGraphic"/>
            </feMerge>
        </filter>
    </defs>
    <g fill="none" fill-rule="evenodd">
        <g transform="translate(0 35.791)">
            <path fill="#438CEF" d="M38.252 18.994c-.26 0-.514-.016-.767-.045l-.125-.017-.053-.008a7.6 7.6 0 0 1-.335-.055c-.01-.002-.018-.005-.028-.006a5.815 5.815 0 0 1-.321-.072c-.016-.003-.032-.008-.048-.013-.098-.025-.197-.05-.294-.08a10.97 10.97 0 0 1-.335-.11 7.098 7.098 0 0 1-.198-.08c-.044-.017-.09-.033-.133-.051-1.753-.74-3.205-2.192-4.089-4.05l-.022-.051a6.922 6.922 0 0 1-.137-.307c-.02-.04-.035-.082-.051-.123-.033-.081-.067-.162-.097-.244-.02-.053-.038-.107-.057-.16-.026-.072-.051-.143-.075-.216l-.057-.18a9.859 9.859 0 0 1-.061-.207c-.019-.063-.035-.128-.052-.192a9.376 9.376 0 0 1-.096-.403c-.016-.07-.028-.138-.043-.208a6.088 6.088 0 0 1-.036-.201c-.013-.072-.023-.144-.034-.216-.01-.066-.02-.131-.028-.198-.01-.078-.018-.155-.026-.234-.006-.063-.014-.123-.019-.185-.008-.09-.012-.18-.019-.272l-.01-.154c-.004-.143-.01-.285-.01-.432 0-.144.006-.288.01-.43l.01-.155c.007-.09.011-.182.02-.272.004-.062.012-.123.018-.184.008-.078.016-.157.026-.235.008-.066.019-.132.028-.198.011-.071.021-.144.034-.216a6.865 6.865 0 0 1 .08-.41 7.634 7.634 0 0 1 .096-.403c.016-.062.032-.126.051-.19l.06-.207.058-.18c.024-.073.05-.145.075-.218l.057-.158a10.185 10.185 0 0 1 .285-.675l.022-.052c.884-1.857 2.336-3.31 4.089-4.048.043-.02.089-.035.133-.053.066-.026.13-.052.198-.077.08-.029.164-.056.246-.083l.089-.028c.097-.03.196-.058.294-.081.016-.005.032-.01.048-.013.107-.027.213-.05.321-.071l.028-.007a7.6 7.6 0 0 1 .335-.055l.053-.008.125-.017a6.85 6.85 0 0 1 .767-.043c4.22 0 7.654 3.932 7.654 8.767 0 4.835-3.434 8.77-7.654 8.77zm-3.337-.144a6.92 6.92 0 0 1-2.107-.831h.787c.041.033.084.063.127.093a7.18 7.18 0 0 0 .595.404c.057.036.116.069.175.104.107.06.213.119.32.174l.103.056zm-4.049-2.455h1.118a8.07 8.07 0 0 0 .593.698c.064.066.127.133.192.198.026.025.051.054.077.08h-.98a8.031 8.031 0 0 1-1-.976zm1.436-13.64h.9c-.08.07-.162.141-.24.215-.067.061-.129.127-.194.19l-.19.196c-.061.064-.12.13-.18.194-.052.059-.1.119-.152.18h-1.075c.35-.364.727-.69 1.131-.974zm-.951 2.237a3.933 3.933 0 0 0-.08.14 9.033 9.033 0 0 0-.289.546h-1.221c.246-.463.53-.897.846-1.299h1.14l-.12.172a8.99 8.99 0 0 0-.276.44zm-1.08 7.832l.029.119a10.058 10.058 0 0 0 .19.628l.042.12c.013.035.024.071.036.106h-1.254a9.423 9.423 0 0 1-.32-.973h1.277zm-.078-4.872c-.01.038-.016.076-.024.116l-.027.127c-.04.204-.074.409-.102.618l-.003.03-.01.083h-1.292a9.72 9.72 0 0 1 .171-.974h1.287zm-.202 3.248c.011.136.027.271.046.407 0 .01.002.02.003.029.024.18.053.36.086.538h-1.285a10.286 10.286 0 0 1-.146-.974h1.296zm-1.347-.976c0-.218.011-.434.025-.648h1.298v.014c-.013.211-.02.422-.02.634 0 .11.003.218.006.326h-1.296c-.005-.108-.013-.216-.013-.326zm.803-3.896h1.247c-.057.141-.111.286-.162.43l-.043.12c-.046.14-.09.281-.132.424h-1.27c.102-.335.223-.66.36-.974zm2.082 9.418h-1.167a9.103 9.103 0 0 1-.765-1.298h1.234c.05.114.103.228.159.34.024.048.047.096.073.145.067.13.135.258.209.385l.079.141c.057.097.118.192.178.287zm3.284-14.09a7.597 7.597 0 0 0-.32.175c-.058.033-.119.066-.176.101-.09.056-.178.115-.267.173h-.627a6.895 6.895 0 0 1 1.492-.506c-.035.018-.068.039-.102.056zm3.439-.85c-.333 0-.66.026-.982.069a7.436 7.436 0 0 0-.973-.068c-2.397 0-4.56 1.159-6.077 3.008-.016.014-.027.03-.04.046a9.582 9.582 0 0 0-1.256 2.04 10.171 10.171 0 0 0-.574 1.59.346.346 0 0 0-.026.1c-.214.837-.332 1.72-.332 2.633a10.442 10.442 0 0 0 .805 4.04c.302.721.684 1.39 1.13 1.996.012.016.021.032.036.045a8.885 8.885 0 0 0 1.544 1.606c.016.017.035.03.056.044 1.343 1.063 2.975 1.687 4.734 1.687a7.1 7.1 0 0 0 .973-.068c.322.045.65.068.982.068 4.58 0 8.307-4.224 8.307-9.418 0-5.193-3.727-9.417-8.307-9.417z"/>
            <ellipse cx="38.421" cy="10.252" fill="#4087E7" rx="8.117" ry="9.173"/>
            <ellipse cx="18.066" cy="33.871" fill="#4087E7" rx="7.811" ry="9.084" transform="rotate(-8 18.066 33.87)"/>
            <path fill="#FFF" d="M40.383 12.323a1.34 1.34 0 0 1-.118.353c-.053.104-.127.201-.223.29-.096.09-.19.166-.282.228a2.242 2.242 0 0 1-.34.18 3.902 3.902 0 0 1-.724.241 7.584 7.584 0 0 1-.642.13l-.236.041-.323-2.731c.034-.006.134-.028.302-.066a5.54 5.54 0 0 1 .852-.145c.188-.02.348-.026.479-.017.131.008.276.032.435.07.159.039.29.098.395.177.106.079.198.188.28.326.081.14.134.306.157.5.017.15.013.291-.012.423zM37.055 7.33a39.23 39.23 0 0 0 .594-.125c.09-.02.214-.037.371-.05.157-.014.29-.017.4-.01.109.006.231.029.366.066a.858.858 0 0 1 .332.168c.086.074.165.175.234.303.07.127.115.28.136.457.018.151.015.292-.009.423a.88.88 0 0 1-.135.344 2.033 2.033 0 0 1-.21.263c-.073.078-.17.147-.29.209-.122.06-.227.112-.319.151a2.25 2.25 0 0 1-.344.111l-.317.077c-.072.016-.17.035-.296.056l-.22.038-.293-2.481zm4.813 2.769c-.294-.357-.698-.564-1.213-.62.584-.53.78-1.278.588-2.244a2.348 2.348 0 0 0-.342-.881 1.526 1.526 0 0 0-.6-.53 2.433 2.433 0 0 0-.762-.227 4.585 4.585 0 0 0-.913-.012l-.241-2.036-.98.187.234 1.98c-.17.032-.428.087-.776.163l-.235-1.995-.98.186.24 2.037c-.14.032-.345.074-.617.126l-1.35.248.156 1.325.707-.134c.322-.062.533.086.632.441l.274 2.32a.496.496 0 0 1 .103-.012l-.102.02.383 3.248c0 .28-.108.442-.32.483l-.707.134-.022 1.516 1.273-.243.35-.062c.154-.026.269-.047.345-.061l.244 2.06.98-.186-.24-2.037c.179-.029.438-.075.777-.14l.24 2.029.98-.187-.243-2.06c.346-.089.65-.187.912-.298.263-.111.51-.253.74-.426.232-.174.419-.37.562-.591.144-.22.253-.486.326-.797.074-.312.103-.662.088-1.05-.033-.759-.197-1.317-.491-1.674z"/>
            <path fill="#438CEF" d="M20.792 41.9a6.507 6.507 0 0 1-.71.217l-.12.027-.051.01a7.551 7.551 0 0 1-.323.062l-.027.004c-.106.018-.21.032-.316.043-.016.003-.032.004-.048.005-.098.01-.196.02-.295.026a40.962 40.962 0 0 1-.342.012 6.86 6.86 0 0 1-.205-.005c-.047 0-.094 0-.14-.002-1.841-.081-3.651-.912-5.083-2.3-.014-.014-.025-.028-.038-.04a6.831 6.831 0 0 1-.317-.328c-.057-.062-.115-.124-.17-.19l-.106-.124c-.047-.057-.095-.114-.14-.172a13.735 13.735 0 0 1-.24-.312c-.038-.051-.074-.105-.111-.156a8.85 8.85 0 0 1-.224-.334c-.038-.058-.072-.116-.11-.174a6.284 6.284 0 0 1-.1-.171c-.036-.06-.07-.123-.104-.184-.031-.058-.063-.113-.093-.17-.035-.068-.068-.136-.102-.205-.027-.054-.054-.106-.08-.162-.038-.078-.073-.16-.11-.24l-.06-.137a12.463 12.463 0 0 1-.155-.388 12.991 12.991 0 0 1-.137-.395l-.044-.143-.075-.255c-.016-.057-.03-.115-.045-.173-.019-.073-.039-.148-.056-.222-.016-.063-.028-.126-.041-.19-.014-.068-.03-.137-.043-.207a6.186 6.186 0 0 1-.034-.193l-.032-.205a5.472 5.472 0 0 1-.026-.193 6.183 6.183 0 0 1-.024-.205l-.017-.192c-.006-.068-.01-.138-.015-.207l-.01-.184-.005-.222a11.07 11.07 0 0 1 .004-.418 7.13 7.13 0 0 1 .025-.453c.001-.019 0-.037.003-.055.174-1.985 1-3.792 2.342-5.054.033-.03.07-.06.104-.092.05-.046.1-.091.153-.137.064-.053.13-.105.196-.158l.07-.055c.079-.06.16-.118.24-.173.014-.01.026-.02.04-.028.087-.06.176-.117.267-.173.009-.004.014-.01.023-.015.094-.056.189-.11.286-.162.015-.01.03-.017.045-.026l.108-.058c.22-.11.446-.21.682-.296 3.833-1.42 8.283.995 9.92 5.386 1.637 4.391-.15 9.12-3.984 10.54zm-3.079.991c-.731.11-1.47.087-2.195-.045l.715-.265c.049.017.098.03.147.042a7.027 7.027 0 0 0 .677.167c.064.013.129.023.195.035.116.019.233.036.349.051l.112.015zm-4.508-.866l1.015-.377a7.848 7.848 0 0 0 1.017.55l.096.046-.89.33a7.783 7.783 0 0 1-1.238-.55zm-3.313-12.87l.818-.304c-.05.091-.1.183-.146.276-.04.078-.074.158-.112.238l-.107.243a9.222 9.222 0 0 0-.096.235c-.028.071-.052.143-.078.214l-.976.362c.195-.447.426-.871.697-1.265zm-.107 2.35c-.009.051-.018.103-.024.155a9.3 9.3 0 0 0-.079.593l-1.109.411c.067-.504.177-.993.329-1.464l1.036-.384c-.017.065-.035.129-.05.196a9.284 9.284 0 0 0-.103.493zm1.67 7.477l.067.098a9.922 9.922 0 0 0 .386.506l.078.096c.024.027.046.057.07.084l-1.14.422a8.993 8.993 0 0 1-.62-.776l1.16-.43zm-1.72-4.398c.005.037.012.074.019.113.005.042.012.082.018.124.033.2.07.397.117.596.001.01.005.018.007.029.005.025.013.052.02.078l-1.175.435a9.496 9.496 0 0 1-.174-.942l1.169-.433zm.917 3.017c.056.12.116.237.18.355.003.009.007.016.012.025.083.155.17.309.26.46l-1.167.431a9.967 9.967 0 0 1-.462-.835l1.177-.436zm-1.553-.432a9.565 9.565 0 0 1-.197-.598l1.179-.436.004.013c.06.195.124.39.196.583.037.1.077.196.116.293l-1.177.436c-.04-.096-.084-.191-.121-.29zm-.59-3.809l1.132-.42a9.513 9.513 0 0 0-.002.445l.002.124c.006.142.013.285.023.429l-1.153.427a9.001 9.001 0 0 1-.002-1.005zm5.079 7.853l-1.06.392a8.803 8.803 0 0 1-1.135-.921l1.121-.416a8.567 8.567 0 0 0 .695.642l.12.102c.084.068.172.135.259.2zM11.8 27.31c-.08.088-.156.176-.23.267-.043.05-.086.1-.127.151-.063.082-.123.164-.184.248l-.569.21c.357-.361.75-.687 1.184-.961-.026.028-.05.058-.074.085zm2.836-1.928a7.138 7.138 0 0 0-.868.392c-.322.073-.62.16-.907.266-2.177.806-3.75 2.587-4.501 4.777-.01.018-.015.037-.02.055a9.255 9.255 0 0 0-.452 2.275 9.843 9.843 0 0 0 .018 1.638.32.32 0 0 0 .01.1 10.255 10.255 0 0 0 2.689 5.9 9.315 9.315 0 0 0 1.702 1.433 8.632 8.632 0 0 0 1.993.968c.02.01.042.016.066.022 1.58.512 3.273.53 4.87-.062.288-.106.571-.234.861-.39.307-.067.613-.156.915-.268 4.16-1.541 6.114-6.632 4.356-11.349-1.758-4.717-6.573-7.298-10.732-5.757z"/>
            <path fill="#FFF" d="M20.47 35.124c.021.128.025.249.012.36a1.018 1.018 0 0 1-.104.34 2.112 2.112 0 0 1-.18.3c-.062.088-.145.18-.247.278a3.677 3.677 0 0 1-.576.463 7.2 7.2 0 0 1-.539.334l-.2.117-1.219-2.371c.03-.018.113-.071.252-.162a5.31 5.31 0 0 1 .725-.419c.165-.081.308-.14.43-.176a2.46 2.46 0 0 1 .418-.083c.158-.019.297-.01.42.027.121.037.243.105.364.203.12.099.225.232.311.4.068.131.112.26.133.39zm-4.713-3.414l.21-.132.287-.183c.076-.048.183-.105.32-.17a2.69 2.69 0 0 1 .36-.143c.102-.03.22-.052.355-.063a.826.826 0 0 1 .358.041c.104.038.21.104.316.196.105.092.198.215.278.37.067.13.112.26.135.386a.85.85 0 0 1-.006.358 1.998 1.998 0 0 1-.102.31c-.04.095-.105.191-.193.287-.09.096-.169.178-.238.245-.069.066-.16.138-.275.216-.115.079-.202.138-.262.177-.06.039-.143.089-.25.15l-.187.109-1.106-2.155zm5.308.894c-.387-.225-.824-.277-1.31-.155.35-.678.275-1.423-.227-2.236a2.279 2.279 0 0 0-.608-.685 1.49 1.49 0 0 0-.724-.279 2.354 2.354 0 0 0-.77.05c-.255.06-.533.16-.833.298l-.908-1.77-.827.5.883 1.72c-.143.086-.36.223-.649.41l-.89-1.734-.827.5.908 1.768c-.115.076-.288.183-.518.322l-1.142.68.59 1.151.597-.36c.272-.164.514-.101.723.189l1.034 2.014a.443.443 0 0 1 .09-.045l-.086.052 1.448 2.82c.094.256.052.438-.128.547l-.596.36.493 1.384 1.074-.649.298-.175.292-.171.919 1.79.827-.5-.908-1.769c.153-.086.373-.216.66-.388l.903 1.761.828-.5-.919-1.79c.284-.196.527-.388.728-.576.2-.19.377-.401.528-.637.151-.235.255-.477.31-.725.056-.248.065-.526.026-.834a3.764 3.764 0 0 0-.276-.982c-.287-.679-.625-1.13-1.013-1.356z"/>
            <path fill="#438CEF" d="M14.098 94.98h1.545v-3.082h-1.545v3.082zm-2.575 0h1.545v-3.082h-1.545v3.082zm-2.575 0h1.545v-3.082H8.948v3.082zm-2.575 0h1.545v-3.082H6.373v3.082zm-2.575 0h1.545v-3.082H3.798v3.082zm-2.575 0h1.545v-3.082H1.223v3.082zM1.03 82.656h1.545v-3.081H1.03v3.081zm3.605-8.216H3.09h1.545zm2.575 0H5.665 7.21zm2.575 0H8.24h1.545zm2.575 0h-1.545 1.545zm2.575 0H13.39h1.545zm0 4.108h1.545v-3.081h-1.545v3.08zm-.515 8.216h1.545v-3.081H14.42v3.08zm-.515-4.108h1.545v-3.081h-1.545v3.081zm-1.03 8.216h1.545V87.79h-1.545v3.08zm-1.03-4.108h1.545v-3.081h-1.545v3.08zm.515-8.216h1.545v-3.081H12.36v3.08zm-1.03 4.108h1.545v-3.081H11.33v3.081zm-1.03 8.216h1.545V87.79H10.3v3.08zm-1.03-4.108h1.545v-3.081H9.27v3.08zm.515-8.216h1.545v-3.081H9.785v3.08zm-1.03 4.108H10.3v-3.081H8.755v3.081zm-1.03 8.216H9.27V87.79H7.725v3.08zm-1.03-4.108H8.24v-3.081H6.695v3.08zm.515-8.216h1.545v-3.081H7.21v3.08zm-1.03 4.108h1.545v-3.081H6.18v3.081zm-1.03 8.216h1.545V87.79H5.15v3.08zm-1.03-4.108h1.545v-3.081H4.12v3.08zm.515-8.216H6.18v-3.081H4.635v3.08zm-2.575 0h1.545v-3.081H2.06v3.08zm1.545 4.108H5.15v-3.081H3.605v3.081zM2.06 86.764h-.515v-3.081H3.09v3.08H2.06zm.515 4.108H4.12V87.79H2.575v3.08zm12.875 0h1.545V87.79H15.45v3.08zM1.03 78.548H.515a.514.514 0 0 0-.515.514v4.108c0 .283.23.513.515.513v3.594c0 .284.23.514.515.514h.515v3.08H.708a.515.515 0 0 0-.515.514v4.108c0 .284.23.514.515.514h15.45c.284 0 .515-.23.515-.514V91.9h.837c.284 0 .515-.23.515-.514v-4.108a.515.515 0 0 0-.515-.513h-.515V83.17a.514.514 0 0 0-.515-.514v-3.081h.515c.285 0 .515-.23.515-.513v-4.11a.514.514 0 0 0-.515-.512H1.695c-.557 0-.638.23-.665.812v3.296z"/>
        </g>
        <g filter="url(#a)" transform="translate(32.468 1)">
            <path fill="#F6851B" d="M53.218 1.827L31.698 17.35 21.347 41.287l-2.618 24.095 25.974 4.22.425-26.577 12.82-10.106 13.323 4.68 14.212 11.305 19.927.877 15.336-17.448-.242-23.23-13.961 9.108L96.28 9.785 82.77.199z"/>
            <path stroke="#F6851B" stroke-width=".54" d="M44.704 69.602l.424-26.577 12.82-10.106 13.323 4.68 14.212 11.305 19.927.877 15.336-17.448-.242-23.23-13.96 9.108L96.28 9.785 82.77.199 53.218 1.827 31.698 17.351 21.347 41.287l-2.618 24.095z"/>
            <path fill="#F6851B" d="M36.569 34.688l-13.107 9.856-12.26 17.997v12.49L1.9 92.003v9.677L.21 126.245l9.917.257 4.034-19.363 14.375-15.56 2.537 7.026-.455 11.515 9.756 14.443-3.805 10.725 49.035 12.924 10.513-3.389-4.807-5.125-16.78-8.623 7.588-11.005 35.572 23.11 20.694-.423-.5-2.954-2.1-1-15.366-8.61-28.326-30.338-5.15-29.85-13.585-20.968-22.413-16.881z"/>
            <path stroke="#F6851B" stroke-width=".54" d="M86.942 70.004L73.357 49.037 50.944 32.156l-14.375 2.532-13.107 9.856-12.26 17.998V75.03L1.9 92.002v9.679L.21 126.245l9.916.257 4.035-19.363 14.375-15.56 2.537 7.026-.455 11.515 9.756 14.443-3.805 10.725 49.034 12.924 10.514-3.389-4.807-5.125-16.78-8.622 7.588-11.006 35.573 23.11 20.693-.423-.5-2.954-2.1-1-15.366-8.61-28.326-30.339z"/>
            <path fill="#D7C1B3" d="M75.508.646l12.607 14.16 13.56 9.535-15.017 10.072-11.052 6.68 9.62 8.104 20.184.584 15.336-17.448-.242-23.23-15.282 5.873L82.771.199z"/>
            <path stroke="#D7C1B3" stroke-width=".54" d="M75.508.646l12.607 14.16 13.56 9.535-15.017 10.072-11.052 6.68 9.619 8.104 20.185.584 15.336-17.448-.242-23.23-15.282 5.873L82.771.199z"/>
            <path fill="#D7C1B3" d="M49.203 84.709v7.784l-8.179 12.763 4.09 3.517-5.131 15.79-9.573-14.166.662-11.792-2.536-6.634 4.31-14.614H43.7z"/>
            <path stroke="#D7C1B3" stroke-width=".54" d="M49.203 84.709v7.784l-8.179 12.763 4.09 3.517-5.131 15.79-9.573-14.166.662-11.792-2.536-6.634 4.31-14.614H43.7z"/>
            <path fill="#763D16" d="M16.147 85.958l-8.52 2.892L1.9 92.003.209 126.245l4.49 2.662 10.414-.811-2.334-6.887 1.382-14.07 13.983-15.168-6.545-1.938v-8.256z"/>
            <path stroke="#763D16" stroke-width=".54" d="M7.627 88.85l8.52-2.892 5.452-4.18v8.255l6.546 1.937-13.984 15.17-1.382 14.07 2.334 6.886-10.415.81-4.489-2.661L1.9 92.002z"/>
            <path fill="#763D16" d="M50.377 135.679v3.564l40.445 10.4 5.295-4.82-4.025-6.297-5.083-2.847-12.478-4.604-16.557-1.191z"/>
            <path stroke="#763D16" stroke-width=".54" d="M50.377 135.679l7.597-5.795 16.557 1.192 12.477 4.603 5.085 2.847 4.024 6.297-5.295 4.82-40.445-10.4z"/>
            <path fill="#763D16" d="M85.603 128.732l32.088 14.447 20.693-.422-.108-2.954-9.014-4.612-20.783-11.06z"/>
            <path stroke="#763D16" stroke-width=".54" d="M85.603 128.732l32.088 14.447 20.693-.422-.108-2.954-9.014-4.612-20.783-11.06z"/>
            <path fill="#E4761B" d="M122.08 116.419l-4.005 13.895-8.371-2.285z"/>
            <path stroke="#E4761B" stroke-width=".54" d="M122.08 116.419l-4.005 13.895-8.371-2.285z"/>
            <path fill="#E4761B" d="M109.704 128.029l8.073-11.042 4.014-.74z"/>
            <path stroke="#E4761B" stroke-width=".54" d="M109.704 128.029l8.073-11.042 4.014-.74z"/>
            <path fill="#F6851B" d="M116.065 105.073l4.037-2.791 2.236 13.64-6.273-10.85zm0 0l6.273 10.85-4.56 1.064-1.713-11.914z"/>
            <path stroke="#F6851B" stroke-width=".54" d="M116.065 105.073l4.037-2.791 2.236 13.64-6.273-10.85zm0 0l6.273 10.85-4.56 1.064-1.713-11.914z"/>
            <path fill="#763D16" d="M121.587 97.85l-10.66-.976 11.027-2.145-.367 3.122zm-10.66-.976l11.604-4.745-.577 2.6-11.027 2.145z"/>
            <path stroke="#763D16" stroke-width=".54" d="M121.587 97.85l-10.66-.976 11.027-2.145-.367 3.122zm-10.66-.976l11.604-4.745-.577 2.6-11.027 2.145z"/>
            <path fill="#763D16" d="M121.587 97.85l.367-3.121 1.555 1.29-1.922 1.832zm2.324-4.622l-1.957 1.5.577-2.599 1.38 1.1zm-2.324 4.623l-1.485 4.43-9.175-5.407 10.66.977z"/>
            <path stroke="#763D16" stroke-width=".54" d="M121.587 97.85l.367-3.121 1.555 1.29-1.922 1.832zm2.324-4.622l-1.957 1.5.577-2.599 1.38 1.1zm-2.324 4.623l-1.485 4.43-9.175-5.407 10.66.977z"/>
            <path fill="#E2761B" d="M100.704 124.523l2.901.924 6.099 2.582z"/>
            <path stroke="#E2761B" stroke-width=".54" d="M100.704 124.523l2.901.924 6.099 2.582z"/>
            <path fill="#763D16" d="M120.102 102.282l-12.041-3.96 2.866-1.448 9.175 5.408zm0 0l1.485-4.431 1.276.977-2.761 3.454z"/>
            <path stroke="#763D16" stroke-width=".54" d="M120.102 102.282l-12.041-3.96 2.866-1.448 9.175 5.408zm0 0l1.485-4.431 1.276.977-2.761 3.454z"/>
            <path fill="#763D16" d="M113.793 83.285l-2.866 13.589-2.866 1.448z"/>
            <path stroke="#763D16" stroke-width=".54" d="M113.793 83.285l-2.866 13.589-2.866 1.448z"/>
            <path fill="#763D16" d="M122.53 92.13l-11.603 4.744 2.866-13.589z"/>
            <path stroke="#763D16" stroke-width=".54" d="M122.53 92.13l-11.603 4.744 2.866-13.589z"/>
            <path fill="#763D16" d="M113.793 83.285l12.11-1.395-3.372 10.24z"/>
            <path stroke="#763D16" stroke-width=".54" d="M113.793 83.285l12.11-1.395-3.372 10.24z"/>
            <path fill="#F6851B" d="M120.102 102.282l-4.037 2.79-8.004-6.75z"/>
            <path stroke="#F6851B" stroke-width=".54" d="M120.102 102.282l-4.037 2.79-8.004-6.75z"/>
            <path fill="#763D16" d="M125.38 72.104l.524 9.786-12.11 1.395z"/>
            <path stroke="#763D16" stroke-width=".54" d="M125.38 72.104l.524 9.786-12.11 1.395z"/>
            <path fill="#E2761B" d="M125.38 72.104L101.175 89.67l-.315-11.914z"/>
            <path stroke="#E2761B" stroke-width=".54" d="M125.38 72.104L101.175 89.67l-.315-11.914z"/>
            <path fill="#F6851B" d="M82.861 76.325l18 1.43.315 11.915z"/>
            <path stroke="#F6851B" stroke-width=".54" d="M82.861 76.325l18 1.43.315 11.915z"/>
            <path fill="#763D16" d="M108.061 98.322l-6.885-8.652 12.617-6.385z"/>
            <path stroke="#763D16" stroke-width=".54" d="M108.061 98.322l-6.885-8.652 12.617-6.385z"/>
            <path fill="#E4761B" d="M108.061 98.322l8.004 6.75-11.237 1.24z"/>
            <path stroke="#E4761B" stroke-width=".54" d="M108.061 98.322l8.004 6.75-11.237 1.24z"/>
            <path fill="#E4761B" d="M104.828 106.311l-3.652-16.642 6.885 8.653z"/>
            <path stroke="#E4761B" stroke-width=".54" d="M104.828 106.311l-3.652-16.642 6.885 8.653z"/>
            <path fill="#763D16" d="M113.793 83.285l-12.617 6.385 24.203-17.566z"/>
            <path stroke="#763D16" stroke-width=".54" d="M113.793 83.285l-12.617 6.385 24.203-17.566z"/>
            <path fill="#C0AD9E" d="M83.019 127.75l5.714 5.948-7.777-7.065z"/>
            <path stroke="#C0AD9E" stroke-width=".54" d="M83.019 127.75l5.714 5.948-7.777-7.065z"/>
            <path fill="#CD6116" d="M109.704 128.029l2.709-10.275 5.364-.767z"/>
            <path stroke="#CD6116" stroke-width=".54" d="M109.704 128.029l2.709-10.275 5.364-.767z"/>
            <path fill="#E2761B" d="M59.846 99.124l9.892-10.379-8.616 9.14z"/>
            <path stroke="#E2761B" stroke-width=".54" d="M59.846 99.124l9.892-10.379-8.616 9.14z"/>
            <path fill="#F6851B" d="M101.176 89.67l-9.63-.314-8.685-13.031 18.315 13.345zm16.601 27.317l-5.364.767 3.652-12.681 1.712 11.914z"/>
            <path stroke="#F6851B" stroke-width=".54" d="M101.176 89.67l-9.63-.314-8.685-13.031 18.315 13.345zm16.601 27.317l-5.364.767 3.652-12.681 1.712 11.914z"/>
            <path fill="#E4751F" d="M116.065 105.073l-3.652 12.682-.298-6.193z"/>
            <path stroke="#E4751F" stroke-width=".54" d="M116.065 105.073l-3.652 12.682-.298-6.193z"/>
            <path fill="#CD6116" d="M104.828 106.311l11.237-1.239-3.95 6.49z"/>
            <path stroke="#CD6116" stroke-width=".54" d="M104.828 106.311l11.237-1.239-3.95 6.49z"/>
            <path fill="#F6851B" d="M91.547 89.356l9.629.314 3.652 16.641z"/>
            <path stroke="#F6851B" stroke-width=".54" d="M91.547 89.356l9.629.314 3.652 16.641z"/>
            <path fill="#E4761B" d="M82.844 131.395l-22.578 6.978-4.51-17.182 27.088 10.204zm8.703-42.04L65.56 65.354l17.3 10.972 8.686 13.03z"/>
            <path stroke="#E4761B" stroke-width=".54" d="M82.844 131.395l-22.578 6.978-4.51-17.182 27.088 10.204zm8.703-42.04L65.56 65.354l17.3 10.972 8.686 13.03z"/>
            <path fill="#763D16" d="M63.201 103.415l8.529-6.68 7.147 1.657z"/>
            <path stroke="#763D16" stroke-width=".54" d="M63.201 103.415l8.529-6.68 7.147 1.657z"/>
            <path fill="#763D16" d="M78.877 98.392l-7.147-1.658 3.827-15.769z"/>
            <path stroke="#763D16" stroke-width=".54" d="M78.877 98.392l-7.147-1.658 3.827-15.769z"/>
            <path fill="#763D16" d="M61.122 97.886l10.608-1.152-8.529 6.681z"/>
            <path stroke="#763D16" stroke-width=".54" d="M61.122 97.886l10.608-1.152-8.529 6.681z"/>
            <path fill="#CD6116" d="M112.115 111.562l-4.403.266-2.884-5.517z"/>
            <path stroke="#CD6116" stroke-width=".54" d="M112.115 111.562l-4.403.266-2.884-5.517z"/>
            <path fill="#763D16" d="M61.122 97.886l-.751-3.96 11.359 2.808z"/>
            <path stroke="#763D16" stroke-width=".54" d="M61.122 97.886l-.751-3.96 11.359 2.808z"/>
            <path fill="#233447" d="M106.803 114.335l.909-2.153 4.403-.62z"/>
            <path stroke="#233447" stroke-width=".54" d="M106.803 114.335l.909-2.153 4.403-.62z"/>
            <path fill="#F6851B" d="M112.413 117.754l-5.61-3.419 5.312-2.773z"/>
            <path stroke="#F6851B" stroke-width=".54" d="M112.413 117.754l-5.61-3.419 5.312-2.773z"/>
            <path fill="#763D16" d="M75.557 80.965l15.99 8.39-12.67 9.037-3.32-17.427zm0 0l-3.827 15.77-12.286-6.14 16.113-9.63zm-3.827 15.77l-11.36-2.809-.926-3.332 12.286 6.14z"/>
            <path stroke="#763D16" stroke-width=".54" d="M75.557 80.965l15.99 8.39-12.67 9.037-3.32-17.427zm0 0l-3.827 15.77-12.286-6.14 16.113-9.63zm-3.827 15.77l-11.36-2.809-.926-3.332 12.286 6.14z"/>
            <path fill="#E4761B" d="M97.192 106.573l-17.511-.366-.804-7.815 18.315 8.18zm-18.315-8.181l12.67-9.036 5.645 17.217-18.315-8.181z"/>
            <path stroke="#E4761B" stroke-width=".54" d="M97.192 106.573l-17.511-.366-.804-7.815 18.315 8.18zm-18.315-8.181l12.67-9.036 5.645 17.217-18.315-8.181z"/>
            <path fill="#F6851B" d="M104.828 106.311l-7.637.262-5.644-17.217 13.281 16.955zm-41.626-2.896l15.675-5.023.804 7.814-16.48-2.79z"/>
            <path stroke="#F6851B" stroke-width=".54" d="M104.828 106.311l-7.637.262-5.644-17.217 13.281 16.955zm-41.626-2.896l15.675-5.023.804 7.814-16.48-2.79z"/>
            <path fill="#CD6116" d="M107.712 111.828l-.909 2.507-1.975-8.024z"/>
            <path stroke="#CD6116" stroke-width=".54" d="M107.712 111.828l-.909 2.507-1.975-8.024z"/>
            <path fill="#763D16" d="M65.56 65.353l25.987 24.003-15.99-8.39z"/>
            <path stroke="#763D16" stroke-width=".54" d="M65.56 65.353l25.987 24.003-15.99-8.39z"/>
            <path fill="#E4761B" d="M55.757 121.19l21.914-.906 5.173 11.111z"/>
            <path stroke="#E4761B" stroke-width=".54" d="M55.757 121.19l21.914-.906 5.173 11.111z"/>
            <path fill="#CD6116" d="M82.844 131.041l-5.173-10.757 10.765-.524z"/>
            <path stroke="#CD6116" stroke-width=".54" d="M82.844 131.041l-5.173-10.757 10.765-.524z"/>
            <path fill="#F6851B" d="M99.34 111.91l-2.148-5.337 7.636-.262-5.487 5.6zm5.488-5.599l1.433 5.199-6.92.4 5.487-5.599zm-27.157 13.973l-21.914.907 23.924-14.985-2.01 14.078zm2.01-14.078l-23.924 14.985 7.444-17.776 16.48 2.791zm27.122 8.13l5.61 3.419 3.093 7.273-8.703-10.693z"/>
            <path stroke="#F6851B" stroke-width=".54" d="M99.34 111.91l-2.148-5.337 7.636-.262-5.487 5.6zm5.488-5.599l1.433 5.199-6.92.4 5.487-5.599zm-27.157 13.973l-21.914.907 23.924-14.985-2.01 14.078zm2.01-14.078l-23.924 14.985 7.444-17.776 16.48 2.791zm27.122 8.13l5.61 3.419 3.093 7.273-8.703-10.693z"/>
            <path fill="#C0AD9E" d="M88.733 133.698l-5.889-2.303 20.481 3.437z"/>
            <path stroke="#C0AD9E" stroke-width=".54" d="M88.733 133.698l-5.889-2.303 20.481 3.437z"/>
            <path fill="#763D16" d="M63.201 103.415l-3.355-4.29 1.276-1.24z"/>
            <path stroke="#763D16" stroke-width=".54" d="M63.201 103.415l-3.355-4.29 1.276-1.24z"/>
            <path fill="#D7C1B3" d="M105.65 132.285l-2.325 2.547-20.48-3.436z"/>
            <path stroke="#D7C1B3" stroke-width=".54" d="M105.65 132.285l-2.325 2.547-20.48-3.436z"/>
            <path fill="#E4761B" d="M106.75 126.04l-23.906 5.355 5.592-11.634z"/>
            <path stroke="#E4761B" stroke-width=".54" d="M106.75 126.04l-23.906 5.355 5.592-11.634z"/>
            <path fill="#D7C1B3" d="M82.844 131.395l23.907-5.355-1.102 6.245z"/>
            <path stroke="#D7C1B3" stroke-width=".54" d="M82.844 131.395l23.907-5.355-1.102 6.245z"/>
            <path fill="#763D16" d="M61.122 97.886l-2.324-2.355 1.573-1.605.75 3.96zm-1.678-7.292l-.786-13.414 16.899 3.785-16.113 9.63z"/>
            <path stroke="#763D16" stroke-width=".54" d="M61.122 97.886l-2.324-2.355 1.573-1.605.75 3.96zm-1.678-7.292l-.786-13.414 16.899 3.785-16.113 9.63z"/>
            <path fill="#CD6116" d="M93.277 112.509l3.915-5.936-.56 8.443z"/>
            <path stroke="#CD6116" stroke-width=".54" d="M93.277 112.509l3.915-5.936-.56 8.443z"/>
            <path fill="#CD6116" d="M97.192 106.573l-3.915 5.58-5.697.822z"/>
            <path stroke="#CD6116" stroke-width=".54" d="M97.192 106.573l-3.915 5.58-5.697.822z"/>
            <path fill="#F6851B" d="M115.506 125.028l-1.067-.784-7.636-9.909z"/>
            <path stroke="#F6851B" stroke-width=".54" d="M115.506 125.028l-1.067-.784-7.636-9.909z"/>
            <path fill="#CD6116" d="M87.58 112.975l-7.9-6.768 17.512.366z"/>
            <path stroke="#CD6116" stroke-width=".54" d="M87.58 112.975l-7.9-6.768 17.512.366z"/>
            <path fill="#E4751F" d="M96.632 115.016l.56-8.443 2.149 5.338z"/>
            <path stroke="#E4751F" stroke-width=".54" d="M96.632 115.016l.56-8.443 2.149 5.338z"/>
            <path fill="#763D16" d="M58.029 91.92l1.415-1.326.927 3.332z"/>
            <path stroke="#763D16" stroke-width=".54" d="M58.029 91.92l1.415-1.326.927 3.332z"/>
            <path fill="#233447" d="M96.632 115.016l-9.052-2.041 5.697-.466z"/>
            <path stroke="#233447" stroke-width=".54" d="M96.632 115.016l-9.052-2.041 5.697-.466z"/>
            <path fill="#763D16" d="M75.557 80.965l-16.9-3.785 6.904-11.827z"/>
            <path stroke="#763D16" stroke-width=".54" d="M75.557 80.965l-16.9-3.785 6.904-11.827z"/>
            <path fill="#C0AD9E" d="M103.325 134.832l.961 2.617-15.553-3.75z"/>
            <path stroke="#C0AD9E" stroke-width=".54" d="M103.325 134.832l.961 2.617-15.553-3.75z"/>
            <path fill="#F6851B" d="M88.436 119.76l-.856-6.785 9.052 2.04z"/>
            <path stroke="#F6851B" stroke-width=".54" d="M88.436 119.76l-.856-6.785 9.052 2.04z"/>
            <path fill="#E4751F" d="M79.681 106.207l7.899 6.768.856 6.785z"/>
            <path stroke="#E4751F" stroke-width=".54" d="M79.681 106.207l7.899 6.768.856 6.785z"/>
            <path fill="#F6851B" d="M79.681 106.207l8.755 13.553-10.765.524 2.01-14.077zm19.66 5.704l6.92-.402 8.179 12.735-15.1-12.333z"/>
            <path stroke="#F6851B" stroke-width=".54" d="M79.681 106.207l8.755 13.553-10.765.524 2.01-14.077zm19.66 5.704l6.92-.402 8.179 12.735-15.1-12.333z"/>
            <path fill="#E4751F" d="M99.34 111.91l8.599 13.066-11.307-9.96z"/>
            <path stroke="#E4751F" stroke-width=".54" d="M99.34 111.91l8.599 13.066-11.307-9.96z"/>
            <path fill="#F6851B" d="M96.632 115.016l11.307 9.96-1.189 1.065z"/>
            <path stroke="#F6851B" stroke-width=".54" d="M96.632 115.016l11.307 9.96-1.189 1.065z"/>
            <path fill="#F6851B" d="M114.44 124.244l-6.501.732-8.598-13.065 15.099 12.333zm-7.69 1.797l-18.314-6.28 8.196-4.745 10.119 11.025z"/>
            <path stroke="#F6851B" stroke-width=".54" d="M114.44 124.244l-6.501.732-8.598-13.065 15.099 12.333zm-7.69 1.797l-18.314-6.28 8.196-4.745 10.119 11.025z"/>
            <path fill="#C0AD9E" d="M104.286 137.449l-.96-2.617 2.323-2.547-1.363 5.164zm11.866-7.065l-2.796 5.6-9.07 1.465 11.866-7.065z"/>
            <path stroke="#C0AD9E" stroke-width=".54" d="M104.286 137.449l-.96-2.617 2.323-2.547-1.363 5.164zm11.866-7.065l-2.796 5.6-9.07 1.465 11.866-7.065z"/>
            <path fill="#C0AD9E" d="M104.286 137.449l3.076-5.844 8.79-1.221-11.866 7.065zm1.363-5.164l1.713-.68-3.076 5.844 1.363-5.164z"/>
            <path stroke="#C0AD9E" stroke-width=".54" d="M104.286 137.449l3.076-5.844 8.79-1.221-11.866 7.065zm1.363-5.164l1.713-.68-3.076 5.844 1.363-5.164z"/>
            <path fill="#161616" d="M114.44 124.244l2.15 1.308-6.537.785z"/>
            <path stroke="#161616" stroke-width=".54" d="M114.44 124.244l2.15 1.308-6.537.785z"/>
            <path fill="#161616" d="M109.302 127.366l7.95-.96-1.1 3.978-6.85-3.018zm.751-1.03l-2.114-1.36 6.5-.732-4.386 2.093z"/>
            <path stroke="#161616" stroke-width=".54" d="M109.302 127.366l7.95-.96-1.1 3.978-6.85-3.018zm.751-1.03l-2.114-1.36 6.5-.732-4.386 2.093z"/>
            <path fill="#161616" d="M116.59 125.552l.663.854-7.951.96 7.287-1.814zm-9.84.488l1.189-1.064 2.114 1.36-3.303-.296zm.612 5.565l-1.712.68 1.1-6.245.612 5.565zm8.79-1.221l-8.79 1.22 1.94-4.238 6.85 3.018z"/>
            <path stroke="#161616" stroke-width=".54" d="M116.59 125.552l.663.854-7.951.96 7.287-1.814zm-9.84.488l1.189-1.064 2.114 1.36-3.303-.296zm.612 5.565l-1.712.68 1.1-6.245.612 5.565zm8.79-1.221l-8.79 1.22 1.94-4.238 6.85 3.018z"/>
            <path fill="#161616" d="M106.75 126.04l2.552 1.326-1.94 4.239-.611-5.565zm2.552 1.326l.751-1.03 6.536-.784-7.287 1.814z"/>
            <path stroke="#161616" stroke-width=".54" d="M106.75 126.04l2.552 1.326-1.94 4.239-.611-5.565zm2.552 1.326l.751-1.03 6.536-.784-7.287 1.814z"/>
            <path fill="#161616" d="M110.053 126.337l-.751 1.03-2.551-1.327z"/>
            <path stroke="#161616" stroke-width=".54" d="M110.053 126.337l-.751 1.03-2.551-1.327z"/>
        </g>
    </g>
</svg>
