<?xml version="1.0" encoding="UTF-8"?>
<svg width="313px" height="366px" viewBox="0 0 313 366" version="1.1" xmlns="http://www.w3.org/2000/svg" xmlns:xlink="http://www.w3.org/1999/xlink">
    <!-- Generator: sketchtool 50.2 (55047) - http://www.bohemiancoding.com/sketch -->
    <title>AEA147E9-C49F-4F4C-B4DB-DA3CEEC9ECCA</title>
    <desc>Created with sketchtool.</desc>
    <defs></defs>
    <g id="Symbols" stroke="none" stroke-width="1" fill="none" fill-rule="evenodd">
        <g id="il/buterin" transform="translate(-1.000000, 0.000000)" fill-rule="nonzero">
            <g id="buterin-02" transform="translate(157.000000, 183.500000) scale(-1, 1) translate(-157.000000, -183.500000) ">
                <g id="Layer_1" transform="translate(0.261165, 0.574935)">
                    <ellipse id="Oval" fill="#438CEF" cx="156.292577" cy="208.356345" rx="156.215737" ry="155.84564"></ellipse>
                    <path d="M117.334693,175.930026 C120.638813,193.944648 126.401814,212.342559 117.949413,233.193525 C114.030573,242.852428 134.777375,253.737859 142.999256,254.657755 C151.297977,255.57765 170.738499,257.494099 178.0383,254.657755 C185.41494,251.82141 185.41494,250.978172 185.41494,250.978172 L184.49286,229.743916" id="Shape" fill="#EEEAD0"></path>
                    <g id="Group" opacity="0.37" transform="translate(116.796813, 180.146214)" fill="#000000">
                        <g id="Shape">
                            <path d="M1.38312015,0.306631854 C2.84308031,8.27906005 4.45672049,16.3281462 5.14828057,24.3772324 C5.60932062,29.7432898 5.4556406,35.0326893 4.5335605,40.3220888 C3.84200042,44.5382768 2.07468023,48.3711749 1.07576012,52.434047 C-0.691560076,59.0266319 4.99460055,64.5460052 9.9123611,68.1489295 C19.7478822,75.2781201 32.1191235,76.1980157 43.9524849,76.7346214 C52.4817258,77.1945692 61.2414868,76.5813055 68.7718076,72.0584856 C68.8486476,71.9818277 68.8486476,71.5985379 68.8486476,71.5218799 C68.5412876,64.4693473 68.1570875,57.4168146 67.9265675,50.287624 C67.9265675,49.8276762 67.7728875,49.8276762 67.7728875,50.287624 C68.0034075,56.1902872 68.3107675,62.1696084 68.5412876,68.1489295 C68.5412876,68.8388512 69.0023276,70.5253264 68.6949676,71.215248 C68.8486476,70.7553003 68.3876076,71.368564 67.5423675,71.6751958 C63.085647,72.9783812 59.3204866,75.2014621 54.633246,75.6614099 C48.7165654,76.2746736 42.6462047,75.7380679 36.7295241,75.2014621 C30.5054834,74.5881984 24.1277627,74.2049086 18.364762,71.8285117 C12.9091214,69.6054308 7.68400085,66.1558225 3.99568044,61.4796867 C1.15260013,57.8001044 1.07576012,54.503812 2.61256029,50.2109661 C3.68832041,46.9913316 4.5335605,43.6183812 5.07144056,40.3220888 C7.14612079,26.8302872 4.22620047,13.4151436 1.69048019,0.22997389 C1.45996016,0.153315927 1.38312015,0.306631854 1.38312015,0.306631854 Z"></path>
                        </g>
                    </g>
                    <path d="M117.334693,181.986005 C117.488373,182.982559 111.879052,193.714674 112.570612,192.028198 C114.414773,187.428721 112.032732,186.508825 110.726452,186.508825 C108.882292,186.508825 104.271892,189.34517 104.271892,189.34517 L104.886612,183.902454 C102.504571,185.58893 98.7394109,187.428721 95.8963306,188.041984 C99.738331,181.909347 96.8952507,179.302977 95.9731706,176.389974 L85.0618894,152.242715 C82.1419691,140.744021 70.0780877,132.541619 66.5434474,111.843969 L64.6224471,117.516658 L62.0867269,104.944752 C57.2458063,82.5606266 61.2414868,82.8672585 65.0834872,72.5184334 L67.0044874,66.6157702 C65.9287273,66.8457441 64.9298072,67.4590078 64.0845671,68.2255875 C63.393007,66.3857963 64.3919271,64.6993211 65.4676872,64.1627154 C65.9287273,63.9327415 67.3886874,64.0093995 67.3886874,64.0093995 C66.3129273,63.2428198 61.2414868,58.5666841 62.7014469,59.0266319 C64.4687671,59.6398956 68.0802475,60.9430809 68.3876076,59.1032898 C68.6949676,57.2634987 64.4687671,55.8836554 66.8508074,54.503812 C66.7739674,55.4237076 67.3886874,56.4202611 68.2339275,56.8035509 C69.0023276,57.1101828 69.3865277,58.1067363 70.3086078,57.9534204 C71.6148879,57.8767624 70.5391278,52.8939948 70.5391278,52.8939948 C70.2317678,49.9809922 69.8475677,47.0679896 69.5402077,44.1549869 C70.1549278,44.8449086 71.0001678,45.3048564 71.8454079,45.5348303 C71.6917279,41.6252742 74.9958483,38.4822977 78.0694486,36.0292428 C80.6051689,33.8828198 95.4352905,23.2273629 97.9710108,21.0809399 C102.735091,17.1713838 107.499172,13.2618277 112.877972,10.425483 C121.868253,5.51937337 132.164815,3.60292428 142.307696,1.99310705 C140.617216,3.83289817 138.926735,5.6726893 137.159415,7.51248042 C146.303376,6.97587467 155.063137,12.495248 164.283938,11.9586423 C164.053418,12.648564 164.514458,13.4918016 165.129178,13.7984334 C165.820738,14.1050653 166.589138,14.2583812 167.357538,14.2583812 C171.353219,14.718329 175.118379,16.4048042 177.96146,19.1644909 L177.6541,16.6347781 C184.72338,18.857859 192.714741,16.3281462 199.399822,19.2411488 C198.938782,20.3143603 197.939862,21.3109138 196.864102,21.5408877 C202.012382,23.3040209 207.083823,25.6804178 211.847903,28.5934204 C213.000504,29.36 214.229944,30.2032376 214.690984,31.5830809 C215.152024,32.9629243 213.845744,34.6493995 212.462623,34.1127937 C216.996184,36.7191645 220.684504,40.5520627 223.373905,45.0748825 C223.834945,45.8414621 224.219145,46.9146736 223.450745,47.5279373 C222.912865,47.9878851 222.298145,47.7579112 221.606584,47.7579112 C220.991864,47.8345692 221.068704,48.5244909 221.529744,49.0610966 L223.220225,50.2109661 C224.987545,56.8035509 226.063305,63.3194778 227.984305,69.9887206 C226.908545,69.5287728 225.832785,69.145483 224.757025,68.6855352 C225.525425,70.0653786 226.216985,71.5985379 226.293825,73.1316971 C226.524345,77.654517 223.758105,81.0274674 223.220225,85.3969713 L117.334693,181.986005 Z" id="Shape" fill="#789E94"></path>
                    <g id="Group" transform="translate(89.134410, 65.925849)">
                        <path d="M25.3572028,81.5640731 C22.7446425,77.0412533 18.9794821,70.6019843 13.8312015,69.7587467 C8.29872092,68.9155091 2.91992032,74.2049086 1.07576012,79.4176501 C-0.768400085,84.7070496 1.92100021,90.5330548 3.45780038,95.8991123 C4.30304048,98.8887728 5.37880059,101.725117 7.29980081,104.101514 C9.52816105,106.784543 11.2954812,108.624334 14.1385616,110.694099 C19.2100021,114.526997 22.7446425,117.133368 28.8150032,115.216919 C29.5834033,114.986945 30.3518034,114.680313 31.1970434,114.297023 C32.0422835,113.913734 32.1959636,114.373681 32.9643636,114.986945 C33.5790837,115.523551 33.7327637,116.366789 33.8864437,117.133368 C35.4232439,125.182454 41.0325645,138.980888 41.8009646,141.587258 C43.2609248,146.110078 50.4070456,147.719896 54.7869261,149.253055 C57.6300064,150.17295 69.6170477,152.089399 77.8389286,156.612219 C84.0629693,160.061828 88.3660098,162.514883 95.3584505,163.971384 C99.968851,164.891279 106.500252,164.584648 110.188572,163.051488 C116.873653,160.215144 120.869333,160.521775 124.711334,154.31248 C125.633414,152.855979 126.939694,150.019634 126.786014,148.256501 C126.632334,144.883551 124.173454,143.580366 122.175613,140.897337 C118.026253,135.224648 117.718893,124.875822 118.948333,117.899948 C119.870413,112.763864 123.558734,108.854308 125.863934,104.101514 C128.707014,98.582141 130.704854,96.8956658 133.240575,89.3065274 C135.084735,83.787154 130.013294,80.6441775 129.552254,76.4279896 C128.630174,68.1489295 141.308776,61.8629765 141.078256,57.0335248 C140.847736,50.1343081 135.468935,51.6674674 133.163735,45.1515405 C132.395335,43.0817755 133.471095,27.5968668 133.624775,25.4504439 C134.085815,14.7949869 133.701615,11.6520104 133.317415,7.58913838 C129.936454,4.29284595 127.093374,4.75279373 124.634494,8.73900783 C123.328214,10.8854308 122.098773,11.9586423 120.715653,14.1050653 C120.254613,14.7949869 117.488373,19.7777546 115.951573,23.3806789 C114.952653,25.7570757 110.419092,30.4332115 107.960212,29.9732637 C105.117132,29.5133159 100.967771,26.8302872 99.815171,24.2239164 C98.4320509,21.1575979 95.3584505,18.4745692 92.3616902,16.0215144 C89.7491299,13.8750914 86.9060496,11.8819843 84.1398093,10.1955091 C82.0651291,8.89232376 80.4514889,9.35227154 76.3021284,7.89577023 C73.9969282,7.1291906 68.9254876,6.82255875 66.6202874,7.58913838 C62.4709269,8.89232376 60.2425667,12.9551958 57.9373664,16.5581201 C56.2468862,19.2411488 56.2468862,22.6140992 53.0196059,22.6907572 C49.1776054,22.7674151 47.8713253,18.6278851 46.1040051,15.1782768 C44.4135249,11.7286684 43.6451248,9.73556136 41.8778046,6.36261097 C41.3399246,5.4427154 40.8020445,2.60637076 39.7262844,2.22308094 C38.1126442,1.45650131 36.037964,1.30318538 34.9622039,2.68302872 C33.8864437,4.06287206 31.5812435,8.58569191 31.1970434,10.3488251 C30.1981233,16.4048042 28.8150032,22.4607833 29.2760432,28.5167624 C29.8907633,36.7191645 32.5801636,44.5382768 37.8052842,51.9740992 C38.8042043,53.4306005 37.2674041,56.4969191 36.8063641,58.2600522 C36.7295241,58.72 33.8096037,60.9430809 32.8106836,65.3125849 C31.8886035,69.145483 33.3485637,77.8078329 33.2717237,81.794047 C33.1948837,85.7802611 32.1191235,87.2367624 29.0455232,89.7664752 C28.9686832,89.3065274 26.6634829,83.863812 25.3572028,81.5640731 Z" id="Shape" fill="#EEEAD0"></path>
                        <path d="M25.6645628,81.4107572 C21.3615224,73.9749347 14.2154016,64.6226632 5.37880059,72.5184334 C1.38312015,76.0446997 -0.461040051,81.0274674 0.384200042,86.2402089 C1.22944014,91.6829243 3.07360034,98.658799 6.22404069,103.181619 C9.29764103,107.704439 14.0617216,111.690653 18.8258021,114.373681 C20.5162823,115.370235 22.3604425,116.060157 24.3582827,116.136815 C27.8929231,116.290131 31.8117635,113.30047 33.8096037,118.053264 C35.7306039,122.959373 36.8063641,128.478747 38.5736843,133.461514 C39.6494444,136.527833 40.4946845,140.590705 42.4156847,143.197076 C44.874565,146.570026 50.0996855,147.796554 53.7880059,148.946423 C57.9373664,150.249608 62.3172469,151.016188 66.5434474,152.166057 C78.6841687,155.615666 88.6733698,164.737963 101.813011,164.431332 C107.191812,164.354674 111.955892,162.514883 116.873653,160.598433 C120.792493,159.065274 123.789254,156.612219 125.710254,152.779321 C127.554414,149.023081 127.400734,146.186736 124.711334,142.967102 C119.947253,137.37107 118.487293,131.161775 118.640973,123.879269 C118.717813,120.506319 119.102013,117.05671 120.408293,113.990392 C121.791413,110.770757 123.866094,108.087728 125.479734,105.02141 C127.861774,100.728564 130.628014,96.3590601 132.549015,91.7595822 C134.470015,86.7768146 133.701615,84.3237598 131.242734,79.8009399 C127.938614,73.5149869 131.934295,68.7621932 136.160495,64.3160313 C138.081495,62.1696084 141.078256,59.7932115 141.308776,56.650235 C141.539296,52.510705 138.235175,51.0542037 135.776295,48.5244909 C132.318495,44.9982245 133.086895,40.4754047 133.240575,35.9525849 C133.394255,32.2730026 133.701615,28.7467363 133.855295,25.067154 C134.085815,20.0843864 134.162655,14.9483029 133.778455,9.96553525 C133.547935,7.1291906 132.856375,4.90610966 129.321734,4.59947781 C127.938614,4.52281984 126.786014,5.13608355 125.787094,6.13263708 C123.635574,8.20240209 121.868253,11.0387467 120.254613,13.4918016 C117.718893,17.4780157 116.489453,22.4607833 113.185333,25.9870496 C109.958052,29.436658 106.653932,29.8199478 102.735091,26.8302872 C100.122531,24.9138381 98.8930909,21.6942037 96.5878907,19.3178068 C92.8995703,15.4082507 87.4439297,10.578799 82.2956491,8.8156658 C78.1462886,7.28250653 72.844328,6.13263708 68.4644476,6.51592689 C64.2382471,6.82255875 61.4720068,9.58224543 59.3204866,13.0318538 C57.8605264,15.1782768 57.0921263,17.6313316 55.7858462,19.7010966 C51.9438457,25.4504439 47.8713253,18.1679373 46.1808451,14.641671 C44.7208849,11.6520104 43.1840848,8.8156658 41.9546446,5.82600522 C41.3399246,4.44616188 41.0325645,2.45305483 39.7262844,1.53315927 C31.9654435,-3.9862141 29.5834033,15.8681984 29.2760432,18.934517 C28.4308031,25.4504439 28.7381632,31.8130548 30.7360034,38.1756658 C31.5812435,40.8586945 32.6570036,43.5417232 33.9632838,46.071436 C36.037964,49.9809922 38.7273643,53.8138903 36.037964,58.1067363 C33.8096037,61.6330026 32.0422835,64.0093995 31.9654435,68.4555614 C31.9654435,73.438329 34.2706438,80.4908616 31.8886035,85.1669974 C31.6580835,85.6269452 29.3528832,88.9998956 28.9686832,88.9998956 C28.8150032,88.9232376 28.5076431,87.8500261 28.3539631,87.6200522 C27.431883,85.7802611 26.740323,83.4038642 25.6645628,81.4107572 C25.5108828,81.1041253 24.8961628,81.4107572 25.1266828,81.717389 C26.5098029,84.1704439 27.585563,86.7768146 28.6613232,89.3831854 C28.7381632,89.6131593 28.9686832,89.6898172 29.1992032,89.5365013 C32.1959636,87.0067885 33.6559237,84.6303916 33.5022437,80.5675196 C33.4254037,75.8913838 32.3496436,71.215248 32.8106836,66.5391123 C33.2717237,62.3995822 36.268484,60.0998433 37.5747642,56.4202611 C38.1894842,54.7337859 38.6505243,53.2772846 38.1126442,51.5141514 C37.2674041,49.1377546 35.1158839,46.8380157 34.0401238,44.4616188 C31.0433634,38.1756658 29.3528832,31.1997911 29.5834033,24.3005744 C29.8139233,18.2445953 30.5054834,11.1920627 33.3485637,5.6726893 C33.6559237,4.90610966 34.1169638,3.83289817 34.7316838,3.29629243 C36.8063641,1.22652742 39.4189244,1.60981723 40.6483645,3.9862141 C41.8009646,6.13263708 42.7230447,8.50903394 43.7219648,10.6554569 C45.335605,14.0284073 46.7955652,19.4711227 49.9460055,21.7708616 C52.0206857,23.3040209 54.633246,23.074047 56.0932062,20.927624 C59.2436465,16.3281462 60.5499267,9.4289295 66.6202874,7.58913838 C71.3843679,6.20929504 77.0705285,8.04908616 81.680929,9.27561358 C87.2902496,10.8854308 93.6679703,16.4814621 97.3562908,20.927624 C100.353051,24.4538903 101.889851,28.4401044 106.884452,29.8199478 C109.727532,30.5865274 112.032732,28.5167624 113.876893,26.6003133 C116.719973,23.6106527 117.949413,19.3944648 120.024093,15.7915405 C121.023013,14.0284073 122.252454,12.495248 123.405054,10.8854308 C124.250294,9.81221932 125.249214,7.43582245 126.478654,6.74590078 C128.015454,5.82600522 131.012214,5.82600522 132.164815,6.97587467 C133.471095,8.27906005 132.856375,7.74245431 133.163735,8.8156658 C134.085815,12.1886162 133.624775,16.5581201 133.471095,20.0077285 C133.394255,23.6873107 133.163735,27.290235 132.933215,30.9698172 C132.625855,36.5658486 130.858534,44.2316449 135.084735,48.6778068 C136.391015,50.0576501 138.158335,50.9775457 139.234095,52.434047 C141.385616,55.2703916 140.770896,58.0300783 138.696215,60.5597911 C136.314175,63.5494517 133.240575,65.9258486 131.165894,69.145483 C129.398574,71.7518538 128.322814,74.8948303 129.552254,77.9611488 C130.090134,79.4943081 131.089054,80.7974935 131.857455,82.1773368 C133.701615,85.933577 132.933215,88.9998956 131.319575,92.6028198 C129.475414,96.8956658 126.786014,101.111854 124.403974,105.251384 C121.945093,109.54423 118.948333,113.453786 118.179933,118.589869 C117.488373,123.266005 117.488373,128.095457 118.410453,132.694935 C119.409373,137.677702 121.714573,140.207415 124.557654,144.193629 C128.860694,150.249608 122.482974,157.532115 116.873653,159.831854 C111.955892,161.748303 106.961292,163.664752 101.582491,163.818068 C88.9807298,164.048042 79.7599288,155.692324 68.2339275,152.089399 C64.0845671,150.786214 59.7046866,149.942977 55.5553261,148.869765 C51.0986056,147.719896 45.105085,146.340052 42.5693647,142.353838 C40.7252045,139.364178 39.7262844,135.454621 38.5736843,132.158329 C36.9600441,127.558851 35.3464039,123.036031 34.2706438,118.283238 C33.4254037,114.603655 32.7338436,113.377128 29.1223632,114.603655 C21.8994024,117.133368 15.4448417,112.150601 10.5270812,107.244491 C5.60932062,102.415039 3.68832041,96.6656919 1.8441602,90.149765 C-0.384200042,82.6372846 1.22944014,72.5950914 10.2965611,70.1420366 C17.5195219,68.2255875 22.0530824,76.3513316 24.9730028,81.4874151 C25.2803628,82.1006789 25.8182429,81.717389 25.6645628,81.4107572 Z" id="Shape" fill="#505D5B"></path>
                    </g>
                    <path d="M117.257853,181.832689 C117.027333,184.899008 114.261093,187.965326 113.185333,190.648355 C113.108492,190.878329 112.186412,192.028198 112.647452,192.33483 C112.724292,192.411488 113.262173,190.188407 113.339013,189.958433 C113.415853,189.268512 113.415853,188.425274 113.262173,187.735352 C112.263252,185.052324 109.343332,186.125535 107.345492,187.045431 C106.500252,187.505379 105.655012,187.888668 104.886612,188.348616 C104.118212,188.808564 104.656092,189.881775 104.656092,188.57859 C104.579252,187.122089 104.963452,185.512272 105.193972,183.979112 C105.193972,183.902454 105.193972,182.982559 105.040292,183.135875 C102.197211,184.975666 99.354131,186.432167 96.0500106,187.198747 C96.0500106,187.735352 96.1268506,188.118642 96.1268506,188.655248 C99.123611,183.365849 97.9710108,179.762924 95.8194906,174.473525 C93.2837703,168.340888 90.44069,162.438225 87.7512897,156.305587 C85.5229294,151.399478 83.9861293,146.263394 81.219889,141.663916 C75.1495283,131.621723 69.2328476,122.652742 67.0813274,110.924073 C67.0813274,110.770757 66.8508074,109.774204 66.6202874,110.387467 C66.1592473,111.460679 65.6213672,115.293577 64.7761272,115.906841 C64.8529672,115.830183 65.3908472,116.520104 65.0066472,115.830183 C64.9298072,115.600209 64.8529672,114.986945 64.7761272,114.756971 C64.6224471,113.607102 64.2382471,112.380574 64.0845671,111.230705 C62.931967,105.4047 61.4720068,99.4253786 60.7804467,93.5227154 C59.7046866,84.0937859 64.6992871,76.5046475 67.4655275,67.8422977 C67.5423675,67.6123238 67.6192075,64.7759791 67.2350074,64.929295 C63.316167,66.3857963 65.9287273,65.3892428 67.7728875,65.4659008 C68.3107675,65.4659008 68.0802475,62.7828721 67.7728875,62.3995822 C66.0824073,61.0197389 63.9308871,59.3332637 62.8551269,57.4934726 C62.931967,58.2600522 63.008807,59.0266319 63.085647,59.7932115 C62.931967,61.0963969 67.3886874,62.0162924 68.5412876,61.0963969 C69.1560076,60.5597911 69.0791676,59.6398956 69.1560076,58.9499739 C69.1560076,57.9534204 69.0023276,57.1868407 68.5412876,56.3436031 C68.0802475,55.5770235 66.6202874,53.5072585 67.1581674,56.1902872 C67.2350074,56.650235 67.3118474,56.8802089 67.6192075,57.2634987 C68.1570875,58.0300783 70.1549278,59.8698695 71.1538479,59.1799478 C71.7685679,58.72 71.6917279,57.0335248 71.6917279,56.3436031 C71.7685679,52.1274151 70.7696478,47.6812533 70.3086078,43.5417232 C70.2317678,44.2316449 70.0780877,44.8449086 70.0012477,45.4581723 C70.7696478,46.224752 71.3843679,46.5313838 72.460128,46.8380157 C72.690648,46.9146736 72.690648,45.7648042 72.767488,45.6881462 C72.9980081,40.0921149 80.4514889,35.9525849 84.5240093,32.9629243 C88.7502098,29.8199478 93.1300903,26.7536292 97.2794507,23.5339948 C103.580331,18.7045431 109.420172,13.4918016 116.719973,10.1955091 C124.941854,6.43926893 134.008975,4.8294517 142.922416,3.37295039 C142.845576,2.37639687 142.845576,1.30318538 142.768736,0.306631854 C141.078256,2.14642298 139.387775,3.9862141 137.620455,5.82600522 C137.389935,6.13263708 137.159415,8.96898172 137.774135,8.96898172 C147.148616,8.8156658 155.524177,13.6451175 164.898658,13.4151436 C164.821818,12.9551958 164.668138,12.648564 164.591298,12.2652742 C164.744978,14.4116971 165.129178,15.2549347 167.511219,15.6382245 C171.814259,16.4814621 175.195219,17.4780157 178.57618,20.5443342 C179.03722,20.8509661 178.88354,18.3979112 178.88354,18.1679373 C178.8067,17.3246997 178.65302,16.4814621 178.57618,15.6382245 C178.49934,16.4048042 178.4225,17.2480418 178.34566,18.0146214 C185.49178,19.9310705 193.175781,17.9379634 200.091382,20.6209922 C200.014542,19.6244386 200.014542,18.5512272 199.937702,17.4780157 C199.476662,18.5512272 198.631422,19.3178068 197.478822,19.7777546 C196.940942,20.0077285 196.940942,22.7674151 197.555662,22.9207311 C200.859782,24.0706005 204.087063,25.3737859 207.237503,26.9836031 C208.927983,27.8268407 210.772143,28.7467363 212.385783,29.8966057 C213.307864,30.5098695 216.458304,32.2730026 213.000504,32.3496606 C212.462623,32.3496606 212.539463,35.1860052 213.000504,35.4159791 C216.765664,37.715718 223.527585,42.6218277 224.142305,47.3746214 C224.219145,46.6080418 224.219145,45.8414621 224.295985,45.0748825 C223.373905,46.7613577 221.452904,45.5348303 220.915024,47.5279373 C220.761344,48.217859 220.838184,49.7510183 221.222384,50.364282 C221.990785,51.4374935 222.528665,51.2841775 223.143385,52.6640209 C223.988625,54.427154 224.219145,56.8035509 224.833865,58.796658 C225.909625,62.85953 227.139065,66.8457441 228.291665,70.9086162 C228.368505,70.0653786 228.368505,69.145483 228.445345,68.3022454 C227.369585,67.8422977 226.293825,67.4590078 225.218065,66.9990601 C224.910705,66.8457441 224.987545,69.6054308 225.141225,69.9120627 C227.676945,74.6648564 224.295985,79.4943081 223.527585,84.3237598 C223.450745,84.7837076 223.758105,87.3134204 223.988625,86.1635509 C225.294905,79.1876762 229.060065,74.1282507 225.371745,67.152376 C225.371745,68.0722715 225.294905,69.0688251 225.294905,70.0653786 C226.370665,70.5253264 227.446425,70.9086162 228.522185,71.368564 C228.829545,71.5218799 228.752705,68.9921671 228.675865,68.7621932 C227.215905,63.9327415 225.832785,59.1799478 224.526505,54.3504961 C224.065465,52.8173368 223.834945,50.1343081 222.989705,48.7544648 C222.759185,48.294517 221.376064,47.8345692 221.299224,47.6045953 C221.222384,48.3711749 221.222384,49.1377546 221.145544,49.9043342 C222.298145,48.4478329 223.758105,49.7510183 224.526505,47.7579112 C224.833865,46.9146736 224.526505,45.3815144 224.372825,44.5382768 C222.912865,39.5555091 217.149864,35.0326893 213.000504,32.4263185 C213.000504,33.4228721 213.000504,34.4960836 213.000504,35.4926371 C216.074104,35.4159791 216.074104,30.9698172 214.767824,28.9767102 C213.461544,26.9069452 210.464783,25.6804178 208.390103,24.5305483 C204.855463,22.6907572 201.167142,21.0809399 197.325142,19.7777546 C197.325142,20.7743081 197.401982,21.9241775 197.401982,22.9207311 C198.785102,22.3074674 199.246142,21.8475196 200.014542,20.5443342 C200.245062,20.0077285 200.552422,17.7079896 199.860862,17.4013577 C192.868421,14.718329 185.26126,16.6347781 178.11514,14.718329 C177.6541,14.641671 177.88462,16.9414099 177.88462,17.0947258 C177.96146,17.9379634 178.11514,18.781201 178.19198,19.6244386 C178.26882,18.857859 178.4225,18.0912794 178.49934,17.2480418 C176.80886,15.7148825 175.041539,14.4116971 172.890019,13.5684595 C171.967939,13.1085117 165.129178,12.1886162 165.052338,11.1154047 C165.052338,10.9620888 164.975498,9.96553525 164.744978,9.96553525 C155.370497,10.1955091 146.994936,5.36605744 137.620455,5.51937337 C137.697295,6.51592689 137.697295,7.58913838 137.774135,8.66234987 C139.464615,6.82255875 141.155096,4.98276762 142.922416,3.1429765 C143.152936,2.83634465 143.229776,8.85402862e-15 142.768736,0.0766579634 C133.163735,1.60981723 123.405054,3.37295039 114.645293,7.81911227 C107.576012,11.3453786 101.889851,16.6347781 95.5889706,21.3875718 C90.82489,24.9138381 85.9839695,28.4401044 81.219889,32.0430287 C76.7631685,35.3393211 72.306448,38.8655875 72.075928,44.7682507 C72.152768,44.3083029 72.229608,44.001671 72.383288,43.6183812 C71.5380479,43.4650653 70.7696478,43.0051175 70.1549278,42.3151958 C69.8475677,42.008564 69.6938877,44.078329 69.8475677,44.2316449 C70.1549278,47.2979634 70.6928078,50.4409399 70.8464878,53.5072585 C70.9233278,54.1971802 71.5380479,55.7303394 70.8464878,56.1136292 C70.0012477,56.573577 67.7728875,54.0438642 67.6960475,53.4306005 C67.6960475,53.2772846 67.5423675,52.510705 67.2350074,52.7406789 C66.3129273,53.5072585 66.1592473,54.58047 66.3129273,55.8069974 C66.5434474,57.1868407 68.5412876,58.2600522 68.5412876,59.2566057 C68.6181276,58.643342 68.6181276,57.9534204 68.6949676,57.4168146 C67.6192075,59.6398956 64.4687671,57.4168146 62.8551269,57.2634987 C62.6246069,57.2634987 62.6246069,57.9534204 62.6246069,58.0300783 C62.3172469,61.3263708 65.4676872,63.4727937 67.7728875,65.3125849 C67.7728875,64.3160313 67.7728875,63.2428198 67.7728875,62.2462663 C63.777207,62.0929504 63.777207,65.6958747 64.2382471,68.7621932 C64.2382471,68.9155091 64.3919271,69.6820888 64.6992871,69.4521149 C65.4676872,68.6855352 66.3897673,68.1489295 67.5423675,67.9189556 C67.4655275,66.9990601 67.3886874,66.0025065 67.3118474,65.005953 C64.8529672,72.3651175 60.2425667,79.647624 60.0120466,87.5433943 C59.7046866,97.8155614 62.931967,108.317702 64.8529672,118.359896 C64.9298072,118.589869 65.0834872,119.049817 65.3140072,118.589869 C65.7750473,117.210026 66.1592473,115.983499 66.6971274,114.603655 C66.6971274,114.603655 67.1581674,112.993838 67.2350074,112.993838 C66.6971274,112.993838 67.7728875,116.750078 67.7728875,116.826736 C68.9254876,121.656188 70.7696478,126.255666 73.0748481,130.548512 C77.1473685,138.214308 82.4493291,144.730235 85.5229294,152.855979 C87.2902496,157.608773 89.7491299,162.208251 91.9006502,166.884386 C94.5900504,172.78705 99.968851,180.68282 96.4342107,187.045431 C96.3573706,187.198747 96.2805306,188.501932 96.5110507,188.501932 C97.0489307,188.348616 106.653932,184.43906 105.347652,183.442507 C105.808692,183.749138 104.809772,188.118642 104.732932,188.808564 C104.732932,188.885222 104.732932,189.651802 104.809772,189.651802 C107.422332,188.041984 115.874733,183.442507 112.954812,191.721567 C112.877972,191.874883 112.877972,192.33483 112.954812,192.488146 C112.954812,192.488146 112.954812,192.488146 113.031652,192.488146 C114.798973,189.958433 117.642053,185.20564 117.872573,182.062663 C117.411533,181.986005 117.257853,181.526057 117.257853,181.832689 Z" id="Shape" fill="#505D5B"></path>
                    <path d="M223.297065,132.618277 C216.919344,129.245326 208.851143,129.4753 201.858702,130.24188 C197.171462,130.701828 191.177941,131.161775 189.180101,136.297859 C188.258021,138.674256 188.949581,140.973995 190.179021,143.120418 C191.562141,145.496815 193.175781,147.336606 193.867341,150.17295 C194.482061,152.396031 194.789422,154.619112 195.250462,156.765535 C196.018862,160.981723 196.710422,165.351227 198.247222,169.337441 C198.708262,170.410653 199.015622,171.713838 199.937702,172.557076 C201.243982,173.630287 203.626022,173.476971 204.394423,175.163446 C204.932303,176.16 205.700703,175.010131 205.316503,174.320209 C204.471263,172.710392 203.164982,172.710392 201.781862,171.790496 C198.016702,169.490757 197.555662,162.97483 196.787262,158.988616 C196.172542,155.768982 195.788342,152.472689 194.866262,149.253055 C194.097861,146.41671 192.023181,144.653577 191.024261,142.123864 C190.255861,140.054099 190.255861,136.297859 192.023181,134.7647 C192.791581,134.151436 193.713661,133.691488 194.558901,133.23154 C196.095702,132.541619 197.709342,132.388303 199.399822,132.234987 C200.782942,132.081671 202.242902,131.928355 203.549182,131.775039 C210.234263,131.161775 216.842504,131.545065 223.297065,133.691488 C223.681265,133.768146 223.681265,132.848251 223.297065,132.618277 Z" id="Shape" fill="#505D5B"></path>
                    <path d="M183.10974,168.64752 C182.18766,166.884386 180.03614,162.361567 177.6541,164.431332 C175.886779,165.964491 174.119459,170.947258 173.812099,173.170339 C173.351059,176.236658 176.117299,176.696606 178.72986,176.389974 C180.49718,176.16 182.03398,175.546736 183.87814,175.700052 C185.41494,175.77671 186.874901,176.236658 188.334861,176.773264 C190.716901,177.693159 193.022101,179.91624 195.404142,180.606162 C196.864102,181.06611 200.014542,181.142768 201.474502,180.452846 C203.088142,179.686266 204.317583,177.079896 204.855463,175.470078 C205.009143,175.163446 204.701783,173.860261 204.701783,173.936919 C203.856543,175.39342 203.011302,177.923133 201.397662,178.689713 C200.398742,179.226319 197.325142,179.302977 196.249382,178.996345 C193.636821,178.459739 190.947421,176.006684 188.334861,175.010131 C186.644381,174.320209 184.80022,173.936919 182.95606,173.936919 C180.80454,173.936919 178.0383,175.546736 175.886779,174.626841 C173.197379,173.553629 175.733099,169.874047 176.73202,168.110914 C177.57726,166.501097 178.11514,165.121253 180.11298,166.271123 C181.03506,166.807728 182.2645,168.724178 183.0329,169.567415 C183.10974,169.414099 183.18658,168.724178 183.10974,168.64752 Z" id="Shape" fill="#505D5B"></path>
                    <path d="M184.64654,137.294413 C182.49502,135.991227 179.5751,142.200522 179.11406,143.503708 C177.57726,147.796554 178.0383,152.396031 179.72878,156.612219 C179.80562,156.842193 179.9593,155.692324 179.88246,155.309034 C177.96146,150.249608 178.26882,144.806893 181.57294,140.514047 C182.11082,139.824125 183.72446,137.677702 184.64654,138.214308 C184.72338,138.444282 184.80022,137.524386 184.64654,137.294413 Z" id="Shape" fill="#505D5B"></path>
                    <path d="M143.921336,141.127311 C144.075016,141.127311 144.075016,139.747467 143.921336,139.747467 C143.690816,139.747467 143.690816,141.127311 143.921336,141.127311 Z" id="Shape" fill="#505D5B"></path>
                    <path d="M168.817499,138.980888 C168.817499,139.900783 168.356459,141.357285 167.818579,142.047206 C167.357538,142.583812 166.204938,142.583812 165.513378,142.66047 C164.360778,142.737128 163.131338,142.890444 162.055578,142.507154 C160.749298,141.970548 159.827218,140.744021 159.596698,139.364178 C159.519858,138.827572 159.519858,138.367624 159.673538,137.907676 C159.673538,137.907676 159.904058,136.374517 160.749298,136.221201 C161.594538,136.067885 168.279619,136.527833 168.279619,136.527833 L169.048019,136.681149 C169.124859,136.604491 168.817499,137.984334 168.817499,138.980888 Z" id="Shape" fill="#505D5B"></path>
                    <path d="M223.527585,78.0378068 C222.528665,83.1738903 222.682345,88.9998956 222.451825,94.289295 C222.221305,99.0420888 220.991864,104.868094 221.837105,109.620888 C222.836025,114.910287 230.289505,118.283238 229.367425,123.495979 C228.368505,129.628616 221.068704,133.154883 219.224544,139.364178 C218.609824,141.510601 218.609824,143.197076 219.531904,145.190183 C221.145544,148.869765 223.066545,151.782768 221.837105,155.998956 C221.068704,158.45201 219.762424,160.751749 218.609824,162.97483 C214.767824,169.797389 208.236423,177.233211 207.544863,185.20564 C206.930143,192.104856 207.237503,200.077285 210.772143,206.056606 C212.078423,208.203029 213.999424,210.04282 214.998344,212.265901 C217.457224,217.5553 212.001583,222.07812 208.159583,223.994569 C202.703942,226.677598 197.939862,229.360627 191.715821,229.743916 C187.105421,230.050548 183.87814,228.747363 179.72878,227.214204 C175.502579,225.681044 171.199539,224.377859 166.973338,222.768042 C160.595618,220.314987 154.217897,217.861932 147.763336,215.485535 C144.689736,214.412324 141.616136,213.339112 138.465695,212.495875 C134.700535,211.575979 132.395335,210.04282 131.012214,206.28658 C124.557654,189.805117 118.717813,173.017023 118.179933,155.232376 C118.179933,154.465796 117.872573,154.465796 117.949413,155.232376 C118.256773,168.110914 121.176693,180.29953 125.326054,192.488146 C126.478654,195.937755 127.784934,199.387363 129.091214,202.760313 C130.090134,205.443342 130.781694,208.969608 132.779535,211.269347 C134.162655,212.802507 136.160495,213.492428 138.081495,213.952376 C141.001416,214.718956 143.613976,215.485535 146.380216,216.482089 C156.907297,220.391645 167.357538,224.454517 178.0383,228.210757 C182.57186,229.743916 186.260181,231.660366 191.177941,231.430392 C197.632502,230.970444 202.550262,228.364073 208.159583,225.604386 C212.232103,223.534621 215.536224,220.238329 215.997264,215.408877 C216.304624,211.729295 213.922584,209.582872 212.001583,206.593211 C208.620623,201.457128 207.852223,196.397702 207.775383,190.341723 C207.698543,183.902454 209.926903,179.379634 213.154184,173.936919 C216.842504,167.727624 223.220225,159.831854 222.759185,152.242715 C222.682345,150.93953 222.298145,149.866319 221.913945,148.716449 C221.606584,147.873211 221.068704,147.029974 220.607664,146.186736 C218.917184,143.120418 218.917184,140.054099 220.838184,136.834465 C222.374985,134.228094 224.757025,132.158329 226.524345,129.705274 C227.676945,128.095457 230.058985,126.025692 230.366345,124.032585 C230.827385,120.582977 227.139065,117.210026 225.064385,114.986945 C221.376064,110.770757 221.760264,107.167833 221.990785,102.108407 C222.298145,94.442611 221.990785,86.1635509 223.450745,78.7277285 C223.681265,78.3444386 223.604425,77.8078329 223.527585,78.0378068 Z" id="Shape" fill="#505D5B"></path>
                    <path d="M153.218977,151.169504 L153.218977,151.092846 C153.218977,150.93953 153.218977,151.169504 153.218977,151.169504 Z" id="Shape" fill="#505D5B"></path>
                    <path d="M161.978738,153.775875 C165.359698,150.632898 168.817499,147.56658 172.121619,144.423603 C172.352139,144.193629 171.814259,144.116971 171.583739,144.270287 C168.202779,147.413264 164.744978,150.479582 161.440858,153.622559 C161.133498,153.852533 161.671378,153.929191 161.978738,153.775875 Z" id="Shape" fill="#505D5B"></path>
                    <polygon id="Shape" fill="#505D5B" points="202.550262 151.169504 202.550262 150.93953"></polygon>
                    <path d="M195.480982,141.89389 C198.631422,144.193629 201.858702,146.186736 204.624943,149.023081 C204.855463,149.253055 205.393343,148.869765 205.085983,148.563133 C202.242902,145.726789 198.938782,143.733681 195.788342,141.357285 C195.480982,141.127311 195.096782,141.663916 195.480982,141.89389 Z" id="Shape" fill="#505D5B"></path>
                    <path d="M217.841424,131.545065 C216.688824,133.001567 215.766744,134.7647 214.614144,136.221201 C212.846824,138.52094 210.618463,138.90423 207.929063,139.134204 C205.777543,139.28752 203.472342,139.670809 201.705022,138.290966 C199.630342,136.681149 197.632502,134.228094 196.940942,131.775039 C196.787262,131.00846 196.633582,132.694935 196.710422,133.078225 C197.401982,135.607937 198.554582,136.911123 200.475582,138.674256 C202.550262,140.744021 203.318662,141.127311 206.238583,141.050653 C208.697463,140.973995 211.771063,140.897337 213.692064,139.210862 C215.382544,137.677702 217.073024,134.534726 217.918264,132.388303 C217.918264,132.234987 217.841424,131.545065 217.841424,131.545065 Z" id="Shape" fill="#505D5B"></path>
                    <path d="M120.561973,180.606162 C115.951573,180.606162 112.493772,181.142768 108.113892,178.919687 C103.964531,176.696606 97.5868108,172.480418 95.5889706,168.110914 C93.2069303,162.97483 89.8259699,156.918851 89.2112499,151.32282 C88.5965298,145.956762 91.3627701,141.663916 95.7426506,139.057546 C99.584651,136.757807 102.120371,135.684595 105.885532,138.597598 C111.494852,143.120418 115.721053,149.253055 117.949413,156.075614 C118.103093,156.535561 118.179933,154.772428 118.179933,154.542454 C117.488373,151.32282 115.874733,148.256501 114.107413,145.496815 C111.802212,141.970548 107.729692,136.221201 103.657171,134.611384 C100.353051,133.23154 95.5889706,136.221201 93.0532503,138.444282 C90.21017,140.973995 88.5965298,144.806893 88.4428498,148.563133 C88.1354897,155.692324 92.1311702,162.131593 94.7437305,168.494204 C96.8952507,173.630287 101.121451,176.92658 105.808692,179.91624 C110.265412,182.752585 115.951573,184.745692 120.485133,181.372742 C120.638813,181.219426 120.638813,180.606162 120.561973,180.606162 Z" id="Shape" fill="#505D5B"></path>
                    <path d="M131.934295,139.594151 C142.077176,145.113525 154.832617,135.14799 162.132418,136.374517 C168.510139,137.37107 174.964699,135.607937 181.34242,134.611384 C181.64978,134.534726 182.03398,134.534726 182.18766,134.304752 C182.34134,134.074778 182.34134,133.691488 182.34134,133.384856 C182.34134,131.00846 182.57186,131.00846 182.57186,128.632063 L182.2645,128.708721 C171.430059,128.172115 167.280698,129.4753 156.523097,128.938695 C155.677857,128.938695 154.832617,128.862037 153.987377,129.168668 C153.372657,129.398642 152.911617,129.935248 152.373737,130.318538 C148.454896,133.844804 140.847736,138.52094 137.850975,139.977441 C136.083655,140.973995 131.934295,139.594151 131.934295,139.594151 Z" id="Shape" fill="#505D5B"></path>
                    <path d="M116.412613,163.35812 C111.648532,160.905065 113.800053,156.075614 113.031652,151.936084 C112.186412,147.643238 108.498092,143.733681 104.809772,141.433943 C100.276211,138.750914 90.90173,141.970548 92.5153702,148.256501 C92.6690502,148.869765 92.7458902,147.56658 92.7458902,147.413264 C92.4385302,144.423603 99.0467709,141.817232 101.351971,141.970548 C105.270812,142.27718 110.111732,146.723342 111.802212,150.096292 C114.107413,154.619112 110.726452,161.288355 116.643133,163.588094 C116.412613,163.588094 116.489453,163.35812 116.412613,163.35812 Z" id="Shape" fill="#505D5B"></path>
                    <path d="M101.659331,148.716449 C94.1290104,153.392585 99.584651,169.260783 107.960212,169.644073 C108.805452,169.720731 108.805452,168.494204 107.960212,168.340888 C100.967771,167.88094 95.8963306,153.775875 102.274051,149.789661 C102.965611,149.329713 102.350891,148.256501 101.659331,148.716449 Z" id="Shape" fill="#505D5B"></path>
                    <path d="M106.577092,143.963655 C104.195052,146.03342 102.658251,148.793107 104.348732,151.782768 C106.116052,154.849086 109.343332,154.619112 112.416932,153.929191 C113.185333,153.775875 113.031652,153.009295 112.263252,153.162611 C109.650692,153.775875 106.961292,153.852533 105.578172,151.246162 C104.118212,148.716449 105.424492,146.263394 107.422332,144.423603 C108.037052,143.886997 107.038132,143.580366 106.577092,143.963655 Z" id="Shape" fill="#505D5B"></path>
                    <path d="M93.4374503,157.915405 C94.8205705,159.60188 95.7426506,161.441671 96.3573706,163.588094 C96.8184107,164.967937 96.9720907,166.424439 97.6636508,167.650966 C98.8162509,169.874047 100.890931,171.943812 103.042451,173.246997 C103.734011,173.706945 104.425572,172.557076 103.734011,172.173786 C100.890931,170.563969 98.8162509,167.727624 98.0478508,164.661305 C97.3562908,161.978277 96.4342107,159.678538 94.7437305,157.378799 C94.1290104,156.688877 92.8995703,157.302141 93.4374503,157.915405 Z" id="Shape" fill="#505D5B"></path>
                    <path d="M118.410453,156.075614 C119.716733,153.239269 122.406134,152.855979 122.713494,149.559687 C123.020854,145.880104 121.945093,142.200522 121.868253,138.597598 C121.791413,133.921462 122.406134,130.318538 124.557654,126.179008 C125.402894,124.645849 126.324974,123.266005 126.786014,121.502872 C127.093374,120.123029 127.093374,118.666527 126.786014,117.363342 C125.940774,113.913734 123.097694,110.694099 121.714573,107.321149 C119.332533,101.801775 118.256773,95.8991123 118.410453,89.8431332 C118.564133,85.0136815 119.255693,80.1075718 120.331453,75.3547781 C121.253533,71.215248 125.249214,63.8560836 129.475414,69.6054308 C131.857455,72.9017232 133.163735,76.8112794 134.777375,80.4908616 C135.929975,83.0972324 137.697295,87.3134204 140.309856,88.6932637 C143.460296,90.4563969 144.920256,87.0067885 145.919176,84.6303916 C148.070696,79.724282 150.068537,75.8913838 155.524177,74.2815666 C163.822898,71.7518538 174.042619,76.1213577 180.65086,81.1041253 C184.1855,83.7104961 186.721221,86.9301305 189.333781,90.5330548 C191.562141,93.5227154 194.789422,96.9723238 198.938782,96.0524282 C202.242902,95.2858486 203.933383,91.8362402 205.162823,88.9998956 C206.930143,85.0136815 209.158503,81.3340992 211.386863,77.654517 C212.846824,75.2014621 215.613064,72.5950914 218.379304,71.5985379 C222.374985,70.2186945 222.912865,74.6648564 222.989705,77.8844909 C222.989705,79.4176501 223.604425,79.4176501 223.604425,77.8844909 C223.527585,74.8948303 223.681265,67.9956136 219.070864,68.6088773 C213.231024,69.4521149 210.387943,76.6579634 207.544863,80.8741514 C205.162823,84.2471018 204.855463,88.8465796 201.858702,91.8362402 C196.864102,96.7423499 191.562141,91.2996345 188.565381,87.0834465 C182.95606,79.1876762 174.273139,73.5916449 164.668138,71.7518538 C160.441938,70.9086162 155.831537,71.215248 151.989537,73.5149869 C148.608576,75.584752 147.225456,78.5744125 145.765496,82.1006789 C144.997096,83.863812 143.921336,87.5433943 141.155096,86.9301305 C139.003575,86.3935248 137.389935,83.1738903 136.391015,81.4107572 C134.008975,77.3478851 132.702695,72.7484073 130.243814,68.6855352 C128.783854,66.2324804 127.323894,64.0860574 124.327134,65.6958747 C120.485133,67.6123238 119.870413,72.9783812 119.255693,76.6579634 C117.872573,84.0171279 117.104173,91.6829243 118.333613,99.1187467 C119.025173,103.334935 120.408293,107.397807 122.252454,111.230705 C123.328214,113.377128 125.402894,115.676867 126.094454,117.82329 C127.016534,121.119582 124.327134,123.649295 123.020854,126.48564 C121.407213,129.935248 121.099853,133.768146 121.253533,137.524386 C121.407213,140.437389 122.252454,143.580366 122.098773,146.41671 C122.021933,148.563133 121.330373,150.862872 120.177773,152.319373 C119.332533,153.315927 118.717813,153.699217 118.256773,154.849086 C118.179933,155.309034 118.333613,156.305587 118.410453,156.075614 Z" id="Shape" fill="#505D5B"></path>
                    <path d="M157.445177,181.832689 C161.978738,183.979112 166.281778,182.905901 171.045859,182.982559 C175.272059,183.059217 178.26882,186.738799 182.72554,186.278851 C191.254781,185.58893 197.094622,192.488146 205.700703,191.721567 C205.931223,191.721567 205.854383,190.418381 205.700703,190.571697 C197.094622,191.338277 191.254781,184.362402 182.72554,185.128982 C178.4225,185.58893 175.579419,182.139321 171.583739,181.909347 C166.665978,181.602715 162.439778,182.599269 157.522017,181.296084 C157.445177,181.449399 157.368337,181.832689 157.445177,181.832689 Z" id="Shape" fill="#505D5B"></path>
                    <path d="M118.871493,228.134099 C117.181013,229.207311 116.335773,230.817128 115.490533,232.656919 C114.414773,235.109974 113.876893,240.092742 111.802212,242.009191 C110.880132,242.852428 108.651772,243.005744 107.345492,243.465692 C105.731852,244.078956 104.195052,244.922193 102.811931,245.918747 C99.815171,248.141828 98.1246908,252.511332 94.5900504,253.354569 C86.7523696,255.271018 78.8378487,255.96094 71.1538479,258.413995 C63.162487,260.943708 25.4340428,275.048773 19.2100021,280.568146 C18.7489621,280.874778 18.6721221,282.484595 18.9026421,282.944543 C25.8182429,295.363133 39.3420843,314.374308 53.7111659,326.409608 C62.0098869,332.848877 81.450409,346.877285 97.2026107,352.473316 C125.249214,363.205431 152.604257,367.498277 177.19306,363.818695 C220.146624,357.22611 264.944349,331.928982 290.147872,289.767102 C292.299392,286.240836 294.835113,283.481149 291.454152,279.954883 C289.533152,277.80846 286.382712,277.42517 283.693311,276.735248 C279.236591,275.662037 259.335029,253.047937 254.417268,250.518225 C239.126106,242.77577 221.299224,240.476031 200.552422,240.859321 C199.937702,240.935979 199.784022,241.625901 199.784022,242.162507 C199.784022,243.082402 199.860862,244.078956 199.860862,245.075509 C200.321902,244.768877 200.629262,244.30893 201.013462,244.002298 C200.091382,243.312376 199.092462,242.699112 197.786182,242.699112 C195.404142,242.622454 194.021021,244.615561 191.485301,243.772324 C189.103261,242.929086 188.104341,240.322715 185.18442,241.242611 C184.72338,241.395927 184.64654,242.009191 184.64654,242.39248 C184.5697,245.612115 184.49286,248.908407 184.41602,252.128042 C184.41602,253.584543 185.952821,253.584543 185.952821,252.128042 C186.029661,249.904961 185.722301,247.375248 186.106501,245.228825 C186.567541,243.312376 186.721221,243.312376 188.565381,244.385587 C189.256941,244.692219 189.717981,245.305483 190.332701,245.765431 C193.867341,247.988512 196.633582,243.619008 200.014542,246.225379 C200.782942,246.838642 201.167142,245.688773 201.167142,245.152167 C201.167142,244.232272 201.090302,243.235718 201.090302,242.239164 C200.859782,242.699112 200.552422,243.082402 200.321902,243.54235 C215.459384,240.935979 230.366345,244.692219 244.965947,248.371802 C260.257109,251.131488 277.085071,277.885117 283.846991,279.571593 C286.305872,280.184856 289.686832,280.874778 290.378392,283.711123 C290.839432,285.550914 288.918432,287.697337 287.996352,289.383812 C277.469271,306.78517 266.788509,319.970339 237.973506,339.748094 C224.219145,349.177023 196.633582,358.222663 180.18982,361.135666 C168.740659,363.205431 150.760097,363.588721 139.157255,362.132219 C127.784934,360.59906 115.260013,356.766162 104.271892,353.163238 C93.0532503,349.406997 70.8464878,338.75154 56.4005662,325.949661 C45.489285,318.207206 26.6634829,292.526789 19.4405221,281.028094 C19.4405221,281.5647 19.1331621,282.867885 19.1331621,283.404491 C32.1191235,271.905796 79.1452087,258.567311 95.5121306,255.117702 C98.5857309,254.427781 98.8162509,251.361462 101.044611,249.215039 C102.581411,247.605222 104.502412,246.302037 106.577092,245.458799 C107.883372,244.922193 110.495932,244.845535 111.341172,244.078956 C112.647452,243.082402 113.185333,240.246057 113.646373,238.942872 C114.722133,235.799896 115.490533,231.50705 118.487293,229.590601 C119.563053,228.977337 119.409373,227.904125 118.871493,228.134099 Z" id="Shape" fill="#505D5B"></path>
                    <path d="M205.700703,190.954987 C195.404142,191.491593 184.87706,191.261619 174.657339,189.575144 C171.353219,188.96188 168.049099,188.1953 164.821818,187.198747 C163.438698,186.738799 162.132418,186.355509 160.826138,185.665587 C158.674618,184.592376 158.674618,182.675927 157.522017,180.912794 C157.522017,180.912794 157.368337,181.756031 157.522017,182.062663 C158.520938,183.749138 158.213577,185.20564 159.750378,186.508825 C160.749298,187.352063 162.286098,187.81201 163.515538,188.1953 C166.819658,189.34517 170.354299,190.265065 173.812099,190.801671 C184.41602,192.641462 195.173622,192.411488 205.777543,191.261619 C205.854383,191.261619 205.854383,190.954987 205.700703,190.954987 Z" id="Shape" fill="#505D5B"></path>
                    <path d="M184.49286,196.47436 C178.11514,196.47436 171.660579,195.937755 166.051258,192.564804 C165.974418,192.564804 165.897578,193.178068 166.051258,193.254726 C170.738499,196.627676 178.96038,198.00752 184.49286,196.704334 C184.5697,196.780992 184.5697,196.47436 184.49286,196.47436 Z" id="Shape" fill="#505D5B"></path>
                    <path d="M160.518778,136.604491 C157.368337,134.151436 149.914857,137.524386 146.687576,138.674256 C141.846656,140.207415 136.852055,141.203969 132.011135,138.980888 C132.011135,138.980888 131.780615,139.977441 132.011135,140.130757 C136.544695,142.353838 141.769816,141.203969 146.303376,139.670809 C151.144297,138.060992 155.447337,137.064439 160.595618,136.987781 C160.595618,136.987781 160.595618,136.604491 160.518778,136.604491 Z" id="Shape" fill="#505D5B"></path>
                    <path d="M170.892179,140.054099 C168.279619,140.820679 165.974418,142.967102 163.438698,144.040313 C160.902978,145.113525 158.059897,145.726789 155.293657,145.956762 C152.681097,146.110078 149.684337,146.186736 147.532816,144.423603 C145.842336,142.967102 144.843416,141.050653 142.538216,140.284073 C142.461376,140.284073 142.307696,141.357285 142.538216,141.433943 C145.073936,142.353838 146.072856,144.806893 148.224376,146.110078 C150.299057,147.413264 153.372657,147.106632 155.754697,146.876658 C160.595618,146.263394 167.741739,144.346945 170.892179,140.437389 C170.969019,140.437389 170.969019,140.054099 170.892179,140.054099 Z" id="Shape" fill="#505D5B"></path>
                    <path d="M199.937702,179.91624 C199.937702,179.073003 199.937702,178.229765 200.091382,177.463185 C200.168222,176.92658 200.552422,176.313316 200.321902,175.77671 C200.168222,175.316762 199.784022,175.086789 199.476662,174.856815 C198.785102,174.320209 198.324062,173.936919 198.016702,173.093681 C197.939862,172.863708 197.709342,172.940366 197.555662,173.170339 C197.325142,174.703499 198.477742,175.010131 199.399822,175.853368 C199.937702,176.389974 199.476662,176.773264 199.399822,177.463185 C199.322982,178.306423 199.322982,179.149661 199.399822,179.992898 C199.553502,180.376188 199.937702,180.29953 199.937702,179.91624 Z" id="Shape" fill="#505D5B"></path>
                    <path d="M210.541623,132.618277 C210.080583,134.074778 210.003743,135.914569 211.924743,137.447728 C212.078423,137.601044 212.385783,137.677702 212.616303,137.75436 C213.768904,138.290966 215.152024,137.677702 215.843584,136.374517 C216.919344,134.458068 218.225624,131.698381 217.764584,131.085117 C217.226704,130.471854 214.844664,130.395196 213.154184,130.395196 C212.001583,130.62517 211.002663,131.391749 210.541623,132.618277 Z" id="Shape" fill="#505D5B"></path>
                    <path d="M189.180101,137.75436 C189.180101,133.844804 197.017782,129.781932 201.167142,127.635509 C205.393343,125.489086 207.775383,124.95248 212.232103,123.036031 L216.996184,120.659634 C219.147704,120.199687 224.833865,119.586423 226.908545,119.126475 C227.446425,119.049817 227.907465,118.973159 228.368505,119.203133 C228.829545,119.433107 229.521105,120.736292 229.751625,121.272898 C230.212665,122.652742 229.982145,123.495979 229.136905,124.569191 C228.445345,125.489086 223.450745,126.025692 222.298145,126.10235 C213.538384,126.945587 212.385783,125.105796 203.933383,127.712167 C191.869501,131.315091 189.180101,137.75436 189.180101,137.75436 Z" id="Shape" fill="#505D5B"></path>
                    <path d="M168.894339,136.221201 C168.817499,137.294413 168.663819,138.444282 168.279619,139.440836 C167.972259,140.360731 167.511219,141.203969 167.203858,142.047206 C167.127018,142.200522 167.203858,143.04376 167.280698,142.967102 C168.049099,142.200522 168.433299,140.744021 168.740659,139.824125 C168.971179,138.750914 169.201699,137.524386 169.201699,136.451175 C169.124859,136.221201 168.971179,135.684595 168.894339,136.221201 Z" id="Shape" fill="#505D5B"></path>
                    <path d="M190.102181,138.52094 C190.640061,133.921462 197.555662,131.00846 201.167142,129.09201 C204.624943,127.252219 208.159583,125.259112 211.847903,123.802611 C214.229944,122.882715 216.688824,121.886162 219.224544,121.426214 C221.452904,120.966266 223.527585,120.81295 225.755945,120.429661 C226.447505,120.353003 227.676945,119.816397 228.368505,119.969713 C229.982145,120.429661 230.981066,122.116136 229.444265,123.725953 C227.600105,125.642402 219.762424,125.259112 217.457224,125.182454 C212.923664,125.105796 209.004823,125.182454 204.624943,126.562298 C199.322982,128.172115 192.330541,131.315091 189.794821,136.757807 C189.564301,137.294413 189.948501,138.52094 189.871661,138.827572 C193.252621,131.391749 205.085983,127.482193 212.462623,127.328877 C217.303544,127.175561 231.595786,129.781932 230.750545,121.809504 C230.135825,116.67342 225.909625,118.513211 222.144465,118.973159 C218.456144,119.509765 215.459384,120.429661 211.924743,121.809504 C207.468023,123.495979 203.241822,125.872376 199.169302,128.095457 C195.634662,130.011906 190.332701,132.694935 189.717981,137.141097 C189.948501,137.217755 190.025341,139.28752 190.102181,138.52094 Z" id="Shape" fill="#505D5B"></path>
                    <path d="M131.934295,139.747467 C141.385616,145.266841 150.222217,137.831018 159.750378,136.911123 C162.439778,136.681149 165.129178,137.37107 167.818579,137.141097 C171.276379,136.987781 174.811019,136.297859 178.19198,135.684595 C180.57402,135.224648 181.8803,135.684595 182.6487,133.61483 C183.18658,132.311645 182.87922,130.088564 182.87922,128.555405 C182.87922,128.555405 182.87922,127.635509 182.72554,127.635509 C180.88138,128.248773 177.96146,127.558851 176.040459,127.635509 C173.658419,127.635509 171.353219,127.788825 168.971179,127.865483 C166.358618,127.942141 163.669218,128.095457 161.133498,128.095457 C158.597778,128.095457 155.601017,127.328877 153.295817,128.785379 C146.764416,132.771593 140.540376,140.897337 132.011135,139.28752 C131.857455,139.440836 131.857455,139.670809 131.934295,139.747467 C135.853135,141.433943 137.850975,141.127311 141.385616,138.980888 C145.381296,136.604491 148.839096,133.921462 152.527417,131.085117 C155.139977,129.015352 157.983057,129.705274 161.133498,129.781932 C163.592378,129.781932 165.974418,129.705274 168.433299,129.628616 C170.738499,129.551958 173.043699,129.398642 175.425739,129.321984 C177.50042,129.321984 180.88138,130.011906 182.80238,129.321984 C182.72554,129.015352 182.72554,128.708721 182.6487,128.402089 C182.6487,129.09201 182.6487,130.931802 182.49502,131.775039 C181.95714,133.691488 181.64978,133.461514 179.9593,134.151436 C177.42358,135.14799 173.888939,135.224648 171.122699,135.607937 C166.435458,136.221201 161.671378,134.994674 157.060977,136.144543 C148.762256,138.214308 140.770896,142.813786 132.087975,139.440836 C131.934295,139.364178 131.857455,139.670809 131.934295,139.747467 Z" id="Shape" fill="#505D5B"></path>
                    <path d="M131.780615,154.389138 C138.235175,156.612219 143.537136,161.901619 148.762256,166.041149 C150.452737,167.420992 152.527417,169.107467 154.832617,169.107467 C157.137817,169.030809 158.828298,167.267676 160.288258,165.734517 C160.441938,165.581201 160.288258,164.354674 160.211418,164.584648 C157.829377,166.271123 156.062057,168.340888 152.911617,167.420992 C150.068537,166.501097 147.302296,163.588094 144.997096,161.901619 C141.001416,158.8353 137.005735,154.69577 131.703775,154.389138 C131.703775,154.082507 131.703775,154.389138 131.780615,154.389138 Z" id="Shape" fill="#505D5B"></path>
                    <path d="M150.452737,125.795718 C151.144297,121.19624 148.685416,117.976606 151.297977,113.147154 C153.526337,109.16094 156.062057,105.4047 157.983057,101.26517 C158.136737,100.958538 158.136737,99.8853264 157.906217,99.6553525 C155.601017,97.4322715 156.753617,91.5296084 156.753617,88.6166057 C156.753617,85.3203133 156.753617,82.1006789 156.753617,78.8043864 C156.753617,77.7311749 156.292577,77.7311749 156.292577,78.8043864 C156.292577,84.2471018 156.292577,89.7664752 156.292577,95.2091906 C156.292577,97.4322715 156.062057,99.7320104 157.829377,101.341828 C157.829377,100.805222 157.752537,100.345274 157.752537,99.7320104 C156.292577,102.798329 154.755777,105.634674 153.065297,108.471018 C151.759017,110.540783 150.068537,112.380574 149.376977,114.756971 C148.454896,118.283238 150.068537,122.116136 150.222217,125.642402 C150.375897,125.795718 150.375897,126.025692 150.452737,125.795718 Z" id="Shape" fill="#505D5B"></path>
                    <path d="M185.568621,225.527728 C185.568621,216.022141 194.405221,211.269347 201.858702,207.666423 C202.627102,207.359791 201.935542,206.209922 201.167142,206.593211 C193.252621,210.42611 184.1855,215.562193 184.1855,225.604386 C184.33918,226.370966 185.568621,226.370966 185.568621,225.527728 Z" id="Shape" fill="#505D5B"></path>
                    <path d="M66.9276474,112.457232 C69.3865277,102.338381 66.8508074,89.8431332 75.3800483,82.1006789 C75.9947684,81.4874151 75.1495283,80.6441775 74.4579682,81.1807833 C65.6982073,89.0765535 68.2339275,101.801775 65.6982073,112.150601 C65.5445272,112.91718 66.6971274,113.223812 66.9276474,112.457232 Z" id="Shape" fill="#505D5B"></path>
                    <path d="M131.242734,68.4555614 C130.166974,63.5494517 126.555494,59.6398956 121.714573,58.1067363 C120.946173,57.8767624 120.638813,59.1032898 121.407213,59.2566057 C125.863934,60.713107 128.937534,64.2393734 130.013294,68.7621932 C130.243814,69.5287728 131.396415,69.222141 131.242734,68.4555614 Z" id="Shape" fill="#505D5B"></path>
                    <path d="M219.839264,101.495144 C219.070864,107.397807 221.376064,112.380574 225.986465,116.060157 C226.293825,116.290131 226.754865,115.906841 226.447505,115.600209 C221.913945,112.073943 219.839264,107.167833 220.530824,101.418486 C220.530824,101.111854 219.839264,101.111854 219.839264,101.495144 Z" id="Shape" fill="#505D5B"></path>
                    <path d="M177.42358,227.827467 C176.96254,230.127206 176.57834,232.503603 176.117299,234.803342 C175.579419,237.716345 174.042619,238.559582 171.891099,240.322715 C169.355379,242.469138 167.741739,245.382141 166.973338,248.601775 C166.896498,249.061723 167.511219,249.215039 167.588059,248.755091 C168.279619,246.072063 169.432219,243.619008 171.506899,241.625901 C172.813179,240.322715 174.964699,239.709452 176.040459,238.176292 C177.6541,235.799896 177.6541,230.893786 178.11514,228.057441 C178.11514,227.674151 177.42358,227.444178 177.42358,227.827467 Z" id="Shape" fill="#505D5B"></path>
                </g>
            </g>
        </g>
    </g>
</svg>