<?xml version="1.0" encoding="UTF-8"?>
<svg width="46px" height="31px" viewBox="0 0 46 31" version="1.1" xmlns="http://www.w3.org/2000/svg" xmlns:xlink="http://www.w3.org/1999/xlink">
    <!-- Generator: sketchtool 50.2 (55047) - http://www.bohemiancoding.com/sketch -->
    <title>16BD4C36-5673-43C8-B954-3E4631100A3C</title>
    <desc>Created with sketchtool.</desc>
    <defs>
        <polygon id="path-1" points="0 0.0155194436 37.7061442 0.0155194436 37.7061442 13.7206672 0 13.7206672"></polygon>
        <polygon id="path-3" points="0 0.178775854 37.7061442 0.178775854 37.7061442 13.8839236 0 13.8839236"></polygon>
        <polygon id="path-5" points="0 0.0854979211 37.7061442 0.0854979211 37.7061442 13.7907954 0 13.7907954"></polygon>
        <polygon id="path-7" points="0 0.248754331 37.7061442 0.248754331 37.7061442 13.9540518 0 13.9540518"></polygon>
        <polygon id="path-9" points="0.250901333 0.214717949 3.00453333 0.214717949 3.00453333 18.4634359 0.250901333 18.4634359"></polygon>
    </defs>
    <g id="Symbols" stroke="none" stroke-width="1" fill="none" fill-rule="evenodd">
        <g id="ic/tokens">
            <g id="Group-11">
                <ellipse id="Oval-3" fill="#D8D8D8" cx="23" cy="24.5" rx="23" ry="6.5"></ellipse>
                <g id="Group" transform="translate(2.000000, 0.000000)">
                    <path d="M0.00912,19.2239487 C0.00684,20.4462564 0.01216,23.3039487 0.01216,23.3039487 L0.0331866667,23.3039487 C0.498306667,26.1629231 5.90216,28.721641 13.9267467,29.5113846 C21.1315467,30.2206154 28.4913867,29.3108718 33.0830533,27.3929231 L33.08356,27.3931795 L33.0939467,27.3888205 C33.1248533,27.3757436 33.1547467,27.3621538 33.1854,27.3490769 C33.33284,27.2865128 33.4767333,27.2229231 33.6180933,27.1583077 C33.6621733,27.1380513 33.7065067,27.1180513 33.7498267,27.0977949 C33.9101867,27.0226667 34.0667467,26.9465128 34.219,26.8685641 C34.2494,26.8531795 34.2785333,26.8372821 34.3084267,26.8218974 C34.3775867,26.7857436 34.4475067,26.7501026 34.5151467,26.7134359 L34.51084,26.7118974 C34.73124,26.5926667 34.9427733,26.4708718 35.14316,26.3454872 L35.14468,26.3462564 C35.1578533,26.3380513 35.16976,26.3298462 35.18268,26.321641 C35.2325867,26.2901026 35.2809733,26.2583077 35.3296133,26.2265128 C35.4208133,26.1665128 35.50948,26.1062564 35.59612,26.0454872 C35.6346267,26.0180513 35.6744,25.9913846 35.7121467,25.9639487 C35.8251333,25.881641 35.9328,25.7980513 36.0374267,25.7136923 C36.0728933,25.6844615 36.1078533,25.6554872 36.14256,25.6262564 C36.2347733,25.5488205 36.3239467,25.4706154 36.40856,25.391641 C36.4247733,25.3765128 36.4422533,25.361641 36.4582133,25.3465128 C36.5562533,25.2531795 36.6472,25.1585641 36.7346,25.0626667 C36.7571467,25.0380513 36.7791867,25.0131795 36.80072,24.9883077 C36.8876133,24.8898462 36.97096,24.790359 37.0462,24.6893333 C37.0943333,24.6249744 37.1386667,24.5606154 37.1812267,24.4962564 C37.19364,24.4772821 37.2052933,24.4585641 37.2172,24.4395897 C37.24684,24.3929231 37.2754667,24.3465128 37.30232,24.2998462 C37.3142267,24.2795897 37.3253733,24.2593333 37.3367733,24.2388205 C37.3628667,24.1913846 37.3876933,24.1436923 37.411,24.0962564 C37.41936,24.0793333 37.4279733,24.0618974 37.43608,24.0449744 C37.4644533,23.9844615 37.4905467,23.9244615 37.51436,23.8642051 C37.51588,23.8606154 37.5176533,23.8567692 37.51892,23.8534359 C37.57212,23.7167692 37.6134133,23.5806154 37.6438133,23.4447179 C37.6448267,23.4393333 37.64584,23.4344615 37.6468533,23.4293333 C37.6559733,23.3875385 37.6623067,23.3457436 37.6691467,23.3039487 L37.7015733,23.3039487 L37.7015733,19.2239487 L0.00912,19.2239487 Z" id="Fill-1" fill="#E59123"></path>
                    <path d="M0.0113493333,19.1530769 C0.011856,19.4823077 0.0121093333,19.6915385 0.0121093333,19.6915385 L0.033136,19.6915385 C0.498256,22.5502564 5.90210933,25.1092308 13.9269493,25.8989744 C21.131496,26.6079487 28.491336,25.6982051 33.0830027,23.7805128 L33.0835093,23.7805128 L33.093896,23.7758974 C33.1248027,23.7630769 33.154696,23.7497436 33.1853493,23.7366667 C33.3327893,23.6741026 33.476936,23.6102564 33.6180427,23.545641 C33.6621227,23.525641 33.706456,23.505641 33.749776,23.4853846 C33.9103893,23.4102564 34.0669493,23.3338462 34.2189493,23.2561538 C34.2493493,23.2405128 34.278736,23.2248718 34.308376,23.2089744 C34.377536,23.1733333 34.4477093,23.1374359 34.515096,23.1007692 L34.5110427,23.0994872 C34.7311893,22.98 34.942976,22.8582051 35.1431093,22.7330769 L35.1448827,22.7335897 C35.1578027,22.725641 35.1697093,22.7169231 35.1826293,22.7089744 C35.232536,22.6774359 35.281176,22.6453846 35.3295627,22.6135897 C35.4207627,22.5541026 35.5094293,22.4935897 35.5960693,22.4325641 C35.634576,22.405641 35.6743493,22.3787179 35.712096,22.3512821 C35.8250827,22.2689744 35.9327493,22.1853846 36.037376,22.1010256 C36.073096,22.0720513 36.1078027,22.0428205 36.1425093,22.0135897 C36.2347227,21.9361538 36.323896,21.8579487 36.4085093,21.7787179 C36.4247227,21.7638462 36.442456,21.7489744 36.4581627,21.7335897 C36.5562027,21.6405128 36.6471493,21.545641 36.7345493,21.45 C36.757096,21.4253846 36.779136,21.4007692 36.8009227,21.3758974 C36.8875627,21.2771795 36.9711627,21.1776923 37.0461493,21.0766667 C37.0942827,21.0123077 37.1388693,20.9479487 37.1814293,20.8835897 C37.1935893,20.8648718 37.2052427,20.8458974 37.2171493,20.8269231 C37.2467893,20.7805128 37.2756693,20.7338462 37.3022693,20.6871795 C37.314176,20.6669231 37.3253227,20.6464103 37.3367227,20.6261538 C37.362816,20.5787179 37.3876427,20.5310256 37.4109493,20.4835897 C37.4193093,20.4664103 37.4279227,20.4494872 37.4360293,20.4320513 C37.4644027,20.3720513 37.490496,20.3117949 37.5143093,20.2515385 C37.5158293,20.2479487 37.5176027,20.244359 37.5191227,20.2405128 C37.5723227,20.1041026 37.613616,19.9679487 37.6437627,19.8317949 C37.6450293,19.8269231 37.6460427,19.8217949 37.647056,19.8166667 C37.656176,19.7748718 37.662256,19.7330769 37.669096,19.6915385 L37.7015227,19.6915385 L37.7015227,19.1530769 L0.0113493333,19.1530769 Z" id="Fill-3" fill="#CC791F"></path>
                    <g id="Group-7" transform="translate(0.000000, 12.058974)">
                        <mask id="mask-2" fill="white">
                            <use xlink:href="#path-1"></use>
                        </mask>
                        <g id="Clip-6"></g>
                        <path d="M23.779412,0.255410256 C33.827372,1.24412821 39.7670253,5.0064359 37.0462253,8.65848718 C34.3256787,12.3107949 23.974732,14.4697692 13.926772,13.4807949 C3.878812,12.4920769 -2.06084133,8.72976923 0.659705333,5.07746154 C3.38075867,1.42515385 13.7317053,-0.733564103 23.779412,0.255410256" id="Fill-5" fill="#FCCC2E" mask="url(#mask-2)"></path>
                    </g>
                    <path d="M10.13156,23.9707949 L10.7833867,23.6020769 C10.8654667,23.5556667 10.9624933,23.4961795 10.9858,23.4807949 C10.93716,23.4661795 10.88396,23.4525897 10.8287333,23.4395128 C10.61948,23.3905385 10.3892,23.4069487 10.24176,23.4905385 C10.0750667,23.5843846 10.1888133,23.6528462 10.40668,23.7036154 L10.4358133,23.7105385 L10.2529067,23.7974615 L10.2354267,23.7936154 C10.04644,23.7495128 9.85086667,23.7648974 9.69557333,23.8525897 C9.58917333,23.9128462 9.63021333,23.9895128 9.81033333,24.0315641 C9.85998667,24.0431026 9.91014667,24.0518205 9.96030667,24.0607949 C9.97829333,24.0528462 10.0960933,23.9907949 10.13156,23.9707949 M9.25173333,23.7666923 C9.4164,23.6738718 9.70444,23.6454103 9.97728,23.6795128 L9.9902,23.6720769 C9.73332,23.5897692 9.62869333,23.4818205 9.823,23.3718205 C10.07152,23.2313077 10.5052267,23.2415641 10.88016,23.329 C11.0574933,23.3702821 11.3442667,23.4448974 11.5129867,23.484641 C11.6495333,23.5164359 11.78988,23.5415641 11.78988,23.5415641 L11.6738533,23.619 L11.4770133,23.5910513 C11.4420533,23.6036154 11.3272933,23.654641 11.2900533,23.6756667 L10.6379733,24.0443846 C10.56324,24.0866923 10.4854667,24.1400256 10.45684,24.1679744 L10.6060533,24.2205385 L10.45152,24.2964359 C10.45152,24.2964359 10.32992,24.2605385 10.1933733,24.2287436 C10.0682267,24.1995128 9.71254667,24.1313077 9.58461333,24.1013077 C9.23602667,24.0197692 9.04628,23.8828462 9.25173333,23.7666923" id="Fill-8" fill="#E38526"></path>
                    <path d="M5.738076,22.6834615 L5.90096933,22.7421795 C5.94732933,22.7326923 6.08210267,22.7011538 6.13504933,22.6852564 L7.05794267,22.4026923 C7.19018267,22.3621795 7.31228933,22.3137179 7.344716,22.3003846 L7.21576933,22.2329487 L7.428316,22.1760256 C7.428316,22.1760256 7.59500933,22.2580769 7.84656933,22.3667949 C7.951196,22.4119231 8.08242267,22.4588462 8.08242267,22.4588462 L7.90838267,22.5201282 L7.72978267,22.4665385 C7.70090267,22.4737179 7.53522267,22.5111538 7.48252933,22.5275641 L6.55938267,22.8098718 C6.427396,22.8501282 6.324036,22.8934615 6.286036,22.9083333 L6.39876933,22.9803846 L6.18926267,23.0362821 C6.18926267,23.0362821 6.084636,22.9814103 5.98000933,22.9360256 C5.72870267,22.8275641 5.53490267,22.7537179 5.53490267,22.7537179 L5.738076,22.6834615 Z" id="Fill-10" fill="#E38526"></path>
                    <path d="M3.48082533,20.9567179 C3.434212,20.9651795 3.315652,20.9887692 3.273092,21.0008205 C3.261692,21.0038974 3.238132,21.0128718 3.21178533,21.022359 C3.22951867,21.0441538 3.257132,21.0782564 3.297412,21.1126154 L3.365812,21.1718462 C3.42078533,21.1674872 3.57202533,21.1526154 3.635612,21.1431282 L4.74799867,20.9731282 C4.90734533,20.9490256 5.063652,20.9156923 5.105452,20.9064615 L5.037812,20.8282564 L5.28658533,20.7972308 C5.28658533,20.7972308 5.37879867,20.8933846 5.53003867,21.0244103 C5.59311867,21.0787692 5.67975867,21.1374872 5.67975867,21.1374872 L5.463412,21.1774872 L5.33674533,21.1067179 C5.30355867,21.1105641 5.11431867,21.1285128 5.05098533,21.1382564 L3.938852,21.3077436 C3.782292,21.3315897 3.648532,21.3615897 3.59710533,21.3721026 L3.659932,21.4267179 C3.69970533,21.4613333 3.74986533,21.4949231 3.78279867,21.5169744 C3.82003867,21.5167179 3.85398533,21.5169744 3.86791867,21.5162051 C3.92111867,21.5133846 4.05107867,21.4990256 4.099972,21.4931282 L4.18027867,21.5787692 L3.64194533,21.6513333 L3.55910533,21.638 C3.55910533,21.638 3.465372,21.5244103 3.43851867,21.5013333 L3.00278533,21.123641 C2.975932,21.1005641 2.818612,20.9964615 2.818612,20.9964615 L2.85027867,20.9656923 L3.368852,20.8759487 L3.48082533,20.9567179 Z" id="Fill-12" fill="#E38526"></path>
                    <path d="M4.24181333,18.9745385 C4.31376,19.0545385 4.39533333,19.1465897 4.41737333,19.253 C4.47817333,19.5437692 3.99557333,19.7055641 3.24444,19.7263333 C2.49356,19.7468462 1.94585333,19.6132564 1.88530667,19.3227436 C1.86276,19.2150513 1.90810667,19.1319744 1.94610667,19.0491538 L2.56601333,19.0471026 L2.57209333,19.1437692 L2.36284,19.1535128 C2.34206667,19.1540256 2.26834667,19.1647949 2.22477333,19.1722308 C2.20450667,19.2247949 2.19564,19.2653077 2.20577333,19.3140256 C2.23794667,19.4681282 2.66684,19.5153077 3.19377333,19.5009487 C3.72121333,19.4863333 4.12958667,19.417359 4.09741333,19.2632564 C4.08626667,19.2094103 4.05966667,19.1647949 4.01356,19.1091538 C3.98873333,19.1076154 3.86789333,19.0932564 3.84028,19.0940256 C3.80228,19.0937692 3.67764,19.0947949 3.67764,19.0947949 L3.65129333,19.0009487 L4.24181333,18.9745385 Z" id="Fill-14" fill="#E38526"></path>
                    <path d="M4.56937333,17.5384872 C4.67678667,17.3928462 4.43358667,17.2951538 3.81216,17.234641 C3.18769333,17.1741282 2.84290667,17.2148974 2.736,17.3607949 C2.62909333,17.5061795 2.87204,17.6041282 3.49676,17.664641 C4.11793333,17.7248974 4.46246667,17.6841282 4.56937333,17.5384872 M4.89338667,17.5700256 C4.70009333,17.833359 4.08778667,17.9561795 3.33614667,17.8831026 C2.58121333,17.8100256 2.21844,17.5925897 2.41198667,17.3292564 C2.60528,17.0656667 3.21784,16.9431026 3.97277333,17.0164359 C4.72416,17.0892564 5.08693333,17.3066923 4.89338667,17.5700256" id="Fill-16" fill="#E38526"></path>
                    <path d="M5.17349733,15.4458974 L5.06557733,15.5192308 C5.103324,15.5328205 5.224924,15.5707692 5.28293733,15.5846154 L6.291964,15.8251282 C6.43661733,15.8594872 6.60027067,15.8879487 6.644604,15.8953846 L6.785204,15.8312821 L6.99547067,15.8889744 C6.99547067,15.8889744 6.82751067,15.9705128 6.613444,16.0894872 C6.52427067,16.1387179 6.43839067,16.1979487 6.43839067,16.1979487 L6.22635067,16.1551282 L6.31679067,16.0771795 C6.289684,16.0694872 6.143004,16.0223077 6.085244,16.0084615 L5.07571067,15.7682051 C4.93131067,15.7335897 4.787924,15.71 4.737764,15.7010256 L4.57993733,15.7610256 L4.37245733,15.704359 C4.37245733,15.704359 4.48747067,15.6520513 4.576644,15.6025641 C4.79045733,15.4838462 4.92979067,15.3953846 4.92979067,15.3953846 L5.17349733,15.4458974 Z" id="Fill-18" fill="#E38526"></path>
                    <path d="M9.51281867,13.8768718 L9.347392,13.9345641 C9.36765867,13.947641 9.45404533,14.0012308 9.497112,14.0209744 L10.662192,14.5540513 L10.2971387,14.6596923 L8.45033867,14.4709744 L9.00260533,14.7237949 C9.110272,14.7727692 9.252392,14.8217436 9.27645867,14.8307179 L9.46544533,14.7858462 L9.61516533,14.8645641 C9.61516533,14.8645641 9.46088533,14.9009744 9.15536533,14.9894359 C9.028192,15.0258462 8.89544533,15.0722564 8.89544533,15.0722564 L8.73153867,15.0073846 L8.884552,14.9440513 C8.86605867,14.9317436 8.766752,14.8722564 8.72368533,14.8525128 L7.97356533,14.5094359 C7.86589867,14.4599487 7.73948533,14.416359 7.710352,14.4071282 L7.508952,14.446359 L7.36100533,14.3684103 C7.36100533,14.3684103 7.51528533,14.3317436 7.64245867,14.2953333 L7.91833867,14.2153333 L8.012832,14.2204615 C8.012832,14.2204615 8.48124533,14.2873846 8.56889867,14.2971282 L9.82416533,14.4271282 L9.21793867,14.1496923 C9.13813867,14.1135385 8.99449867,14.062 8.95497867,14.047641 L8.75332533,14.0866154 L8.60537867,14.0091795 L8.886832,13.9358462 C9.10596533,13.8722564 9.32509867,13.8012308 9.32509867,13.8012308 L9.51281867,13.8768718 Z" id="Fill-20" fill="#E38526"></path>
                    <path d="M27.4193307,23.4612051 L28.112704,23.8199231 C28.200104,23.8653077 28.3151173,23.9204359 28.3457707,23.9340256 C28.400744,23.923 28.4567307,23.9104359 28.510184,23.8965897 C28.713864,23.8445385 28.7592107,23.7609487 28.602144,23.6796667 C28.4253173,23.5881282 28.2082107,23.6004359 27.9959173,23.6547949 L27.9677973,23.6619744 L27.8150373,23.567359 L27.8320107,23.563 C28.0156773,23.5160769 28.0501307,23.4445385 27.8852107,23.3591538 C27.7719707,23.3004359 27.560944,23.2850513 27.385384,23.3299231 C27.337504,23.3422308 27.2962107,23.3560769 27.2549173,23.3696667 C27.2678373,23.3783846 27.381584,23.4417179 27.4193307,23.4612051 M28.271544,23.2419744 C28.4465973,23.3324872 28.4093573,23.4401795 28.2201173,23.5194103 L28.2340507,23.5263333 C28.5410907,23.4709487 28.8562373,23.4765897 29.0624507,23.5835128 C29.3266773,23.7204359 29.1369307,23.8622308 28.7721307,23.9558205 C28.5996107,23.9999231 28.301184,24.0681282 28.137024,24.1101795 C28.0042773,24.1440256 27.886984,24.1819744 27.886984,24.1819744 L27.7332107,24.1135128 L27.879384,24.0576154 C27.8601307,24.0412051 27.7734907,23.9832564 27.7339707,23.9627436 L27.040344,23.6040256 C26.9607973,23.5627436 26.854144,23.5163333 26.7943573,23.4963333 L26.6035973,23.5265897 L26.468824,23.4458205 C26.468824,23.4458205 26.6058773,23.4183846 26.7388773,23.3845385 C26.8604773,23.3535128 27.1690373,23.2594103 27.2931707,23.2278718 C27.6328907,23.1409487 28.0529173,23.1288974 28.271544,23.2419744" id="Fill-22" fill="#E38526"></path>
                    <path d="M30.83662,22.1093077 L30.7114733,22.1790513 C30.7459267,22.1936667 30.8576467,22.2354615 30.91186,22.2511026 L31.8583133,22.522641 C31.9938467,22.5616154 32.1499,22.5954615 32.1922067,22.6044359 L32.3477533,22.5446923 L32.5430733,22.6087949 C32.5430733,22.6087949 32.3561133,22.6849487 32.11418,22.7964872 C32.0133533,22.8423846 31.91354,22.8987949 31.91354,22.8987949 L31.7129,22.8493077 L31.8220867,22.7746923 C31.7967533,22.7662308 31.66198,22.7144359 31.6077667,22.6990513 L30.66106,22.4272564 C30.5255267,22.3882821 30.3884733,22.3603333 30.3411,22.3495641 L30.1690867,22.4044359 L29.9763,22.3411026 C29.9763,22.3411026 30.1034733,22.2928974 30.2043,22.2462308 C30.4462333,22.1352051 30.60634,22.0511026 30.60634,22.0511026 L30.83662,22.1093077 Z" id="Fill-24" fill="#E38526"></path>
                    <path d="M33.283364,20.6735128 C33.2337107,20.6678718 33.103244,20.6545385 33.0497907,20.6524872 C33.035604,20.6517179 33.0019107,20.6522308 32.9644173,20.6522308 C32.935284,20.6724872 32.8901907,20.7037692 32.852444,20.7388974 L32.7880973,20.798641 C32.835724,20.8094103 32.9727773,20.8371026 33.037124,20.8463333 L34.1606573,21.0065897 C34.3217773,21.0294103 34.497844,21.0450513 34.5452173,21.0491538 L34.646804,20.9758205 L34.8849373,21.0165897 C34.8849373,21.0165897 34.7666307,21.1091538 34.624004,21.2414615 C34.564724,21.2963333 34.513804,21.3606923 34.513804,21.3606923 L34.282004,21.3342821 L34.326844,21.2517179 C34.2959373,21.2458205 34.1256973,21.2109487 34.0613507,21.2017179 L32.938324,21.0414615 C32.7807507,21.0188974 32.626724,21.0065897 32.569724,21.0009487 L32.5101907,21.0560769 C32.472444,21.0909487 32.4440707,21.1276154 32.4250707,21.1519744 C32.4524307,21.1612051 32.476244,21.1701795 32.4878973,21.173 C32.5312173,21.1845385 32.651804,21.2071026 32.6986707,21.2150513 L32.591764,21.2971026 L32.0663507,21.213 L32.032404,21.1822308 C32.032404,21.1822308 32.1831373,21.0768462 32.2084707,21.0532564 L32.6201373,20.6719744 C32.6452173,20.648641 32.731604,20.5340256 32.731604,20.5340256 L32.813684,20.5199231 L33.3580973,20.5868462 L33.283364,20.6735128 Z" id="Fill-26" fill="#E38526"></path>
                    <path d="M35.8169507,18.9590256 C35.858244,19.0418462 35.9043507,19.1372308 35.8858573,19.243641 C35.8359507,19.5346667 35.2963507,19.6708205 34.5444573,19.6538974 C33.792564,19.6369744 33.3003373,19.4772308 33.3504973,19.1864615 C33.3689907,19.0785128 33.4449907,18.9982564 33.5138973,18.9182564 L34.1289907,18.9472308 L34.0985907,19.0433846 L33.8878173,19.042359 C33.867044,19.0418462 33.7897773,19.0490256 33.7434173,19.0541538 C33.7038973,19.1049231 33.6795773,19.1449231 33.670964,19.193641 C33.6448707,19.3477436 34.0519773,19.4162051 34.5796707,19.4282564 C35.1076173,19.4400513 35.538284,19.3918462 35.564884,19.2377436 C35.5742573,19.1838974 35.5646307,19.1382564 35.539804,19.0813333 C35.516244,19.078 35.4017373,19.058 35.3743773,19.0572308 C35.3366307,19.0551795 35.2124973,19.0497949 35.2124973,19.0497949 L35.222124,18.9554359 L35.8169507,18.9590256 Z" id="Fill-28" fill="#E38526"></path>
                    <path d="M35.0084627,17.3384103 C34.9002893,17.1927692 34.5555027,17.1522564 33.9345827,17.2132821 C33.310116,17.2740513 33.0674227,17.3722564 33.1753427,17.517641 C33.2832627,17.6635385 33.6283027,17.7037949 34.2527693,17.6427692 C34.8736893,17.582 35.1161293,17.4837949 35.0084627,17.3384103 M35.3319693,17.3068718 C35.5272893,17.5699487 35.1657827,17.787641 34.414396,17.8609744 C33.6599693,17.9348205 33.046396,17.8130256 32.8513293,17.5494359 C32.656516,17.2861026 33.018276,17.0684103 33.7727027,16.9945641 C34.5240893,16.9209744 35.137156,17.0435385 35.3319693,17.3068718" id="Fill-30" fill="#E38526"></path>
                    <path d="M31.0367533,15.8472821 L31.17786,15.9129231 C31.2270067,15.906 31.3719133,15.8808718 31.4299267,15.8672821 L32.44326,15.6293333 C32.58842,15.5952308 32.7262333,15.5526667 32.7629667,15.5408718 L32.6585933,15.4680513 L32.88862,15.421641 C32.88862,15.421641 33.02618,15.5106154 33.2379667,15.6295897 C33.3261267,15.6793333 33.4398733,15.7318974 33.4398733,15.7318974 L33.2460733,15.7849744 L33.0874867,15.7234359 C33.05658,15.7290769 32.8789933,15.7588205 32.82098,15.7724103 L31.8076467,16.010359 C31.66274,16.0444615 31.5451933,16.0824103 31.50238,16.0954872 L31.5895267,16.1724103 L31.3620333,16.2180513 C31.3620333,16.2180513 31.27742,16.1588205 31.18926,16.1090769 C30.9774733,15.9901026 30.81078,15.9077949 30.81078,15.9077949 L31.0367533,15.8472821 Z" id="Fill-32" fill="#E38526"></path>
                    <path d="M27.2466587,14.4568205 L27.4358987,14.5037436 C27.4678187,14.4937436 27.594232,14.4516923 27.6380587,14.4322051 L28.829992,13.9065641 L29.1899787,14.0145128 L29.0676187,14.7106667 L29.6328053,14.4614359 C29.742752,14.4129744 29.844592,14.3522051 29.8638453,14.3416923 L29.7034853,14.284 L29.884112,14.2142564 C29.884112,14.2142564 30.0143253,14.2614359 30.315792,14.3519487 C30.441192,14.3893846 30.5934453,14.4268205 30.5934453,14.4268205 L30.4530987,14.4986154 L30.250432,14.4575897 C30.2210453,14.4665641 30.0812053,14.5145128 30.037632,14.534 L29.2702853,14.8722051 C29.1603387,14.9209231 29.0688853,14.9750256 29.0501387,14.9870769 L29.197072,15.0506667 L29.0189787,15.1193846 C29.0189787,15.1193846 28.8882587,15.0722051 28.763112,15.0347692 L28.491032,14.9532308 L28.4844453,14.9186154 C28.4844453,14.9186154 28.5665253,14.7381026 28.5748853,14.7047692 L28.6630453,14.2311795 L28.0428853,14.5047692 C27.961312,14.5406667 27.8528853,14.6022051 27.8227387,14.619641 L27.969672,14.6832308 L27.7915787,14.7516923 L27.5359653,14.6670769 C27.3196187,14.6022051 27.081992,14.5391282 27.081992,14.5391282 L27.2466587,14.4568205 Z" id="Fill-34" fill="#E38526"></path>
                    <path d="M18.853016,14.0371282 C26.2832827,14.0371282 32.306536,16.226359 32.306536,18.9268718 C32.306536,21.6278974 26.2832827,23.8171282 18.853016,23.8171282 C11.4230027,23.8171282 5.39974933,21.6278974 5.39974933,18.9268718 C5.39974933,16.226359 11.4230027,14.0371282 18.853016,14.0371282" id="Fill-36" fill="#E59125"></path>
                    <path d="M18.853016,14.2171795 C26.0094293,14.2171795 31.8107627,16.3258974 31.8107627,18.9269231 C31.8107627,21.5282051 26.0094293,23.6369231 18.853016,23.6369231 C11.6966027,23.6369231 5.89526933,21.5282051 5.89526933,18.9269231 C5.89526933,16.3258974 11.6966027,14.2171795 18.853016,14.2171795" id="Fill-38" fill="#F2AB29"></path>
                    <path d="M19.3393907,19.4588205 L19.3393907,18.6949744 C19.3393907,18.0311282 20.659004,17.6836923 21.9626573,17.6836923 C23.6551773,17.6836923 24.6654707,18.0995897 24.6654707,18.796 L24.6654707,19.4588205 L19.3393907,19.4588205 Z M18.105404,18.680359 L18.105404,19.4588205 L13.176804,19.4588205 L13.176804,18.796 C13.176804,18.2406154 14.0457373,17.9221538 15.561684,17.9221538 C17.2316573,17.9221538 18.105404,18.3034359 18.105404,18.680359 Z M21.9428973,16.8375385 C19.955244,16.8375385 18.780284,17.4167692 18.5444307,18.0395897 C18.2941373,17.6849744 17.5607373,17.0762564 15.481884,17.0762564 C13.3247507,17.0762564 12.026924,17.6221538 11.862004,18.5826667 L10.6181373,18.5826667 L10.6181373,18.9936923 L10.6181373,19.0870256 L11.8432573,19.0870256 L11.8432573,19.4588205 L10.6181373,19.4588205 L10.6181373,19.4683077 L10.6181373,19.8790769 L10.6181373,19.9629231 L11.8432573,19.9629231 L11.8432573,20.8831795 L11.8432573,21.0162564 L13.3419773,21.0162564 L13.3419773,20.2775385 L24.5002973,20.2775385 L24.5002973,21.0047179 L25.9990173,21.0047179 L25.9990173,20.9642051 L25.9990173,19.9629231 L27.0880973,19.9629231 L27.0880973,19.4588205 L25.9990173,19.4588205 L25.9990173,19.0870256 L27.087844,19.0870256 L27.087844,18.5826667 L25.988884,18.5826667 C25.9085773,17.7288205 25.260044,16.8375385 21.9428973,16.8375385 Z" id="Fill-40" fill="#E38526"></path>
                    <path d="M9.37107867,13.0064872 L35.1447053,22.3746923 C35.9573987,21.8664872 36.6033987,21.3121282 37.0462253,20.7175128 C37.460172,20.1621282 37.6724653,19.6039231 37.7015987,19.0536667 L18.5047587,12.0759744 C15.2486653,12.0972564 12.110372,12.427 9.37107867,13.0064872" id="Fill-42" fill="#FEE46F"></path>
                    <path d="M33.0834587,23.4216667 C33.5964587,23.2073077 34.0752587,22.9803846 34.5150453,22.7419231 L8.36141867,13.2355128 C7.709592,13.3944872 7.08385867,13.5678205 6.48928533,13.7552564 L33.0834587,23.4216667 Z" id="Fill-44" fill="#FEE46F"></path>
                    <path d="M0.00912,15.284641 C0.00684,16.5069487 0.01216,19.364641 0.01216,19.364641 L0.0331866667,19.364641 C0.498306667,22.2236154 5.90216,24.7823333 13.9267467,25.5720769 C21.1315467,26.2813077 28.4913867,25.3715641 33.0830533,23.4536154 L33.08356,23.4538718 L33.0939467,23.4495128 C33.1248533,23.4364359 33.1547467,23.4228462 33.1854,23.4097692 C33.33284,23.3472051 33.4767333,23.2836154 33.6180933,23.219 C33.6621733,23.1987436 33.7065067,23.1787436 33.7498267,23.1584872 C33.9101867,23.083359 34.0667467,23.0072051 34.219,22.9292564 C34.2494,22.9138718 34.2785333,22.8979744 34.3084267,22.8825897 C34.3775867,22.8464359 34.4475067,22.8107949 34.5151467,22.7741282 L34.51084,22.7725897 C34.73124,22.653359 34.9427733,22.5315641 35.14316,22.4061795 L35.14468,22.4069487 C35.1578533,22.3987436 35.16976,22.3905385 35.18268,22.3823333 C35.2325867,22.3507949 35.2809733,22.319 35.3296133,22.2872051 C35.4208133,22.2272051 35.50948,22.1669487 35.59612,22.1061795 C35.6346267,22.0787436 35.6744,22.0520769 35.7121467,22.024641 C35.8251333,21.9423333 35.9328,21.8587436 36.0374267,21.7743846 C36.0728933,21.7451538 36.1078533,21.7161795 36.14256,21.6869487 C36.2347733,21.6095128 36.3239467,21.5313077 36.40856,21.4523333 C36.4247733,21.4369487 36.4422533,21.4223333 36.4582133,21.4072051 C36.5562533,21.3138718 36.6472,21.219 36.7346,21.123359 C36.7571467,21.0987436 36.7791867,21.0738718 36.80072,21.049 C36.8876133,20.9505385 36.97096,20.8510513 37.0462,20.7497692 C37.0943333,20.6856667 37.1386667,20.6213077 37.1812267,20.5569487 C37.19364,20.5379744 37.2052933,20.519 37.2172,20.5002821 C37.24684,20.4536154 37.2754667,20.4072051 37.30232,20.3605385 C37.3142267,20.3402821 37.3253733,20.3200256 37.3367733,20.2995128 C37.3628667,20.2518205 37.3876933,20.2043846 37.411,20.1569487 C37.41936,20.1400256 37.4279733,20.1225897 37.43608,20.1056667 C37.4644533,20.0451538 37.4905467,19.9851538 37.51436,19.9248974 C37.51588,19.9213077 37.5176533,19.9174615 37.51892,19.9141282 C37.57212,19.7774615 37.6134133,19.6413077 37.6438133,19.5051538 C37.6448267,19.5000256 37.64584,19.4951538 37.6468533,19.4900256 C37.6559733,19.4482308 37.6623067,19.4064359 37.6691467,19.364641 L37.7015733,19.364641 L37.7015733,15.284641 L0.00912,15.284641 Z" id="Fill-46" fill="#E38526"></path>
                    <path d="M0.0113493333,15.2137692 C0.011856,15.543 0.0121093333,15.7522308 0.0121093333,15.7522308 L0.033136,15.7522308 C0.498256,18.6109487 5.90210933,21.1696667 13.9269493,21.9596667 C21.131496,22.668641 28.491336,21.7588974 33.0830027,19.8409487 L33.0835093,19.8412051 L33.093896,19.8365897 C33.1248027,19.8237692 33.154696,19.8104359 33.1853493,19.797359 C33.3327893,19.7347949 33.476936,19.6709487 33.6180427,19.6063333 C33.6621227,19.5863333 33.706456,19.5663333 33.749776,19.5458205 C33.9103893,19.4709487 34.0669493,19.3945385 34.2189493,19.3168462 C34.2493493,19.3012051 34.278736,19.2855641 34.308376,19.2696667 C34.377536,19.2340256 34.4477093,19.1981282 34.515096,19.1614615 L34.5110427,19.1601795 C34.7311893,19.0406923 34.942976,18.918641 35.1431093,18.7937692 L35.1448827,18.7942821 C35.1578027,18.7863333 35.1697093,18.7776154 35.1826293,18.7696667 C35.232536,18.7381282 35.281176,18.7060769 35.3295627,18.6742821 C35.4207627,18.6147949 35.5094293,18.5542821 35.5960693,18.4932564 C35.634576,18.4663333 35.6743493,18.4394103 35.712096,18.4119744 C35.8250827,18.3296667 35.9327493,18.2460769 36.037376,18.1617179 C36.073096,18.1327436 36.1078027,18.1035128 36.1425093,18.0742821 C36.2347227,17.9968462 36.323896,17.918641 36.4085093,17.8394103 C36.4247227,17.8245385 36.442456,17.8096667 36.4581627,17.7942821 C36.5562027,17.7012051 36.6471493,17.6063333 36.7345493,17.5106923 C36.757096,17.4860769 36.779136,17.4614615 36.8009227,17.4365897 C36.8875627,17.3378718 36.9711627,17.2383846 37.0461493,17.137359 C37.0942827,17.073 37.1388693,17.008641 37.1814293,16.9442821 C37.1935893,16.9253077 37.2052427,16.9065897 37.2171493,16.887359 C37.2467893,16.8412051 37.2756693,16.7945385 37.3022693,16.7478718 C37.314176,16.7276154 37.3253227,16.7071026 37.3367227,16.6868462 C37.362816,16.6394103 37.3876427,16.5917179 37.4109493,16.5440256 C37.4193093,16.5271026 37.4279227,16.5101795 37.4360293,16.4927436 C37.4644027,16.4327436 37.490496,16.3724872 37.5143093,16.3122308 C37.5158293,16.308641 37.5176027,16.3050513 37.5191227,16.3012051 C37.5723227,16.1647949 37.613616,16.028641 37.6437627,15.8924872 C37.6450293,15.8876154 37.6460427,15.8822308 37.647056,15.877359 C37.656176,15.8355641 37.662256,15.7937692 37.669096,15.7522308 L37.7015227,15.7522308 L37.7015227,15.2137692 L0.0113493333,15.2137692 Z" id="Fill-48" fill="#CC791F"></path>
                    <g id="Group-52" transform="translate(0.000000, 7.956410)">
                        <mask id="mask-4" fill="white">
                            <use xlink:href="#path-3"></use>
                        </mask>
                        <g id="Clip-51"></g>
                        <path d="M23.779412,0.418666667 C33.827372,1.40738462 39.7670253,5.16969231 37.0462253,8.82174359 C34.3256787,12.4740513 23.974732,14.6330256 13.926772,13.6440513 C3.878812,12.6553333 -2.06084133,8.89276923 0.659705333,5.24071795 C3.38075867,1.58841026 13.7317053,-0.570307692 23.779412,0.418666667" id="Fill-50" fill="#FCCC2E" mask="url(#mask-4)"></path>
                    </g>
                    <path d="M10.13156,20.0314872 L10.7833867,19.6627692 C10.8654667,19.616359 10.9624933,19.5566154 10.9858,19.5412308 C10.93716,19.5268718 10.88396,19.5132821 10.8287333,19.5002051 C10.61948,19.4512308 10.3892,19.467641 10.24176,19.5512308 C10.0750667,19.6450769 10.1888133,19.7135385 10.40668,19.7643077 L10.4358133,19.7709744 L10.2529067,19.8581538 L10.2354267,19.8543077 C10.04644,19.8102051 9.85086667,19.8255897 9.69557333,19.9132821 C9.58917333,19.9732821 9.63021333,20.0502051 9.81033333,20.0922564 C9.85998667,20.1037949 9.91014667,20.1125128 9.96030667,20.1214872 C9.97829333,20.1135385 10.0960933,20.0514872 10.13156,20.0314872 M9.25173333,19.8273846 C9.4164,19.7345641 9.70444,19.7061026 9.97728,19.7402051 L9.9902,19.7327692 C9.73332,19.6504615 9.62869333,19.5425128 9.823,19.4325128 C10.07152,19.292 10.5052267,19.3022564 10.88016,19.3896923 C11.0574933,19.4309744 11.3442667,19.5055897 11.5129867,19.5453333 C11.6495333,19.5771282 11.78988,19.6022564 11.78988,19.6022564 L11.6738533,19.6796923 L11.4770133,19.6517436 C11.4420533,19.6643077 11.3272933,19.7153333 11.2900533,19.736359 L10.6379733,20.1050769 C10.56324,20.1471282 10.4854667,20.2007179 10.45684,20.2284103 L10.6060533,20.2812308 L10.45152,20.3571282 C10.45152,20.3571282 10.32992,20.3212308 10.1933733,20.2891795 C10.0682267,20.2602051 9.71254667,20.192 9.58461333,20.162 C9.23602667,20.0804615 9.04628,19.9435385 9.25173333,19.8273846" id="Fill-53" fill="#E38526"></path>
                    <path d="M5.738076,18.7441795 L5.90096933,18.8028974 C5.94732933,18.7934103 6.08210267,18.7618718 6.13504933,18.7459744 L7.05794267,18.4634103 C7.19018267,18.4228974 7.31228933,18.3741795 7.344716,18.3611026 L7.21576933,18.2936667 L7.428316,18.2367436 C7.428316,18.2367436 7.59500933,18.3187949 7.84656933,18.4275128 C7.951196,18.472641 8.08242267,18.5195641 8.08242267,18.5195641 L7.90838267,18.5808462 L7.72978267,18.5272564 C7.70090267,18.5344359 7.53522267,18.5718718 7.48252933,18.5882821 L6.55938267,18.8705897 C6.427396,18.9108462 6.324036,18.9539231 6.286036,18.9690513 L6.39876933,19.0411026 L6.18926267,19.097 C6.18926267,19.097 6.084636,19.0421282 5.98000933,18.9967436 C5.72870267,18.8882821 5.53490267,18.8144359 5.53490267,18.8144359 L5.738076,18.7441795 Z" id="Fill-55" fill="#E38526"></path>
                    <path d="M3.48082533,17.0174103 C3.434212,17.0258718 3.315652,17.0494615 3.273092,17.0612564 C3.261692,17.0645897 3.238132,17.0735641 3.21178533,17.0830513 C3.22951867,17.1048462 3.257132,17.1386923 3.297412,17.1733077 L3.365812,17.2325385 C3.42078533,17.2281795 3.57202533,17.2133077 3.635612,17.2038205 L4.74799867,17.0338205 C4.90734533,17.0097179 5.063652,16.9763846 5.105452,16.9671538 L5.037812,16.8889487 L5.28658533,16.8579231 C5.28658533,16.8579231 5.37879867,16.9540769 5.53003867,17.0848462 C5.59311867,17.1394615 5.67975867,17.1981795 5.67975867,17.1981795 L5.463412,17.2381795 L5.33674533,17.1674103 C5.30355867,17.1712564 5.11431867,17.1892051 5.05098533,17.1989487 L3.938852,17.3684359 C3.782292,17.3922821 3.648532,17.4222821 3.59710533,17.4327949 L3.659932,17.4874103 C3.69970533,17.5220256 3.74986533,17.555359 3.78279867,17.5776667 C3.82003867,17.5774103 3.85398533,17.5776667 3.86791867,17.5768974 C3.92111867,17.5740769 4.05107867,17.5597179 4.099972,17.5538205 L4.18027867,17.6394615 L3.64194533,17.7120256 L3.55910533,17.6986923 C3.55910533,17.6986923 3.465372,17.5851026 3.43851867,17.5620256 L3.00278533,17.1843333 C2.975932,17.1612564 2.818612,17.0571538 2.818612,17.0571538 L2.85027867,17.0263846 L3.368852,16.936641 L3.48082533,17.0174103 Z" id="Fill-57" fill="#E38526"></path>
                    <path d="M4.24181333,15.0352308 C4.31376,15.1152308 4.39533333,15.2072821 4.41737333,15.3136923 C4.47817333,15.6044615 3.99557333,15.7662564 3.24444,15.7870256 C2.49356,15.8075385 1.94585333,15.6739487 1.88530667,15.3834359 C1.86276,15.2757436 1.90810667,15.1926667 1.94610667,15.1098462 L2.56601333,15.1077949 L2.57209333,15.2044615 L2.36284,15.2139487 C2.34206667,15.2147179 2.26834667,15.2254872 2.22477333,15.2329231 C2.20450667,15.2854872 2.19564,15.326 2.20577333,15.3744615 C2.23794667,15.5288205 2.66684,15.576 3.19377333,15.561641 C3.72121333,15.5470256 4.12958667,15.4780513 4.09741333,15.3239487 C4.08626667,15.2701026 4.05966667,15.2252308 4.01356,15.1698462 C3.98873333,15.1683077 3.86789333,15.1539487 3.84028,15.1547179 C3.80228,15.1544615 3.67764,15.1554872 3.67764,15.1554872 L3.65129333,15.061641 L4.24181333,15.0352308 Z" id="Fill-59" fill="#E38526"></path>
                    <path d="M4.56937333,13.5991795 C4.67678667,13.4535385 4.43358667,13.3558462 3.81216,13.2953333 C3.18769333,13.2348205 2.84290667,13.2753333 2.736,13.4212308 C2.62909333,13.5668718 2.87204,13.6648205 3.49676,13.7253333 C4.11793333,13.7855897 4.46246667,13.7448205 4.56937333,13.5991795 M4.89338667,13.6307179 C4.70009333,13.8940513 4.08778667,14.0168718 3.33614667,13.9437949 C2.58121333,13.8707179 2.21844,13.6532821 2.41198667,13.3899487 C2.60528,13.126359 3.21784,13.0037949 3.97277333,13.0771282 C4.72416,13.1499487 5.08693333,13.3673846 4.89338667,13.6307179" id="Fill-61" fill="#E38526"></path>
                    <path d="M5.17349733,11.5065897 L5.06557733,11.5799231 C5.103324,11.5935128 5.224924,11.6314615 5.28293733,11.6453077 L6.291964,11.8858205 C6.43661733,11.9199231 6.60027067,11.948641 6.644604,11.9560769 L6.785204,11.8919744 L6.99547067,11.9496667 C6.99547067,11.9496667 6.82751067,12.0312051 6.613444,12.1499231 C6.52427067,12.1994103 6.43839067,12.258641 6.43839067,12.258641 L6.22635067,12.2155641 L6.31679067,12.1378718 C6.289684,12.1301795 6.143004,12.083 6.085244,12.0691538 L5.07571067,11.8288974 C4.93131067,11.7942821 4.787924,11.7706923 4.737764,11.7617179 L4.57993733,11.8217179 L4.37245733,11.7650513 C4.37245733,11.7650513 4.48747067,11.7127436 4.576644,11.6632564 C4.79045733,11.5442821 4.92979067,11.4560769 4.92979067,11.4560769 L5.17349733,11.5065897 Z" id="Fill-63" fill="#E38526"></path>
                    <path d="M9.51281867,9.93758974 L9.347392,9.99528205 C9.36765867,10.008359 9.45404533,10.0619487 9.497112,10.0816923 L10.662192,10.6147692 L10.2971387,10.7204103 L8.45033867,10.5316923 L9.00260533,10.7845128 C9.110272,10.8334872 9.252392,10.8824615 9.27645867,10.8914359 L9.46544533,10.8465641 L9.61516533,10.9252821 C9.61516533,10.9252821 9.46088533,10.9616923 9.15536533,11.0498974 C9.028192,11.0865641 8.89544533,11.1329744 8.89544533,11.1329744 L8.73153867,11.0681026 L8.884552,11.0047692 C8.86605867,10.9922051 8.766752,10.9327179 8.72368533,10.9132308 L7.97356533,10.5698974 C7.86589867,10.5206667 7.73948533,10.4770769 7.710352,10.4678462 L7.508952,10.5070769 L7.36100533,10.4291282 C7.36100533,10.4291282 7.51528533,10.3924615 7.64245867,10.3560513 L7.91833867,10.2760513 L8.012832,10.2811795 C8.012832,10.2811795 8.48124533,10.3481026 8.56889867,10.3578462 L9.82416533,10.4878462 L9.21793867,10.2104103 C9.13813867,10.1742564 8.99449867,10.1227179 8.95497867,10.108359 L8.75332533,10.1473333 L8.60537867,10.0698974 L8.886832,9.99630769 C9.10596533,9.93297436 9.32509867,9.86194872 9.32509867,9.86194872 L9.51281867,9.93758974 Z" id="Fill-65" fill="#E38526"></path>
                    <path d="M27.4193307,19.5219231 L28.112704,19.880641 C28.200104,19.9257692 28.3151173,19.9811538 28.3457707,19.9947436 C28.400744,19.9837179 28.4567307,19.9711538 28.510184,19.9573077 C28.713864,19.9052564 28.7592107,19.8216667 28.602144,19.7403846 C28.4253173,19.6488462 28.2082107,19.6611538 27.9959173,19.7155128 L27.9677973,19.7226923 L27.8150373,19.6280769 L27.8320107,19.6237179 C28.0156773,19.5767949 28.0501307,19.5052564 27.8852107,19.4198718 C27.7719707,19.3611538 27.560944,19.3457692 27.385384,19.390641 C27.337504,19.4029487 27.2962107,19.4167949 27.2549173,19.4303846 C27.2678373,19.4391026 27.381584,19.5024359 27.4193307,19.5219231 M28.271544,19.3026923 C28.4465973,19.3932051 28.4093573,19.5008974 28.2201173,19.5801282 L28.2340507,19.5870513 C28.5410907,19.5316667 28.8562373,19.5373077 29.0624507,19.6442308 C29.3266773,19.7811538 29.1369307,19.9229487 28.7721307,20.0165385 C28.5996107,20.060641 28.301184,20.1288462 28.137024,20.170641 C28.0042773,20.2047436 27.886984,20.2424359 27.886984,20.2424359 L27.7332107,20.1742308 L27.879384,20.1183333 C27.8601307,20.1019231 27.7734907,20.0439744 27.7339707,20.0234615 L27.040344,19.6647436 C26.9607973,19.6234615 26.854144,19.5770513 26.7943573,19.5570513 L26.6035973,19.5873077 L26.468824,19.5065385 C26.468824,19.5065385 26.6058773,19.4791026 26.7388773,19.4452564 C26.8604773,19.4142308 27.1690373,19.3201282 27.2931707,19.2885897 C27.6328907,19.2016667 28.0529173,19.1896154 28.271544,19.3026923" id="Fill-67" fill="#E38526"></path>
                    <path d="M30.83662,18.17 L30.7114733,18.2397436 C30.7459267,18.254359 30.8576467,18.2961538 30.91186,18.3117949 L31.8583133,18.5833333 C31.9938467,18.6223077 32.1499,18.6561538 32.1922067,18.6648718 L32.3477533,18.6053846 L32.5430733,18.6694872 C32.5430733,18.6694872 32.3561133,18.7453846 32.11418,18.8569231 C32.0133533,18.9030769 31.91354,18.9594872 31.91354,18.9594872 L31.7129,18.91 L31.8220867,18.8353846 C31.7967533,18.8266667 31.66198,18.7751282 31.6077667,18.7597436 L30.66106,18.4879487 C30.5255267,18.4489744 30.3884733,18.4210256 30.3411,18.4102564 L30.1690867,18.4651282 L29.9763,18.4017949 C29.9763,18.4017949 30.1034733,18.3535897 30.2043,18.3069231 C30.4462333,18.1958974 30.60634,18.1117949 30.60634,18.1117949 L30.83662,18.17 Z" id="Fill-69" fill="#E38526"></path>
                    <path d="M33.283364,16.7342051 C33.2337107,16.7285641 33.103244,16.7152308 33.0497907,16.7129231 C33.035604,16.7124103 33.0019107,16.7129231 32.9644173,16.7129231 C32.935284,16.7331795 32.8901907,16.7644615 32.852444,16.7995897 L32.7880973,16.8593333 C32.835724,16.8701026 32.9727773,16.8977949 33.037124,16.9070256 L34.1606573,17.0672821 C34.3217773,17.0901026 34.497844,17.1057436 34.5452173,17.1098462 L34.646804,17.0365128 L34.8849373,17.0772821 C34.8849373,17.0772821 34.7666307,17.1695897 34.624004,17.3018974 C34.564724,17.3570256 34.513804,17.4213846 34.513804,17.4213846 L34.282004,17.3949744 L34.326844,17.3124103 C34.2959373,17.3062564 34.1256973,17.271641 34.0613507,17.2624103 L32.938324,17.1021538 C32.7807507,17.0795897 32.626724,17.0672821 32.569724,17.061641 L32.5101907,17.1165128 C32.472444,17.151641 32.4440707,17.1883077 32.4250707,17.2126667 C32.4524307,17.2218974 32.476244,17.2306154 32.4878973,17.2334359 C32.5312173,17.2452308 32.651804,17.2677949 32.6986707,17.2757436 L32.591764,17.3577949 L32.0663507,17.2736923 L32.032404,17.2429231 C32.032404,17.2429231 32.1831373,17.1375385 32.2084707,17.1139487 L32.6201373,16.7326667 C32.6452173,16.7093333 32.731604,16.5947179 32.731604,16.5947179 L32.813684,16.5806154 L33.3580973,16.6475385 L33.283364,16.7342051 Z" id="Fill-71" fill="#E38526"></path>
                    <path d="M35.8169507,15.0197179 C35.858244,15.1022821 35.9043507,15.1979231 35.8858573,15.3043333 C35.8359507,15.595359 35.2963507,15.7315128 34.5444573,15.7145897 C33.792564,15.6976667 33.3003373,15.5379231 33.3504973,15.2471538 C33.3689907,15.1392051 33.4449907,15.0589487 33.5138973,14.9789487 L34.1289907,15.0079231 L34.0985907,15.1040769 L33.8878173,15.1030513 C33.867044,15.1025385 33.7897773,15.1097179 33.7434173,15.1148462 C33.7038973,15.1656154 33.6795773,15.205359 33.670964,15.2543333 C33.6448707,15.4084359 34.0519773,15.4768974 34.5796707,15.4886923 C35.1076173,15.5007436 35.538284,15.4525385 35.564884,15.2984359 C35.5742573,15.2445897 35.5646307,15.1989487 35.539804,15.1420256 C35.516244,15.1386923 35.4017373,15.1186923 35.3743773,15.1179231 C35.3366307,15.1158718 35.2124973,15.1104872 35.2124973,15.1104872 L35.222124,15.0161282 L35.8169507,15.0197179 Z" id="Fill-73" fill="#E38526"></path>
                    <path d="M35.0084627,13.3991282 C34.9002893,13.2534872 34.5555027,13.2129744 33.9345827,13.274 C33.310116,13.3347692 33.0674227,13.4329744 33.1753427,13.578359 C33.2832627,13.7242564 33.6283027,13.7645128 34.2527693,13.7034872 C34.8736893,13.6424615 35.1161293,13.5445128 35.0084627,13.3991282 M35.3319693,13.3673333 C35.5272893,13.6306667 35.1657827,13.848359 34.414396,13.9216923 C33.6599693,13.9955385 33.046396,13.8734872 32.8513293,13.6098974 C32.656516,13.3468205 33.018276,13.1291282 33.7727027,13.0552821 C34.5240893,12.9816923 35.137156,13.1042564 35.3319693,13.3673333" id="Fill-75" fill="#E38526"></path>
                    <path d="M31.0367533,11.9079744 L31.17786,11.9736154 C31.2270067,11.9666923 31.3719133,11.9415641 31.4299267,11.9279744 L32.44326,11.6900256 C32.58842,11.6559231 32.7262333,11.613359 32.7629667,11.6015641 L32.6585933,11.5287436 L32.88862,11.4820769 C32.88862,11.4820769 33.02618,11.5713077 33.2379667,11.6902821 C33.3261267,11.7400256 33.4398733,11.7925897 33.4398733,11.7925897 L33.2460733,11.8456667 L33.0874867,11.7841282 C33.05658,11.7897692 32.8789933,11.8195128 32.82098,11.8331026 L31.8076467,12.0710513 C31.66274,12.1051538 31.5451933,12.1431026 31.50238,12.1561795 L31.5895267,12.2331026 L31.3620333,12.2787436 C31.3620333,12.2787436 31.27742,12.2195128 31.18926,12.1697692 C30.9774733,12.0507949 30.81078,11.9684872 30.81078,11.9684872 L31.0367533,11.9079744 Z" id="Fill-77" fill="#E38526"></path>
                    <path d="M27.2466587,10.5175128 L27.4358987,10.5644359 C27.4678187,10.5544359 27.594232,10.5121282 27.6380587,10.4928974 L28.829992,9.96725641 L29.1899787,10.0752051 L29.0676187,10.771359 L29.6328053,10.5221282 C29.742752,10.4736667 29.844592,10.4128974 29.8638453,10.4023846 L29.7034853,10.3446923 L29.884112,10.2749487 C29.884112,10.2749487 30.0143253,10.3221282 30.315792,10.412641 C30.441192,10.4498205 30.5934453,10.4875128 30.5934453,10.4875128 L30.4530987,10.5593077 L30.250432,10.5182821 C30.2210453,10.5272564 30.0812053,10.5752051 30.037632,10.5944359 L29.2702853,10.9328974 C29.1603387,10.9816154 29.0688853,11.0357179 29.0501387,11.0477692 L29.197072,11.111359 L29.0189787,11.1800769 C29.0189787,11.1800769 28.8882587,11.1328974 28.763112,11.0954615 L28.491032,11.0139231 L28.4844453,10.9793077 C28.4844453,10.9793077 28.5665253,10.7987949 28.5748853,10.7654615 L28.6630453,10.2918718 L28.0428853,10.5654615 C27.961312,10.601359 27.8528853,10.6628974 27.8227387,10.6803333 L27.969672,10.7439231 L27.7915787,10.8123846 L27.5359653,10.7277692 C27.3196187,10.6628974 27.081992,10.5998205 27.081992,10.5998205 L27.2466587,10.5175128 Z" id="Fill-79" fill="#E38526"></path>
                    <path d="M18.853016,10.0978462 C26.2832827,10.0978462 32.306536,12.2870769 32.306536,14.9875897 C32.306536,17.6886154 26.2832827,19.8778462 18.853016,19.8778462 C11.4230027,19.8778462 5.39974933,17.6886154 5.39974933,14.9875897 C5.39974933,12.2870769 11.4230027,10.0978462 18.853016,10.0978462" id="Fill-81" fill="#E59125"></path>
                    <path d="M18.853016,10.2778718 C26.0094293,10.2778718 31.8107627,12.3865897 31.8107627,14.9876154 C31.8107627,17.5888974 26.0094293,19.697359 18.853016,19.697359 C11.6966027,19.697359 5.89526933,17.5888974 5.89526933,14.9876154 C5.89526933,12.3865897 11.6966027,10.2778718 18.853016,10.2778718" id="Fill-83" fill="#F2AB29"></path>
                    <path d="M19.3393907,15.5195128 L19.3393907,14.7556667 C19.3393907,14.0918205 20.659004,13.7443846 21.9626573,13.7443846 C23.6551773,13.7443846 24.6654707,14.1602821 24.6654707,14.8566923 L24.6654707,15.5195128 L19.3393907,15.5195128 Z M18.105404,14.7410513 L18.105404,15.5195128 L13.176804,15.5195128 L13.176804,14.8566923 C13.176804,14.3013077 14.0457373,13.9828462 15.561684,13.9828462 C17.2316573,13.9828462 18.105404,14.3641282 18.105404,14.7410513 Z M21.9428973,12.8982308 C19.955244,12.8982308 18.780284,13.4774615 18.5444307,14.1002821 C18.2941373,13.7456667 17.5607373,13.1366923 15.481884,13.1366923 C13.3247507,13.1366923 12.026924,13.6828462 11.862004,14.643359 L10.6181373,14.643359 L10.6181373,15.0543846 L10.6181373,15.1477179 L11.8432573,15.1477179 L11.8432573,15.5195128 L10.6181373,15.5195128 L10.6181373,15.529 L10.6181373,15.9397692 L10.6181373,16.0236154 L11.8432573,16.0236154 L11.8432573,16.9438718 L11.8432573,17.0769487 L13.3419773,17.0769487 L13.3419773,16.3382308 L24.5002973,16.3382308 L24.5002973,17.0654103 L25.9990173,17.0654103 L25.9990173,17.024641 L25.9990173,16.0236154 L27.0880973,16.0236154 L27.0880973,15.5195128 L25.9990173,15.5195128 L25.9990173,15.1477179 L27.087844,15.1477179 L27.087844,14.643359 L25.988884,14.643359 C25.9085773,13.7892564 25.260044,12.8982308 21.9428973,12.8982308 Z" id="Fill-85" fill="#E38526"></path>
                    <path d="M9.37107867,9.06717949 L35.1447053,18.4353846 C35.9573987,17.9271795 36.6033987,17.3728205 37.0462253,16.7782051 C37.460172,16.2228205 37.6724653,15.6646154 37.7015987,15.1141026 L18.5047587,8.13641026 C15.2486653,8.15794872 12.110372,8.48769231 9.37107867,9.06717949" id="Fill-87" fill="#FEE46F"></path>
                    <path d="M33.0834587,19.4821026 C33.5964587,19.268 34.0752587,19.0410769 34.5150453,18.8026154 L8.36141867,9.29620513 C7.709592,9.45517949 7.08385867,9.62851282 6.48928533,9.81594872 L33.0834587,19.4821026 Z" id="Fill-89" fill="#FEE46F"></path>
                    <path d="M0.00912,11.3453333 C0.00684,12.567641 0.01216,15.4253333 0.01216,15.4253333 L0.0331866667,15.4253333 C0.498306667,18.2843077 5.90216,20.8430256 13.9267467,21.6327692 C21.1315467,22.342 28.4913867,21.4322564 33.0830533,19.5143077 L33.08356,19.5145641 C33.0868533,19.5130256 33.0904,19.5114872 33.0939467,19.5102051 C33.1248533,19.4971282 33.1547467,19.4835385 33.1854,19.4704615 C33.33284,19.4078974 33.4767333,19.3443077 33.6180933,19.2794359 C33.6621733,19.2594359 33.7065067,19.2394359 33.7498267,19.2191795 C33.9101867,19.1440513 34.0667467,19.067641 34.219,18.9899487 C34.2494,18.9745641 34.2785333,18.9586667 34.3084267,18.9432821 C34.3775867,18.9071282 34.4475067,18.8714872 34.5151467,18.8348205 L34.51084,18.8332821 C34.73124,18.7140513 34.9427733,18.5922564 35.14316,18.4668718 L35.14468,18.467641 C35.1578533,18.4594359 35.16976,18.4512308 35.18268,18.4430256 C35.2325867,18.4114872 35.2809733,18.3796923 35.3296133,18.347641 C35.4208133,18.2878974 35.50948,18.227641 35.59612,18.1668718 C35.6346267,18.1394359 35.6744,18.1127692 35.7121467,18.0853333 C35.8251333,18.0030256 35.9328,17.9194359 36.0374267,17.8350769 C36.0728933,17.8058462 36.1078533,17.7768718 36.14256,17.747641 C36.2347733,17.6702051 36.3239467,17.592 36.40856,17.5130256 C36.4247733,17.497641 36.4422533,17.4830256 36.4582133,17.4678974 C36.5562533,17.3745641 36.6472,17.2796923 36.7346,17.1840513 C36.7571467,17.1594359 36.7791867,17.1345641 36.80072,17.1096923 C36.8876133,17.0112308 36.97096,16.9117436 37.0462,16.8104615 C37.0943333,16.7461026 37.1386667,16.6817436 37.1812267,16.617641 C37.19364,16.5986667 37.2052933,16.5796923 37.2172,16.5609744 C37.24684,16.5143077 37.2754667,16.4678974 37.30232,16.4212308 C37.3142267,16.4009744 37.3253733,16.3807179 37.3367733,16.3602051 C37.3628667,16.3125128 37.3876933,16.2650769 37.411,16.217641 C37.41936,16.2004615 37.4279733,16.1832821 37.43608,16.166359 C37.4644533,16.1058462 37.4905467,16.0458462 37.51436,15.9855897 C37.51588,15.982 37.5176533,15.9781538 37.51892,15.9748205 C37.57212,15.8381538 37.6134133,15.702 37.6438133,15.5658462 C37.6448267,15.5607179 37.64584,15.5558462 37.6468533,15.5507179 C37.6559733,15.5089231 37.6623067,15.4671282 37.6691467,15.4253333 L37.7015733,15.4253333 L37.7015733,11.3453333 L0.00912,11.3453333 Z" id="Fill-91" fill="#E59123"></path>
                    <path d="M0.0113493333,11.2744615 C0.011856,11.6036923 0.0121093333,11.8129231 0.0121093333,11.8129231 L0.033136,11.8129231 C0.498256,14.671641 5.90210933,17.230359 13.9269493,18.020359 C21.131496,18.7290769 28.491336,17.8195897 33.0830027,15.901641 L33.0835093,15.9018974 L33.093896,15.8972821 C33.1248027,15.8844615 33.154696,15.8711282 33.1853493,15.8577949 C33.3327893,15.7954872 33.476936,15.731641 33.6180427,15.6670256 C33.6621227,15.6467692 33.706456,15.6267692 33.749776,15.6065128 C33.9103893,15.531641 34.0669493,15.4552308 34.2189493,15.3772821 C34.2493493,15.3618974 34.278736,15.3462564 34.308376,15.330359 C34.377536,15.2944615 34.4477093,15.2588205 34.515096,15.2221538 L34.5110427,15.2208718 C34.7311893,15.1013846 34.942976,14.9793333 35.1431093,14.8544615 L35.1448827,14.8549744 C35.1578027,14.8470256 35.1697093,14.8383077 35.1826293,14.830359 C35.232536,14.7988205 35.281176,14.7667692 35.3295627,14.7349744 C35.4207627,14.6752308 35.5094293,14.6147179 35.5960693,14.5539487 C35.634576,14.5270256 35.6743493,14.5001026 35.712096,14.4726667 C35.8250827,14.3901026 35.9327493,14.3067692 36.037376,14.2224103 C36.073096,14.1934359 36.1078027,14.1642051 36.1425093,14.1347179 C36.2347227,14.0575385 36.323896,13.9793333 36.4085093,13.9001026 C36.4247227,13.8852308 36.442456,13.870359 36.4581627,13.8549744 C36.5562027,13.761641 36.6471493,13.6670256 36.7345493,13.5713846 C36.757096,13.5467692 36.779136,13.5221538 36.8009227,13.4972821 C36.8875627,13.3985641 36.9711627,13.2990769 37.0461493,13.1980513 C37.0942827,13.1336923 37.1388693,13.0693333 37.1814293,13.0049744 C37.1935893,12.986 37.2052427,12.9672821 37.2171493,12.9480513 C37.2467893,12.9018974 37.2756693,12.8552308 37.3022693,12.8085641 C37.314176,12.7880513 37.3253227,12.7677949 37.3367227,12.7475385 C37.362816,12.7001026 37.3876427,12.6524103 37.4109493,12.6047179 C37.4193093,12.5877949 37.4279227,12.5708718 37.4360293,12.5534359 C37.4644027,12.4934359 37.490496,12.4331795 37.5143093,12.3729231 C37.5158293,12.3693333 37.5176027,12.3657436 37.5191227,12.3618974 C37.5723227,12.2254872 37.613616,12.0893333 37.6437627,11.9531795 C37.6450293,11.9483077 37.6460427,11.9429231 37.647056,11.9380513 C37.656176,11.8962564 37.662256,11.8544615 37.669096,11.8129231 L37.7015227,11.8129231 L37.7015227,11.2744615 L0.0113493333,11.2744615 Z" id="Fill-93" fill="#CC791F"></path>
                    <g id="Group-97" transform="translate(0.000000, 4.110256)">
                        <mask id="mask-6" fill="white">
                            <use xlink:href="#path-5"></use>
                        </mask>
                        <g id="Clip-96"></g>
                        <path d="M23.779412,0.325282051 C33.827372,1.31425641 39.7670253,5.0765641 37.0462253,8.72861538 C34.3256787,12.3809231 23.974732,14.5398974 13.926772,13.5509231 C3.878812,12.5622051 -2.06084133,8.79964103 0.659705333,5.14758974 C3.38075867,1.49528205 13.7317053,-0.663435897 23.779412,0.325282051" id="Fill-95" fill="#FCCC2E" mask="url(#mask-6)"></path>
                    </g>
                    <path d="M10.13156,16.0921795 L10.7833867,15.7234615 C10.8654667,15.6770513 10.9624933,15.6173077 10.9858,15.6019231 C10.93716,15.5875641 10.88396,15.5737179 10.8287333,15.5608974 C10.61948,15.5119231 10.3892,15.5283333 10.24176,15.6119231 C10.0750667,15.7057692 10.1888133,15.7742308 10.40668,15.825 L10.4358133,15.8316667 L10.2529067,15.9188462 L10.2354267,15.915 C10.04644,15.8708974 9.85086667,15.8860256 9.69557333,15.9739744 C9.58917333,16.0339744 9.63021333,16.1108974 9.81033333,16.1529487 C9.85998667,16.1644872 9.91014667,16.1732051 9.96030667,16.1821795 C9.97829333,16.1742308 10.0960933,16.1121795 10.13156,16.0921795 M9.25173333,15.8880769 C9.4164,15.7952564 9.70444,15.7667949 9.97728,15.800641 L9.9902,15.7934615 C9.73332,15.7111538 9.62869333,15.6029487 9.823,15.4929487 C10.07152,15.3526923 10.5052267,15.3626923 10.88016,15.4503846 C11.0574933,15.4916667 11.3442667,15.5662821 11.5129867,15.6057692 C11.6495333,15.6378205 11.78988,15.6629487 11.78988,15.6629487 L11.6738533,15.7403846 L11.4770133,15.7124359 C11.4420533,15.725 11.3272933,15.7760256 11.2900533,15.7970513 L10.6379733,16.1657692 C10.56324,16.2078205 10.4854667,16.2614103 10.45684,16.2891026 L10.6060533,16.3419231 L10.45152,16.4178205 C10.45152,16.4178205 10.32992,16.3819231 10.1933733,16.3498718 C10.0682267,16.3208974 9.71254667,16.2526923 9.58461333,16.2226923 C9.23602667,16.1411538 9.04628,16.0042308 9.25173333,15.8880769" id="Fill-98" fill="#E38526"></path>
                    <path d="M5.738076,14.8048718 L5.90096933,14.8635897 C5.94732933,14.8541026 6.08210267,14.8225641 6.13504933,14.8064103 L7.05794267,14.5241026 C7.19018267,14.4835897 7.31228933,14.4348718 7.344716,14.4217949 L7.21576933,14.354359 L7.428316,14.2974359 C7.428316,14.2974359 7.59500933,14.3794872 7.84656933,14.4882051 C7.951196,14.5333333 8.08242267,14.5802564 8.08242267,14.5802564 L7.90838267,14.6415385 L7.72978267,14.5879487 C7.70090267,14.5951282 7.53522267,14.6325641 7.48252933,14.6489744 L6.55938267,14.9312821 C6.427396,14.9715385 6.324036,15.0146154 6.286036,15.0297436 L6.39876933,15.1017949 L6.18926267,15.1576923 C6.18926267,15.1576923 6.084636,15.1028205 5.98000933,15.0574359 C5.72870267,14.9489744 5.53490267,14.8751282 5.53490267,14.8751282 L5.738076,14.8048718 Z" id="Fill-100" fill="#E38526"></path>
                    <path d="M3.48082533,13.0781026 C3.434212,13.0865641 3.315652,13.1101538 3.273092,13.1219487 C3.261692,13.1252821 3.238132,13.1342564 3.21178533,13.1437436 C3.22951867,13.1655385 3.257132,13.1993846 3.297412,13.234 L3.365812,13.2932308 C3.42078533,13.2888718 3.57202533,13.274 3.635612,13.2645128 L4.74799867,13.0945128 C4.90734533,13.0704103 5.063652,13.0370769 5.105452,13.0278462 L5.037812,12.949641 L5.28658533,12.9186154 C5.28658533,12.9186154 5.37879867,13.0147692 5.53003867,13.1455385 C5.59311867,13.2001538 5.67975867,13.2588718 5.67975867,13.2588718 L5.463412,13.2988718 L5.33674533,13.2281026 C5.30355867,13.2319487 5.11431867,13.2498974 5.05098533,13.259641 L3.938852,13.4291282 C3.782292,13.4529744 3.648532,13.4829744 3.59710533,13.4934872 L3.659932,13.5481026 C3.69970533,13.5827179 3.74986533,13.6160513 3.78279867,13.638359 C3.82003867,13.6381026 3.85398533,13.638359 3.86791867,13.6375897 C3.92111867,13.6347692 4.05107867,13.6204103 4.099972,13.6145128 L4.18027867,13.7001538 L3.64194533,13.7727179 L3.55910533,13.7593846 C3.55910533,13.7593846 3.465372,13.6457949 3.43851867,13.6227179 L3.00278533,13.2450256 C2.975932,13.2219487 2.818612,13.1178462 2.818612,13.1178462 L2.85027867,13.0870769 L3.368852,12.9973333 L3.48082533,13.0781026 Z" id="Fill-102" fill="#E38526"></path>
                    <path d="M4.24181333,11.0959231 C4.31376,11.1759231 4.39533333,11.2679744 4.41737333,11.3743846 C4.47817333,11.6651538 3.99557333,11.8269487 3.24444,11.8477179 C2.49356,11.8682308 1.94585333,11.734641 1.88530667,11.4441282 C1.86276,11.3361795 1.90810667,11.253359 1.94610667,11.1705385 L2.56601333,11.1682308 L2.57209333,11.2651538 L2.36284,11.274641 C2.34206667,11.2754103 2.26834667,11.2861795 2.22477333,11.2936154 C2.20450667,11.3461795 2.19564,11.3866923 2.20577333,11.4351538 C2.23794667,11.5892564 2.66684,11.6366923 3.19377333,11.6223333 C3.72121333,11.6077179 4.12958667,11.5387436 4.09741333,11.3843846 C4.08626667,11.3305385 4.05966667,11.2859231 4.01356,11.2305385 C3.98873333,11.229 3.86789333,11.214641 3.84028,11.2154103 C3.80228,11.2151538 3.67764,11.2159231 3.67764,11.2159231 L3.65129333,11.1223333 L4.24181333,11.0959231 Z" id="Fill-104" fill="#E38526"></path>
                    <path d="M4.56937333,9.65989744 C4.67678667,9.51425641 4.43358667,9.4165641 3.81216,9.35605128 C3.18769333,9.29553846 2.84290667,9.33605128 2.736,9.48194872 C2.62909333,9.62758974 2.87204,9.72553846 3.49676,9.78605128 C4.11793333,9.84630769 4.46246667,9.80553846 4.56937333,9.65989744 M4.89338667,9.6914359 C4.70009333,9.95476923 4.08778667,10.0775897 3.33614667,10.0045128 C2.58121333,9.9314359 2.21844,9.714 2.41198667,9.45066667 C2.60528,9.18707692 3.21784,9.06451282 3.97277333,9.13758974 C4.72416,9.21066667 5.08693333,9.42784615 4.89338667,9.6914359" id="Fill-106" fill="#E38526"></path>
                    <path d="M5.17349733,7.56702564 L5.06557733,7.64061538 C5.103324,7.65420513 5.224924,7.69215385 5.28293733,7.706 L6.291964,7.94625641 C6.43661733,7.98061538 6.60027067,8.00933333 6.644604,8.01676923 L6.785204,7.95266667 L6.99547067,8.01035897 C6.99547067,8.01035897 6.82751067,8.09189744 6.613444,8.21061538 C6.52427067,8.26010256 6.43839067,8.31933333 6.43839067,8.31933333 L6.22635067,8.27625641 L6.31679067,8.1985641 C6.289684,8.19087179 6.143004,8.14369231 6.085244,8.12984615 L5.07571067,7.88958974 C4.93131067,7.85497436 4.787924,7.83138462 4.737764,7.82241026 L4.57993733,7.88241026 L4.37245733,7.82574359 C4.37245733,7.82574359 4.48747067,7.7734359 4.576644,7.72394872 C4.79045733,7.60497436 4.92979067,7.51676923 4.92979067,7.51676923 L5.17349733,7.56702564 Z" id="Fill-108" fill="#E38526"></path>
                    <path d="M9.51281867,5.99828205 L9.347392,6.05597436 C9.36765867,6.06905128 9.45404533,6.12264103 9.497112,6.14238462 L10.662192,6.67546154 L10.2971387,6.78084615 L8.45033867,6.59238462 L9.00260533,6.84520513 C9.110272,6.89417949 9.252392,6.94315385 9.27645867,6.95212821 L9.46544533,6.90725641 L9.61516533,6.98597436 C9.61516533,6.98597436 9.46088533,7.02238462 9.15536533,7.11058974 C9.028192,7.14725641 8.89544533,7.19366667 8.89544533,7.19366667 L8.73153867,7.12879487 L8.884552,7.06546154 C8.86605867,7.05289744 8.766752,6.99341026 8.72368533,6.97392308 L7.97356533,6.63058974 C7.86589867,6.58135897 7.73948533,6.53776923 7.710352,6.52853846 L7.508952,6.56751282 L7.36100533,6.48982051 C7.36100533,6.48982051 7.51528533,6.45315385 7.64245867,6.41674359 L7.91833867,6.33674359 L8.012832,6.34187179 C8.012832,6.34187179 8.48124533,6.40853846 8.56889867,6.41853846 L9.82416533,6.54853846 L9.21793867,6.27110256 C9.13813867,6.23469231 8.99449867,6.18341026 8.95497867,6.16905128 L8.75332533,6.20802564 L8.60537867,6.13058974 L8.886832,6.057 C9.10596533,5.99366667 9.32509867,5.92264103 9.32509867,5.92264103 L9.51281867,5.99828205 Z" id="Fill-110" fill="#E38526"></path>
                    <path d="M27.4193307,15.5826154 L28.112704,15.9413333 C28.200104,15.9864615 28.3151173,16.0418462 28.3457707,16.0554359 C28.400744,16.0444103 28.4567307,16.0318462 28.510184,16.018 C28.713864,15.9659487 28.7592107,15.882359 28.602144,15.8010769 C28.4253173,15.7095385 28.2082107,15.7218462 27.9959173,15.7762051 L27.9677973,15.7833846 L27.8150373,15.6887692 L27.8320107,15.6844103 C28.0156773,15.6374872 28.0501307,15.5659487 27.8852107,15.4805641 C27.7719707,15.4218462 27.560944,15.4064615 27.385384,15.4513333 C27.337504,15.463641 27.2962107,15.4772308 27.2549173,15.4910769 C27.2678373,15.4997949 27.381584,15.5631282 27.4193307,15.5826154 M28.271544,15.3633846 C28.4465973,15.4538974 28.4093573,15.5615897 28.2201173,15.6408205 L28.2340507,15.6477436 C28.5410907,15.592359 28.8562373,15.598 29.0624507,15.7049231 C29.3266773,15.8415897 29.1369307,15.983641 28.7721307,16.0769744 C28.5996107,16.1213333 28.301184,16.1895385 28.137024,16.2313333 C28.0042773,16.2654359 27.886984,16.3031282 27.886984,16.3031282 L27.7332107,16.2346667 L27.879384,16.1790256 C27.8601307,16.1626154 27.7734907,16.1046667 27.7339707,16.0841538 L27.040344,15.7254359 C26.9607973,15.6841538 26.854144,15.6377436 26.7943573,15.6177436 L26.6035973,15.648 L26.468824,15.5672308 C26.468824,15.5672308 26.6058773,15.5397949 26.7388773,15.5059487 C26.8604773,15.4749231 27.1690373,15.3808205 27.2931707,15.3490256 C27.6328907,15.262359 28.0529173,15.2503077 28.271544,15.3633846" id="Fill-112" fill="#E38526"></path>
                    <path d="M30.83662,14.2306923 L30.7114733,14.3004359 C30.7459267,14.3150513 30.8576467,14.3568462 30.91186,14.3724872 L31.8583133,14.6440256 C31.9938467,14.683 32.1499,14.7168462 32.1922067,14.7255641 L32.3477533,14.6660769 L32.5430733,14.7301795 C32.5430733,14.7301795 32.3561133,14.8060769 32.11418,14.9176154 C32.0133533,14.9637692 31.91354,15.0199231 31.91354,15.0199231 L31.7129,14.9706923 L31.8220867,14.8960769 C31.7967533,14.887359 31.66198,14.8358205 31.6077667,14.8204359 L30.66106,14.5483846 C30.5255267,14.5096667 30.3884733,14.4817179 30.3411,14.4709487 L30.1690867,14.5255641 L29.9763,14.4624872 C29.9763,14.4624872 30.1034733,14.4142821 30.2043,14.3676154 C30.4462333,14.2565897 30.60634,14.1724872 30.60634,14.1724872 L30.83662,14.2306923 Z" id="Fill-114" fill="#E38526"></path>
                    <path d="M33.283364,12.7948974 C33.2337107,12.7892564 33.103244,12.7759231 33.0497907,12.7736154 C33.035604,12.7731026 33.0019107,12.7736154 32.9644173,12.7736154 C32.935284,12.7938718 32.8901907,12.8251538 32.852444,12.8602821 L32.7880973,12.9200256 C32.835724,12.9307949 32.9727773,12.9584872 33.037124,12.9677179 L34.1606573,13.1279744 C34.3217773,13.1507949 34.497844,13.1664359 34.5452173,13.1705385 L34.646804,13.0972051 L34.8849373,13.1379744 C34.8849373,13.1379744 34.7666307,13.2302821 34.624004,13.3625897 C34.564724,13.4177179 34.513804,13.4820769 34.513804,13.4820769 L34.282004,13.4556667 L34.326844,13.3731026 C34.2959373,13.3669487 34.1256973,13.3320769 34.0613507,13.3231026 L32.938324,13.1628462 C32.7807507,13.1402821 32.626724,13.1277179 32.569724,13.1223333 L32.5101907,13.1772051 C32.472444,13.2123333 32.4440707,13.249 32.4250707,13.2731026 C32.4524307,13.2823333 32.476244,13.2913077 32.4878973,13.2941282 C32.5312173,13.3059231 32.651804,13.3284872 32.6986707,13.3364359 L32.591764,13.4184872 L32.0663507,13.3341282 L32.032404,13.303359 C32.032404,13.303359 32.1831373,13.1979744 32.2084707,13.174641 L32.6201373,12.793359 C32.6452173,12.7700256 32.731604,12.6554103 32.731604,12.6554103 L32.813684,12.6413077 L33.3580973,12.7082308 L33.283364,12.7948974 Z" id="Fill-116" fill="#E38526"></path>
                    <path d="M35.8169507,11.0804103 C35.858244,11.1629744 35.9043507,11.2586154 35.8858573,11.3650256 C35.8359507,11.6560513 35.2963507,11.7922051 34.5444573,11.7752821 C33.792564,11.758359 33.3003373,11.5986154 33.3504973,11.3078462 C33.3689907,11.1998974 33.4449907,11.119641 33.5138973,11.039641 L34.1289907,11.0686154 L34.0985907,11.1647692 L33.8878173,11.1637436 C33.867044,11.1632308 33.7897773,11.1704103 33.7434173,11.1755385 C33.7038973,11.2260513 33.6795773,11.2660513 33.670964,11.3147692 C33.6448707,11.4691282 34.0519773,11.5375897 34.5796707,11.5493846 C35.1076173,11.5614359 35.538284,11.5132308 35.564884,11.3591282 C35.5742573,11.3052821 35.5646307,11.259641 35.539804,11.2027179 C35.516244,11.1993846 35.4017373,11.1793846 35.3743773,11.1786154 C35.3366307,11.1765641 35.2124973,11.1711795 35.2124973,11.1711795 L35.222124,11.0768205 L35.8169507,11.0804103 Z" id="Fill-118" fill="#E38526"></path>
                    <path d="M35.0084627,9.45982051 C34.9002893,9.31417949 34.5555027,9.27366667 33.9345827,9.33469231 C33.310116,9.39546154 33.0674227,9.49341026 33.1753427,9.63905128 C33.2832627,9.78469231 33.6283027,9.82520513 34.2527693,9.76417949 C34.8736893,9.70315385 35.1161293,9.60520513 35.0084627,9.45982051 M35.3319693,9.42802564 C35.5272893,9.69135897 35.1657827,9.90905128 34.414396,9.98238462 C33.6599693,10.0562308 33.046396,9.93417949 32.8513293,9.67058974 C32.656516,9.40751282 33.018276,9.18982051 33.7727027,9.11597436 C34.5240893,9.04238462 35.137156,9.16494872 35.3319693,9.42802564" id="Fill-120" fill="#E38526"></path>
                    <path d="M31.0367533,7.96869231 L31.17786,8.03433333 C31.2270067,8.02741026 31.3719133,8.00228205 31.4299267,7.98869231 L32.44326,7.75048718 C32.58842,7.71664103 32.7262333,7.67382051 32.7629667,7.66228205 L32.6585933,7.58946154 L32.88862,7.54279487 C32.88862,7.54279487 33.02618,7.63202564 33.2379667,7.751 C33.3261267,7.80074359 33.4398733,7.85330769 33.4398733,7.85330769 L33.2460733,7.90638462 L33.0874867,7.84484615 C33.05658,7.85048718 32.8789933,7.88023077 32.82098,7.89382051 L31.8076467,8.13176923 C31.66274,8.16587179 31.5451933,8.20382051 31.50238,8.21689744 L31.5895267,8.29382051 L31.3620333,8.33946154 C31.3620333,8.33946154 31.27742,8.28023077 31.18926,8.23048718 C30.9774733,8.11151282 30.81078,8.02920513 30.81078,8.02920513 L31.0367533,7.96869231 Z" id="Fill-122" fill="#E38526"></path>
                    <path d="M27.2466587,6.57820513 L27.4358987,6.62512821 C27.4678187,6.61512821 27.594232,6.57282051 27.6380587,6.55358974 L28.829992,6.02794872 L29.1899787,6.13589744 L29.0676187,6.83205128 L29.6328053,6.58282051 C29.742752,6.53435897 29.844592,6.47358974 29.8638453,6.46307692 L29.7034853,6.40538462 L29.884112,6.33564103 C29.884112,6.33564103 30.0143253,6.38282051 30.315792,6.47307692 C30.441192,6.51051282 30.5934453,6.54820513 30.5934453,6.54820513 L30.4530987,6.62 L30.250432,6.57897436 C30.2210453,6.58794872 30.0812053,6.63589744 30.037632,6.65512821 L29.2702853,6.99358974 C29.1603387,7.04230769 29.0688853,7.09641026 29.0501387,7.10846154 L29.197072,7.17205128 L29.0189787,7.24076923 C29.0189787,7.24076923 28.8882587,7.19358974 28.763112,7.15615385 L28.491032,7.07461538 L28.4844453,7.04 C28.4844453,7.04 28.5665253,6.85948718 28.5748853,6.82615385 L28.6630453,6.3525641 L28.0428853,6.62615385 C27.961312,6.66179487 27.8528853,6.72358974 27.8227387,6.74102564 L27.969672,6.80461538 L27.7915787,6.87307692 L27.5359653,6.78846154 C27.3196187,6.72358974 27.081992,6.66051282 27.081992,6.66051282 L27.2466587,6.57820513 Z" id="Fill-124" fill="#E38526"></path>
                    <path d="M18.853016,6.15853846 C26.2832827,6.15853846 32.306536,8.34776923 32.306536,11.0482821 C32.306536,13.7493077 26.2832827,15.9385385 18.853016,15.9385385 C11.4230027,15.9385385 5.39974933,13.7493077 5.39974933,11.0482821 C5.39974933,8.34776923 11.4230027,6.15853846 18.853016,6.15853846" id="Fill-126" fill="#E59125"></path>
                    <path d="M18.853016,6.3385641 C26.0094293,6.3385641 31.8107627,8.44728205 31.8107627,11.0483077 C31.8107627,13.6495897 26.0094293,15.7580513 18.853016,15.7580513 C11.6966027,15.7580513 5.89526933,13.6495897 5.89526933,11.0483077 C5.89526933,8.44728205 11.6966027,6.3385641 18.853016,6.3385641" id="Fill-128" fill="#F2AB29"></path>
                    <path d="M19.3393907,11.5802051 L19.3393907,10.816359 C19.3393907,10.1525128 20.659004,9.80482051 21.9626573,9.80482051 C23.6551773,9.80482051 24.6654707,10.2207179 24.6654707,10.9173846 L24.6654707,11.5802051 L19.3393907,11.5802051 Z M18.105404,10.8017436 L18.105404,11.5802051 L13.176804,11.5802051 L13.176804,10.9173846 C13.176804,10.362 14.0457373,10.0435385 15.561684,10.0435385 C17.2316573,10.0435385 18.105404,10.4248205 18.105404,10.8017436 Z M21.9428973,8.95892308 C19.955244,8.95892308 18.780284,9.53815385 18.5444307,10.1609744 C18.2941373,9.80635897 17.5607373,9.19738462 15.481884,9.19738462 C13.3247507,9.19738462 12.026924,9.74353846 11.862004,10.7040513 L10.6181373,10.7040513 L10.6181373,11.1150769 L10.6181373,11.2081538 L11.8432573,11.2081538 L11.8432573,11.5802051 L10.6181373,11.5802051 L10.6181373,11.5894359 L10.6181373,12.0004615 L10.6181373,12.0843077 L11.8432573,12.0843077 L11.8432573,13.0045641 L11.8432573,13.137641 L13.3419773,13.137641 L13.3419773,12.3989231 L24.5002973,12.3989231 L24.5002973,13.1261026 L25.9990173,13.1261026 L25.9990173,13.0853333 L25.9990173,12.0843077 L27.0880973,12.0843077 L27.0880973,11.5802051 L25.9990173,11.5802051 L25.9990173,11.2081538 L27.087844,11.2081538 L27.087844,10.7040513 L25.988884,10.7040513 C25.9085773,9.84994872 25.260044,8.95892308 21.9428973,8.95892308 Z" id="Fill-130" fill="#E38526"></path>
                    <path d="M9.37107867,5.12787179 L35.1447053,14.4958205 C35.9573987,13.9878718 36.6033987,13.4335128 37.0462253,12.8388974 C37.460172,12.2832564 37.6724653,11.7253077 37.7015987,11.1747949 L18.5047587,4.19710256 C15.2486653,4.21864103 12.110372,4.54838462 9.37107867,5.12787179" id="Fill-132" fill="#FEE46F"></path>
                    <path d="M33.0834587,15.5427949 C33.5964587,15.3286923 34.0752587,15.1017692 34.5150453,14.8633077 L8.36141867,5.35689744 C7.709592,5.51587179 7.08385867,5.68920513 6.48928533,5.87664103 L33.0834587,15.5427949 Z" id="Fill-134" fill="#FEE46F"></path>
                    <path d="M0.00912,7.40602564 C0.00684,8.62833333 0.01216,11.4860256 0.01216,11.4860256 L0.0331866667,11.4860256 C0.498306667,14.345 5.90216,16.9037179 13.9267467,17.6934615 C21.1315467,18.4026923 28.4913867,17.4929487 33.0830533,15.575 L33.08356,15.575 C33.0868533,15.5737179 33.0904,15.5721795 33.0939467,15.5708974 C33.1248533,15.5578205 33.1547467,15.5442308 33.1854,15.5311538 C33.33284,15.4685897 33.4767333,15.405 33.6180933,15.3401282 C33.6621733,15.3201282 33.7065067,15.3001282 33.7498267,15.2798718 C33.9101867,15.2047436 34.0667467,15.1283333 34.219,15.050641 C34.2494,15.0352564 34.2785333,15.019359 34.3084267,15.0039744 C34.3775867,14.9678205 34.4475067,14.9321795 34.5151467,14.8955128 L34.51084,14.8939744 C34.73124,14.7747436 34.9427733,14.6529487 35.14316,14.5275641 L35.14468,14.5283333 C35.1578533,14.5201282 35.16976,14.5119231 35.18268,14.5037179 C35.2325867,14.4721795 35.2809733,14.4403846 35.3296133,14.4083333 C35.4208133,14.3485897 35.50948,14.2883333 35.59612,14.2275641 C35.6346267,14.2001282 35.6744,14.1734615 35.7121467,14.1460256 C35.8251333,14.0637179 35.9328,13.9801282 36.0374267,13.8957692 C36.0728933,13.8665385 36.1078533,13.8375641 36.14256,13.8083333 C36.2347733,13.7308974 36.3239467,13.6526923 36.40856,13.5737179 C36.4247733,13.5583333 36.4422533,13.5437179 36.4582133,13.5283333 C36.5562533,13.4352564 36.6472,13.3403846 36.7346,13.2447436 C36.7571467,13.2201282 36.7791867,13.1952564 36.80072,13.1703846 C36.8876133,13.0719231 36.97096,12.9724359 37.0462,12.8711538 C37.0943333,12.8067949 37.1386667,12.7424359 37.1812267,12.6783333 C37.19364,12.659359 37.2052933,12.6403846 37.2172,12.6216667 C37.24684,12.575 37.2754667,12.5285897 37.30232,12.4819231 C37.3142267,12.4616667 37.3253733,12.4414103 37.3367733,12.4208974 C37.3628667,12.3732051 37.3876933,12.3257692 37.411,12.2783333 C37.41936,12.2611538 37.4279733,12.2439744 37.43608,12.2270513 C37.4644533,12.1665385 37.4905467,12.1062821 37.51436,12.0462821 C37.51588,12.0426923 37.5176533,12.0388462 37.51892,12.0355128 C37.57212,11.8988462 37.6134133,11.7624359 37.6438133,11.6265385 C37.6448267,11.6214103 37.64584,11.6165385 37.6468533,11.6114103 C37.6559733,11.5696154 37.6623067,11.5278205 37.6691467,11.4860256 L37.7015733,11.4860256 L37.7015733,7.40602564 L0.00912,7.40602564 Z" id="Fill-136" fill="#E38526"></path>
                    <path d="M0.0113493333,7.33515385 C0.011856,7.66438462 0.0121093333,7.87335897 0.0121093333,7.87335897 L0.033136,7.87335897 C0.498256,10.7320769 5.90210933,13.2910513 13.9269493,14.0807949 C21.131496,14.7897692 28.491336,13.8800256 33.0830027,11.9623333 L33.0835093,11.9625897 L33.093896,11.9579744 C33.1248027,11.9451538 33.154696,11.9318205 33.1853493,11.9184872 C33.3327893,11.8559231 33.476936,11.7923333 33.6180427,11.7277179 C33.6621227,11.7074615 33.706456,11.6874615 33.749776,11.6672051 C33.9103893,11.5920769 34.0669493,11.5159231 34.2189493,11.4379744 C34.2493493,11.4225897 34.278736,11.4066923 34.308376,11.3910513 C34.377536,11.3551538 34.4477093,11.3195128 34.515096,11.2828462 L34.5110427,11.2815641 C34.7311893,11.1620769 34.942976,11.0400256 35.1431093,10.9148974 L35.1448827,10.9156667 C35.1578027,10.9077179 35.1697093,10.899 35.1826293,10.8910513 C35.232536,10.8595128 35.281176,10.8274615 35.3295627,10.7956667 C35.4207627,10.7359231 35.5094293,10.6754103 35.5960693,10.614641 C35.634576,10.5877179 35.6743493,10.5605385 35.712096,10.533359 C35.8250827,10.4507949 35.9327493,10.3672051 36.037376,10.2828462 C36.073096,10.2541282 36.1078027,10.2248974 36.1425093,10.1954103 C36.2347227,10.1182308 36.323896,10.0400256 36.4085093,9.96079487 C36.4247227,9.94592308 36.442456,9.93105128 36.4581627,9.91566667 C36.5562027,9.82233333 36.6471493,9.72771795 36.7345493,9.63207692 C36.757096,9.60720513 36.779136,9.58284615 36.8009227,9.55797436 C36.8875627,9.459 36.9711627,9.35976923 37.0461493,9.25874359 C37.0942827,9.19438462 37.1388693,9.13002564 37.1814293,9.06566667 C37.1935893,9.04669231 37.2052427,9.02797436 37.2171493,9.00874359 C37.2467893,8.96233333 37.2756693,8.91592308 37.3022693,8.86925641 C37.314176,8.84874359 37.3253227,8.82848718 37.3367227,8.80823077 C37.362816,8.76079487 37.3876427,8.71310256 37.4109493,8.66541026 C37.4193093,8.64848718 37.4279227,8.6315641 37.4360293,8.61412821 C37.4644027,8.55387179 37.490496,8.49387179 37.5143093,8.43361538 C37.5158293,8.43002564 37.5176027,8.4264359 37.5191227,8.42258974 C37.5723227,8.28617949 37.613616,8.15002564 37.6437627,8.01387179 C37.6450293,8.00874359 37.6460427,8.00361538 37.647056,7.99874359 C37.656176,7.95694872 37.662256,7.91515385 37.669096,7.87335897 L37.7015227,7.87335897 L37.7015227,7.33515385 L0.0113493333,7.33515385 Z" id="Fill-138" fill="#CC791F"></path>
                    <g id="Group-142" transform="translate(0.000000, 0.007692)">
                        <mask id="mask-8" fill="white">
                            <use xlink:href="#path-7"></use>
                        </mask>
                        <g id="Clip-141"></g>
                        <path d="M23.779412,0.488538462 C33.827372,1.47751282 39.7670253,5.23982051 37.0462253,8.89187179 C34.3256787,12.5441795 23.974732,14.7031538 13.926772,13.7141795 C3.878812,12.7254615 -2.06084133,8.96289744 0.659705333,5.31084615 C3.38075867,1.65853846 13.7317053,-0.500179487 23.779412,0.488538462" id="Fill-140" fill="#FCCC2E" mask="url(#mask-8)"></path>
                    </g>
                    <path d="M10.13156,12.1528718 L10.7833867,11.7841538 C10.8654667,11.7377436 10.9624933,11.678 10.9858,11.6626154 C10.93716,11.6482564 10.88396,11.6344103 10.8287333,11.6215897 C10.61948,11.5726154 10.3892,11.5890256 10.24176,11.6726154 C10.0750667,11.7664615 10.1888133,11.8346667 10.40668,11.8856923 L10.4358133,11.892359 L10.2529067,11.9795385 L10.2354267,11.9756923 C10.04644,11.9315897 9.85086667,11.9467179 9.69557333,12.0346667 C9.58917333,12.0946667 9.63021333,12.1715897 9.81033333,12.213641 C9.85998667,12.2251795 9.91014667,12.2338974 9.96030667,12.2428718 C9.97829333,12.2349231 10.0960933,12.1728718 10.13156,12.1528718 M9.25173333,11.9487692 C9.4164,11.8559487 9.70444,11.8274872 9.97728,11.8613333 L9.9902,11.8541538 C9.73332,11.7718462 9.62869333,11.663641 9.823,11.553641 C10.07152,11.4131282 10.5052267,11.4233846 10.88016,11.5110769 C11.0574933,11.552359 11.3442667,11.6269744 11.5129867,11.6664615 C11.6495333,11.6985128 11.78988,11.723641 11.78988,11.723641 L11.6738533,11.8010769 L11.4770133,11.7728718 C11.4420533,11.7854359 11.3272933,11.8367179 11.2900533,11.8577436 L10.6379733,12.2262051 C10.56324,12.2685128 10.4854667,12.3221026 10.45684,12.3497949 L10.6060533,12.4026154 L10.45152,12.4785128 C10.45152,12.4785128 10.32992,12.4426154 10.1933733,12.4105641 C10.0682267,12.3815897 9.71254667,12.3131282 9.58461333,12.2833846 C9.23602667,12.2018462 9.04628,12.0649231 9.25173333,11.9487692" id="Fill-143" fill="#E38526"></path>
                    <path d="M5.738076,10.8655641 L5.90096933,10.9240256 C5.94732933,10.9147949 6.08210267,10.8832564 6.13504933,10.8671026 L7.05794267,10.5847949 C7.19018267,10.5442821 7.31228933,10.4955641 7.344716,10.4824872 L7.21576933,10.4150513 L7.428316,10.3581282 C7.428316,10.3581282 7.59500933,10.4401795 7.84656933,10.5488974 C7.951196,10.5937692 8.08242267,10.6409487 8.08242267,10.6409487 L7.90838267,10.7022308 L7.72978267,10.648641 C7.70090267,10.6558205 7.53522267,10.6932564 7.48252933,10.7096667 L6.55938267,10.9917179 C6.427396,11.0322308 6.324036,11.0753077 6.286036,11.0904359 L6.39876933,11.1624872 L6.18926267,11.2183846 C6.18926267,11.2183846 6.084636,11.1635128 5.98000933,11.1181282 C5.72870267,11.0096667 5.53490267,10.9355641 5.53490267,10.9355641 L5.738076,10.8655641 Z" id="Fill-145" fill="#E38526"></path>
                    <path d="M3.48082533,9.13879487 C3.434212,9.147 3.315652,9.17084615 3.273092,9.18264103 C3.261692,9.18597436 3.238132,9.19494872 3.21178533,9.2044359 C3.22951867,9.22623077 3.257132,9.26007692 3.297412,9.29469231 L3.365812,9.35392308 C3.42078533,9.3495641 3.57202533,9.33469231 3.635612,9.32494872 L4.74799867,9.15520513 C4.90734533,9.13110256 5.063652,9.09776923 5.105452,9.08853846 L5.037812,9.01033333 L5.28658533,8.97930769 C5.28658533,8.97930769 5.37879867,9.07546154 5.53003867,9.20623077 C5.59311867,9.26084615 5.67975867,9.3195641 5.67975867,9.3195641 L5.463412,9.35930769 L5.33674533,9.28879487 C5.30355867,9.29264103 5.11431867,9.31058974 5.05098533,9.32033333 L3.938852,9.48982051 C3.782292,9.51366667 3.648532,9.54366667 3.59710533,9.55417949 L3.659932,9.60853846 C3.69970533,9.64341026 3.74986533,9.67674359 3.78279867,9.69905128 C3.82003867,9.69879487 3.85398533,9.69905128 3.86791867,9.69828205 C3.92111867,9.69546154 4.05107867,9.68110256 4.099972,9.67520513 L4.18027867,9.76084615 L3.64194533,9.83341026 L3.55910533,9.82007692 C3.55910533,9.82007692 3.465372,9.70648718 3.43851867,9.68341026 L3.00278533,9.30571795 C2.975932,9.28264103 2.818612,9.17853846 2.818612,9.17853846 L2.85027867,9.14776923 L3.368852,9.05802564 L3.48082533,9.13879487 Z" id="Fill-147" fill="#E38526"></path>
                    <path d="M4.24181333,7.15664103 C4.31376,7.23664103 4.39533333,7.32869231 4.41737333,7.43510256 C4.47817333,7.72561538 3.99557333,7.88766667 3.24444,7.9084359 C2.49356,7.92894872 1.94585333,7.79535897 1.88530667,7.50458974 C1.86276,7.39689744 1.90810667,7.31382051 1.94610667,7.23125641 L2.56601333,7.22894872 L2.57209333,7.32587179 L2.36284,7.33535897 C2.34206667,7.33612821 2.26834667,7.34689744 2.22477333,7.35433333 C2.20450667,7.40664103 2.19564,7.44715385 2.20577333,7.49587179 C2.23794667,7.64997436 2.66684,7.69741026 3.19377333,7.68305128 C3.72121333,7.6684359 4.12958667,7.59920513 4.09741333,7.44510256 C4.08626667,7.39125641 4.05966667,7.34664103 4.01356,7.29125641 C3.98873333,7.28971795 3.86789333,7.27535897 3.84028,7.27612821 C3.80228,7.27587179 3.67764,7.27664103 3.67764,7.27664103 L3.65129333,7.18305128 L4.24181333,7.15664103 Z" id="Fill-149" fill="#E38526"></path>
                    <path d="M4.56937333,5.72058974 C4.67678667,5.57494872 4.43358667,5.47725641 3.81216,5.41674359 C3.18769333,5.35623077 2.84290667,5.39674359 2.736,5.54264103 C2.62909333,5.68828205 2.87204,5.78597436 3.49676,5.84674359 C4.11793333,5.907 4.46246667,5.86623077 4.56937333,5.72058974 M4.89338667,5.75187179 C4.70009333,6.01520513 4.08778667,6.13802564 3.33614667,6.06520513 C2.58121333,5.99212821 2.21844,5.77469231 2.41198667,5.51135897 C2.60528,5.24776923 3.21784,5.12520513 3.97277333,5.19828205 C4.72416,5.27135897 5.08693333,5.48853846 4.89338667,5.75187179" id="Fill-151" fill="#E38526"></path>
                    <path d="M5.17349733,3.62774359 L5.06557733,3.70133333 C5.103324,3.71492308 5.224924,3.75287179 5.28293733,3.76671795 L6.291964,4.00697436 C6.43661733,4.04133333 6.60027067,4.07005128 6.644604,4.07748718 L6.785204,4.01338462 L6.99547067,4.07107692 C6.99547067,4.07107692 6.82751067,4.15261538 6.613444,4.27133333 C6.52427067,4.32082051 6.43839067,4.38005128 6.43839067,4.38005128 L6.22635067,4.33697436 L6.31679067,4.25928205 C6.289684,4.25158974 6.143004,4.20441026 6.085244,4.1905641 L5.07571067,3.95030769 C4.93131067,3.91569231 4.787924,3.89210256 4.737764,3.88312821 L4.57993733,3.94312821 L4.37245733,3.88646154 C4.37245733,3.88646154 4.48747067,3.83415385 4.576644,3.78466667 C4.79045733,3.66569231 4.92979067,3.57748718 4.92979067,3.57748718 L5.17349733,3.62774359 Z" id="Fill-153" fill="#E38526"></path>
                    <path d="M9.51281867,2.05897436 L9.347392,2.11666667 C9.36765867,2.12974359 9.45404533,2.18333333 9.497112,2.20307692 L10.662192,2.73615385 L10.2971387,2.84153846 L8.45033867,2.65307692 L9.00260533,2.90589744 C9.110272,2.95487179 9.252392,3.00384615 9.27645867,3.01282051 L9.46544533,2.96794872 L9.61516533,3.04666667 C9.61516533,3.04666667 9.46088533,3.08307692 9.15536533,3.17128205 C9.028192,3.20794872 8.89544533,3.25435897 8.89544533,3.25435897 L8.73153867,3.18948718 L8.884552,3.12615385 C8.86605867,3.11358974 8.766752,3.05410256 8.72368533,3.03461538 L7.97356533,2.69128205 C7.86589867,2.64205128 7.73948533,2.59846154 7.710352,2.58897436 L7.508952,2.62820513 L7.36100533,2.55051282 C7.36100533,2.55051282 7.51528533,2.51384615 7.64245867,2.4774359 L7.91833867,2.3974359 L8.012832,2.40230769 C8.012832,2.40230769 8.48124533,2.46923077 8.56889867,2.47923077 L9.82416533,2.60923077 L9.21793867,2.33179487 C9.13813867,2.29538462 8.99449867,2.24410256 8.95497867,2.22974359 L8.75332533,2.26871795 L8.60537867,2.19128205 L8.886832,2.11769231 C9.10596533,2.05435897 9.32509867,1.98307692 9.32509867,1.98307692 L9.51281867,2.05897436 Z" id="Fill-155" fill="#E38526"></path>
                    <path d="M27.4193307,11.6433077 L28.112704,12.0017692 C28.200104,12.0471538 28.3151173,12.1022821 28.3457707,12.1161282 C28.400744,12.1051026 28.4567307,12.0922821 28.510184,12.0786923 C28.713864,12.026641 28.7592107,11.9430513 28.602144,11.8617692 C28.4253173,11.7702308 28.2082107,11.7825385 27.9959173,11.8368974 L27.9677973,11.8440769 L27.8150373,11.7494615 L27.8320107,11.7448462 C28.0156773,11.6981795 28.0501307,11.626641 27.8852107,11.5412564 C27.7719707,11.4825385 27.560944,11.4671538 27.385384,11.5120256 C27.337504,11.5243333 27.2962107,11.5379231 27.2549173,11.5517692 C27.2678373,11.5604872 27.381584,11.6238205 27.4193307,11.6433077 M28.271544,11.4240769 C28.4465973,11.5145897 28.4093573,11.6222821 28.2201173,11.7015128 L28.2340507,11.7084359 C28.5410907,11.6530513 28.8562373,11.6586923 29.0624507,11.7656154 C29.3266773,11.9022821 29.1369307,12.0443333 28.7721307,12.1376667 C28.5996107,12.1817692 28.301184,12.2502308 28.137024,12.2920256 C28.0042773,12.3261282 27.886984,12.3638205 27.886984,12.3638205 L27.7332107,12.295359 L27.879384,12.2397179 C27.8601307,12.2233077 27.7734907,12.165359 27.7339707,12.1448462 L27.040344,11.7861282 C26.9607973,11.7448462 26.854144,11.6984359 26.7943573,11.6784359 L26.6035973,11.7086923 L26.468824,11.6279231 C26.468824,11.6279231 26.6058773,11.6004872 26.7388773,11.566641 C26.8604773,11.5356154 27.1690373,11.4415128 27.2931707,11.4097179 C27.6328907,11.3230513 28.0529173,11.311 28.271544,11.4240769" id="Fill-157" fill="#E38526"></path>
                    <path d="M30.83662,10.2913846 L30.7114733,10.3611282 C30.7459267,10.3757436 30.8576467,10.4175385 30.91186,10.4331795 L31.8583133,10.7047179 C31.9938467,10.7436923 32.1499,10.7775385 32.1922067,10.7862564 L32.3477533,10.7267692 L32.5430733,10.7908718 C32.5430733,10.7908718 32.3561133,10.8667692 32.11418,10.9783077 C32.0133533,11.0244615 31.91354,11.0806154 31.91354,11.0806154 L31.7129,11.0311282 L31.8220867,10.9567692 C31.7967533,10.9480513 31.66198,10.8962564 31.6077667,10.8808718 L30.66106,10.6090769 C30.5255267,10.570359 30.3884733,10.5421538 30.3411,10.531641 L30.1690867,10.5862564 L29.9763,10.5231795 C29.9763,10.5231795 30.1034733,10.4749744 30.2043,10.4283077 C30.4462333,10.3170256 30.60634,10.2331795 30.60634,10.2331795 L30.83662,10.2913846 Z" id="Fill-159" fill="#E38526"></path>
                    <path d="M33.283364,8.85558974 C33.2337107,8.84994872 33.103244,8.83661538 33.0497907,8.83430769 C33.035604,8.83379487 33.0019107,8.83430769 32.9644173,8.83430769 C32.935284,8.8545641 32.8901907,8.88584615 32.852444,8.92097436 L32.7880973,8.98046154 C32.835724,8.99148718 32.9727773,9.01917949 33.037124,9.02841026 L34.1606573,9.18866667 C34.3217773,9.21148718 34.497844,9.22712821 34.5452173,9.23123077 L34.646804,9.15789744 L34.8849373,9.19866667 C34.8849373,9.19866667 34.7666307,9.29097436 34.624004,9.42328205 C34.564724,9.47841026 34.513804,9.54251282 34.513804,9.54251282 L34.282004,9.51635897 L34.326844,9.43353846 C34.2959373,9.42764103 34.1256973,9.39276923 34.0613507,9.38379487 L32.938324,9.22353846 C32.7807507,9.20097436 32.626724,9.18841026 32.569724,9.18302564 L32.5101907,9.23789744 C32.472444,9.27302564 32.4440707,9.30969231 32.4250707,9.33379487 C32.4524307,9.34302564 32.476244,9.352 32.4878973,9.35482051 C32.5312173,9.36661538 32.651804,9.38917949 32.6986707,9.39712821 L32.591764,9.47917949 L32.0663507,9.39482051 L32.032404,9.36405128 C32.032404,9.36405128 32.1831373,9.25866667 32.2084707,9.23533333 L32.6201373,8.85405128 C32.6452173,8.83046154 32.731604,8.71610256 32.731604,8.71610256 L32.813684,8.702 L33.3580973,8.76892308 L33.283364,8.85558974 Z" id="Fill-161" fill="#E38526"></path>
                    <path d="M35.8169507,7.14110256 C35.858244,7.22366667 35.9043507,7.31905128 35.8858573,7.42571795 C35.8359507,7.71674359 35.2963507,7.85289744 34.5444573,7.83597436 C33.792564,7.81905128 33.3003373,7.65930769 33.3504973,7.36828205 C33.3689907,7.26033333 33.4449907,7.18033333 33.5138973,7.10007692 L34.1289907,7.12930769 L34.0985907,7.22546154 L33.8878173,7.2244359 C33.867044,7.22392308 33.7897773,7.23110256 33.7434173,7.23623077 C33.7038973,7.28674359 33.6795773,7.32674359 33.670964,7.37546154 C33.6448707,7.52982051 34.0519773,7.59802564 34.5796707,7.61007692 C35.1076173,7.62212821 35.538284,7.57392308 35.564884,7.41982051 C35.5742573,7.36571795 35.5646307,7.32033333 35.539804,7.26315385 C35.516244,7.26007692 35.4017373,7.24007692 35.3743773,7.23930769 C35.3366307,7.23725641 35.2124973,7.23187179 35.2124973,7.23187179 L35.222124,7.13751282 L35.8169507,7.14110256 Z" id="Fill-163" fill="#E38526"></path>
                    <path d="M35.0084627,5.52051282 C34.9002893,5.37487179 34.5555027,5.33435897 33.9345827,5.39512821 C33.310116,5.45615385 33.0674227,5.55410256 33.1753427,5.69974359 C33.2832627,5.84538462 33.6283027,5.88589744 34.2527693,5.82487179 C34.8736893,5.76384615 35.1161293,5.66589744 35.0084627,5.52051282 M35.3319693,5.48871795 C35.5272893,5.75205128 35.1657827,5.96974359 34.414396,6.04307692 C33.6599693,6.11692308 33.046396,5.99487179 32.8513293,5.73128205 C32.656516,5.46820513 33.018276,5.25025641 33.7727027,5.17666667 C34.5240893,5.10307692 35.137156,5.22564103 35.3319693,5.48871795" id="Fill-165" fill="#E38526"></path>
                    <path d="M31.0367533,4.02938462 L31.17786,4.09502564 C31.2270067,4.08810256 31.3719133,4.06297436 31.4299267,4.04912821 L32.44326,3.81117949 C32.58842,3.77733333 32.7262333,3.73451282 32.7629667,3.72297436 L32.6585933,3.65015385 L32.88862,3.60348718 C32.88862,3.60348718 33.02618,3.69271795 33.2379667,3.81169231 C33.3261267,3.8614359 33.4398733,3.914 33.4398733,3.914 L33.2460733,3.96707692 L33.0874867,3.90553846 C33.05658,3.91117949 32.8789933,3.94092308 32.82098,3.95451282 L31.8076467,4.19246154 C31.66274,4.2265641 31.5451933,4.26451282 31.50238,4.27758974 L31.5895267,4.35451282 L31.3620333,4.40015385 C31.3620333,4.40015385 31.27742,4.34092308 31.18926,4.29117949 C30.9774733,4.17194872 30.81078,4.08989744 30.81078,4.08989744 L31.0367533,4.02938462 Z" id="Fill-167" fill="#E38526"></path>
                    <path d="M27.2466587,2.63864103 L27.4358987,2.68582051 C27.4678187,2.67582051 27.594232,2.63351282 27.6380587,2.61402564 L28.829992,2.08864103 L29.1899787,2.19658974 L29.0676187,2.89248718 L29.6328053,2.64351282 C29.742752,2.59479487 29.844592,2.53428205 29.8638453,2.52376923 L29.7034853,2.46607692 L29.884112,2.39633333 C29.884112,2.39633333 30.0143253,2.44351282 30.315792,2.53376923 C30.441192,2.57120513 30.5934453,2.60889744 30.5934453,2.60889744 L30.4530987,2.68069231 L30.250432,2.63966667 C30.2210453,2.64864103 30.0812053,2.69658974 30.037632,2.71582051 L29.2702853,3.05428205 C29.1603387,3.103 29.0688853,3.15684615 29.0501387,3.16915385 L29.197072,3.23274359 L29.0189787,3.30146154 C29.0189787,3.30146154 28.8882587,3.25428205 28.763112,3.21684615 L28.491032,3.13530769 L28.4844453,3.10069231 C28.4844453,3.10069231 28.5665253,2.92017949 28.5748853,2.88684615 L28.6630453,2.41325641 L28.0428853,2.68658974 C27.961312,2.72248718 27.8528853,2.78428205 27.8227387,2.80171795 L27.969672,2.86530769 L27.7915787,2.93376923 L27.5359653,2.84889744 C27.3196187,2.78428205 27.081992,2.72120513 27.081992,2.72120513 L27.2466587,2.63864103 Z" id="Fill-169" fill="#E38526"></path>
                    <path d="M18.853016,2.21897436 C26.2832827,2.21897436 32.306536,4.40846154 32.306536,7.10897436 C32.306536,9.80974359 26.2832827,11.9992308 18.853016,11.9992308 C11.4230027,11.9992308 5.39974933,9.80974359 5.39974933,7.10897436 C5.39974933,4.40846154 11.4230027,2.21897436 18.853016,2.21897436" id="Fill-171" fill="#E59125"></path>
                    <path d="M18.853016,2.39925641 C26.0094293,2.39925641 31.8107627,4.50797436 31.8107627,7.109 C31.8107627,9.71028205 26.0094293,11.8187436 18.853016,11.8187436 C11.6966027,11.8187436 5.89526933,9.71028205 5.89526933,7.109 C5.89526933,4.50797436 11.6966027,2.39925641 18.853016,2.39925641" id="Fill-173" fill="#F2AB29"></path>
                    <path d="M19.3393907,7.64089744 L19.3393907,6.87705128 C19.3393907,6.21320513 20.659004,5.86551282 21.9626573,5.86551282 C23.6551773,5.86551282 24.6654707,6.28141026 24.6654707,6.97807692 L24.6654707,7.64089744 L19.3393907,7.64089744 Z M18.105404,6.8624359 L18.105404,7.64089744 L13.176804,7.64089744 L13.176804,6.97807692 C13.176804,6.42269231 14.0457373,6.10423077 15.561684,6.10423077 C17.2316573,6.10423077 18.105404,6.48551282 18.105404,6.8624359 Z M21.9428973,5.01961538 C19.955244,5.01961538 18.780284,5.59884615 18.5444307,6.22166667 C18.2941373,5.86705128 17.5607373,5.25807692 15.481884,5.25807692 C13.3247507,5.25807692 12.026924,5.80423077 11.862004,6.76474359 L10.6181373,6.76474359 L10.6181373,7.17576923 L10.6181373,7.26884615 L11.8432573,7.26884615 L11.8432573,7.64089744 L10.6181373,7.64089744 L10.6181373,7.65012821 L10.6181373,8.06115385 L10.6181373,8.145 L11.8432573,8.145 L11.8432573,9.06525641 L11.8432573,9.19833333 L13.3419773,9.19833333 L13.3419773,8.45961538 L24.5002973,8.45961538 L24.5002973,9.18679487 L25.9990173,9.18679487 L25.9990173,9.14602564 L25.9990173,8.145 L27.0880973,8.145 L27.0880973,7.64089744 L25.9990173,7.64089744 L25.9990173,7.26884615 L27.087844,7.26884615 L27.087844,6.76474359 L25.988884,6.76474359 C25.9085773,5.91064103 25.260044,5.01961538 21.9428973,5.01961538 Z" id="Fill-175" fill="#E38526"></path>
                    <path d="M9.37107867,1.18858974 L35.1447053,10.5565385 C35.9573987,10.0485897 36.6033987,9.49423077 37.0462253,8.89961538 C37.460172,8.34397436 37.6724653,7.78602564 37.7015987,7.23551282 L18.5047587,0.257820513 C15.2486653,0.279358974 12.110372,0.609102564 9.37107867,1.18858974" id="Fill-177" fill="#FEE46F"></path>
                    <path d="M33.0834587,11.6034872 C33.5964587,11.3891282 34.0752587,11.1624615 34.5150453,10.924 L8.36141867,1.41758974 C7.709592,1.5765641 7.08385867,1.74964103 6.48928533,1.93733333 L33.0834587,11.6034872 Z" id="Fill-179" fill="#FEE46F"></path>
                    <g id="Group-186" transform="translate(32.933333, 7.956410)">
                        <path d="M0.753286667,3.49258974 C0.637513333,3.54694872 0.51718,3.59720513 0.388233333,3.63951282 C0.29678,3.66951282 0.209633333,3.68361538 0.12426,3.69207692 L0.12426,19.4077179 C0.13566,19.4031026 0.14782,19.3984872 0.15922,19.3936154 L0.159726667,19.3938718 L0.170113333,19.3892564 C0.201273333,19.3761795 0.230913333,19.3631026 0.26182,19.3497692 C0.40926,19.2872051 0.553153333,19.2236154 0.694513333,19.159 C0.73834,19.1387436 0.782673333,19.1184872 0.826246667,19.0982308 C0.95418,19.0384872 1.07780667,18.9772051 1.20092667,18.9154103 L1.20092667,3.41489744 C1.06843333,3.46387179 0.91998,3.49233333 0.753286667,3.49258974" id="Fill-181" fill="#E59123"></path>
                        <g id="Group-185" transform="translate(1.773333, 0.000000)">
                            <mask id="mask-10" fill="white">
                                <use xlink:href="#path-9"></use>
                            </mask>
                            <g id="Clip-184"></g>
                            <path d="M2.13747467,1.23471795 C2.022968,1.62010256 1.731888,1.916 1.36151467,2.056 C1.313888,2.14035897 1.26094133,2.22112821 1.19431467,2.28779487 C1.007608,2.47471795 0.786954667,2.60061538 0.544008,2.66753846 C0.457114667,2.75138462 0.359074667,2.82394872 0.250901333,2.88164103 L0.250901333,18.4634359 C0.316514667,18.4244615 0.382634667,18.386 0.445968,18.346 L0.447741333,18.3467692 C0.460914667,18.3388205 0.472821333,18.330359 0.485741333,18.3224103 C0.535648,18.2908718 0.584034667,18.2588205 0.632674667,18.2270256 C0.723874667,18.1670256 0.812541333,18.1067692 0.898928,18.0457436 C0.937688,18.0188205 0.977461333,17.9918974 1.01495467,17.9644615 C1.12819467,17.8821538 1.235608,17.7985641 1.340488,17.7142051 C1.37595467,17.6852308 1.41091467,17.656 1.44562133,17.6267692 C1.53783467,17.5493333 1.62675467,17.4711282 1.71162133,17.3921538 C1.72783467,17.3770256 1.74531467,17.3621538 1.76127467,17.3470256 C1.85906133,17.2536923 1.95026133,17.1588205 2.037408,17.0631795 C2.05995467,17.0388205 2.08199467,17.0139487 2.10378133,16.9890769 C2.19067467,16.890359 2.27402133,16.7908718 2.34926133,16.6898462 C2.39714133,16.6254872 2.441728,16.5611282 2.484288,16.4967692 C2.49695467,16.4777949 2.50835467,16.4590769 2.52026133,16.4401026 C2.54990133,16.3934359 2.578528,16.3470256 2.60538133,16.3006154 C2.617288,16.2801026 2.62843467,16.2598462 2.63958133,16.2395897 C2.665928,16.1918974 2.69075467,16.1442051 2.713808,16.0967692 C2.72242133,16.0798462 2.73103467,16.0624103 2.73914133,16.0454872 C2.76726133,15.9849744 2.793608,15.9249744 2.81742133,15.8649744 C2.818688,15.8611282 2.82046133,15.8575385 2.82198133,15.8539487 C2.87518133,15.7172821 2.91647467,15.5811282 2.94662133,15.4452308 C2.947888,15.4398462 2.94890133,15.4349744 2.94991467,15.4298462 C2.95903467,15.3880513 2.965368,15.3462564 2.972208,15.3044615 L3.00463467,15.3044615 L3.00463467,0.214717949 C2.75054133,0.592153846 2.460728,0.934461538 2.13747467,1.23471795" id="Fill-183" fill="#E59123" mask="url(#mask-10)"></path>
                        </g>
                    </g>
                </g>
            </g>
        </g>
    </g>
</svg>