<svg xmlns="http://www.w3.org/2000/svg" xmlns:xlink="http://www.w3.org/1999/xlink" width="22" height="21" viewBox="0 0 22 21">
    <defs>
        <path id="b" d="M0 109h100v2782H0z"/>
        <filter id="a" width="116%" height="100.6%" x="-4%" y="-.2%" filterUnits="objectBoundingBox">
            <feOffset dx="4" dy="3" in="SourceAlpha" result="shadowOffsetOuter1"/>
            <feGaussianBlur in="shadowOffsetOuter1" result="shadowBlurOuter1" stdDeviation="2"/>
            <feColorMatrix in="shadowBlurOuter1" values="0 0 0 0 0 0 0 0 0 0 0 0 0 0 0 0 0 0 0.239668252 0"/>
        </filter>
    </defs>
    <g fill="none" fill-rule="evenodd">
        <path fill="#EFF3F6" d="M-39-441h1281v3000H-39z"/>
        <g transform="translate(-39 -441)">
            <use fill="#000" filter="url(#a)" xlink:href="#b"/>
            <use fill="#2E3842" xlink:href="#b"/>
        </g>
        <path fill="#CBCBCB" fill-rule="nonzero" d="M10.368.263c-3.663.2-6.895 2.763-7.879 6.48a.816.816 0 0 0 .552.995.783.783 0 0 0 .964-.566c.916-3.46 4.222-5.704 7.753-5.233 3.154.42 5.563 2.884 6.043 5.957l-.463-.473a.773.773 0 0 0-.565-.245.787.787 0 0 0-.727.512.832.832 0 0 0 .187.888l1.903 1.943a.767.767 0 0 0 1.105 0l1.9-1.943a.83.83 0 0 0 .244-.8.8.8 0 0 0-.57-.597.77.77 0 0 0-.776.242l-.65.663c-.422-3.98-3.455-7.23-7.431-7.76a8.51 8.51 0 0 0-1.59-.063zm-7.072 9.74a.773.773 0 0 0-.537.232l-1.9 1.942a.83.83 0 0 0-.221.789.8.8 0 0 0 .557.586.768.768 0 0 0 .766-.216l.65-.664c.424 3.98 3.456 7.227 7.431 7.757 4.286.571 8.344-2.168 9.469-6.417a.816.816 0 0 0-.552-.994.783.783 0 0 0-.964.565c-.916 3.46-4.222 5.708-7.753 5.237-3.153-.42-5.56-2.886-6.043-5.957l.463.473c.31.314.807.31 1.111-.01a.833.833 0 0 0-.006-1.149l-1.903-1.942a.772.772 0 0 0-.568-.232z"/>
    </g>
</svg>
