<svg xmlns="http://www.w3.org/2000/svg" viewBox="0 0 84.75 49.43"><defs><style>.cls-1{fill:#fff;}.cls-2{fill:lime;}</style></defs><title>logo_search</title><g id="Layer_1" data-name="Layer 1"><path class="cls-1" d="M17.76,16.64a6.94,6.94,0,0,1-1.18-.23,2.48,2.48,0,0,1-1.1-.56,2.67,2.67,0,0,1-.67-1.08,4.52,4.52,0,0,1-.28-1.72V9a4,4,0,0,1,.71-2.66,3.65,3.65,0,0,1,.8-.71,2.83,2.83,0,0,1,1-.33c.43-.06.82-.1,1.15-.13s.82,0,1.43,0a14.8,14.8,0,0,1,3.17.35V7a14.41,14.41,0,0,0-3.42-.46,6.23,6.23,0,0,0-1.76.18,1.16,1.16,0,0,0-.78.62,3.19,3.19,0,0,0-.22,1.37v4.55a2.55,2.55,0,0,0,.24,1.26,1.33,1.33,0,0,0,.87.59,7.49,7.49,0,0,0,1.88.17A13.35,13.35,0,0,0,23,14.8v1.56a17.54,17.54,0,0,1-3.57.32C18.66,16.68,18.11,16.67,17.76,16.64Z" transform="translate(-0.21 -0.35)"/><path class="cls-1" d="M29.41,16.61,25.11,5.32h2.26l3.1,9.09h.05l2.8-9.09h2.1L29.83,21.24H27.66Z" transform="translate(-0.21 -0.35)"/><path class="cls-1" d="M41.48,16.56A6,6,0,0,1,40,16.08c-1-.47-1.49-1.56-1.49-3.26V.35h2.07V5c0,.4,0,.84,0,1.33.08-.35.4-.65,1-.89A7.18,7.18,0,0,1,44,5.09q4.6,0,4.6,3.15v4.58a4.73,4.73,0,0,1-.29,1.72,3,3,0,0,1-.74,1.15,2.94,2.94,0,0,1-1.14.62,6.38,6.38,0,0,1-1.44.3,13.92,13.92,0,0,1-1.56.07A13,13,0,0,1,41.48,16.56Zm3.86-1.41a1.43,1.43,0,0,0,.91-.63,2.83,2.83,0,0,0,.28-1.4V8.75a2.94,2.94,0,0,0-.28-1.42,1.39,1.39,0,0,0-.91-.62,8.57,8.57,0,0,0-1.85-.15,6.14,6.14,0,0,0-1.75.19,1.5,1.5,0,0,0-.9.65,2.78,2.78,0,0,0-.27,1.35v4.37a3,3,0,0,0,.26,1.4,1.37,1.37,0,0,0,.89.63,6.78,6.78,0,0,0,1.79.18A7.07,7.07,0,0,0,45.34,15.15Z" transform="translate(-0.21 -0.35)"/><path class="cls-1" d="M52.55,13.28V8.89A3.44,3.44,0,0,1,53.71,6a6.28,6.28,0,0,1,3.76-.89A5.84,5.84,0,0,1,61,5.94a3.56,3.56,0,0,1,1.09,3v2.46H54.64V13a1.8,1.8,0,0,0,.81,1.65,4.71,4.71,0,0,0,2.48.51,15.85,15.85,0,0,0,3.75-.55v1.58a18.72,18.72,0,0,1-4,.46Q52.55,16.68,52.55,13.28ZM60.05,10V8.24a1.5,1.5,0,0,0-.61-1.39,4.2,4.2,0,0,0-2.08-.38,4.29,4.29,0,0,0-2.07.38,1.48,1.48,0,0,0-.65,1.39V10Z" transform="translate(-0.21 -0.35)"/><path class="cls-1" d="M66.42,5.32h2V7.14a1.43,1.43,0,0,1,.45-1A3.29,3.29,0,0,1,70,5.38a3.73,3.73,0,0,1,1.4-.29h1V6.86H71.27a4.51,4.51,0,0,0-2.13.38,1.45,1.45,0,0,0-.65,1.37v7.84H66.42Z" transform="translate(-0.21 -0.35)"/></g><g id="Layer_2" data-name="Layer 2"><circle class="cls-2" cx="43.29" cy="25.65" r="4"/><path class="cls-1" d="M.56,49.35V47.16a26.5,26.5,0,0,0,5.5.68A7,7,0,0,0,9,47.39a1.68,1.68,0,0,0,.92-1.66V43.46a1.79,1.79,0,0,0-.65-1.59A4,4,0,0,0,7,41.41H4.93a5.18,5.18,0,0,1-3.64-1A4.19,4.19,0,0,1,.21,37.2V35.79a4,4,0,0,1,.63-2.32A3.8,3.8,0,0,1,3,32.15a15.42,15.42,0,0,1,4.12-.43c1.16,0,2.67.1,4.5.29v2a35.06,35.06,0,0,0-4.69-.45A7.46,7.46,0,0,0,3.58,34a1.83,1.83,0,0,0-.84,1.7v2a1.47,1.47,0,0,0,.66,1.34,4.5,4.5,0,0,0,2.28.42H7.79a7.39,7.39,0,0,1,2.82.43A2.68,2.68,0,0,1,12,41.21a5.68,5.68,0,0,1,.41,2.36v1.27a5.51,5.51,0,0,1-.68,2.94,3.8,3.8,0,0,1-2.12,1.54,12.46,12.46,0,0,1-3.75.46A39.22,39.22,0,0,1,.56,49.35Z" transform="translate(-0.21 -0.35)"/><path class="cls-1" d="M16.9,45.78V40.63a4,4,0,0,1,1.37-3.42,7.33,7.33,0,0,1,4.41-1,6.78,6.78,0,0,1,4.16,1,4.13,4.13,0,0,1,1.28,3.46v2.89H19.36v2a2.1,2.1,0,0,0,.94,1.94,5.57,5.57,0,0,0,2.92.59,18.13,18.13,0,0,0,4.39-.64v1.86a22.2,22.2,0,0,1-4.72.54Q16.9,49.78,16.9,45.78Zm8.8-3.86V39.87A1.75,1.75,0,0,0,25,38.24a4.82,4.82,0,0,0-2.44-.45,5,5,0,0,0-2.43.45,1.73,1.73,0,0,0-.75,1.63v2.05Z" transform="translate(-0.21 -0.35)"/><path class="cls-1" d="M34.32,49.43a2.45,2.45,0,0,1-1.46-1.24,5.86,5.86,0,0,1-.45-2.57,5.18,5.18,0,0,1,.42-2.31,2.39,2.39,0,0,1,1.43-1.17,9.29,9.29,0,0,1,2.87-.35h3.92V39.71a1.87,1.87,0,0,0-.29-1.12,1.53,1.53,0,0,0-.94-.55,8.48,8.48,0,0,0-1.93-.17,33.9,33.9,0,0,0-4.48.33V36.42c1.78-.17,3.39-.25,4.83-.25a11.83,11.83,0,0,1,3.34.34,2.32,2.32,0,0,1,1.49,1.17,6.32,6.32,0,0,1,.4,2.6v9.23H41.13V48.27c-.2,1-1.51,1.51-3.94,1.51A9.25,9.25,0,0,1,34.32,49.43Zm3.27-1.24A11.77,11.77,0,0,0,39.83,48c.81-.16,1.22-.54,1.22-1.14V43.3H37.3a5.56,5.56,0,0,0-1.68.18,1,1,0,0,0-.67.66,5.3,5.3,0,0,0-.16,1.56A4.52,4.52,0,0,0,35,47.2a1.29,1.29,0,0,0,.67.76,3.6,3.6,0,0,0,1.46.23Z" transform="translate(-0.21 -0.35)"/><path class="cls-1" d="M49,36.44h2.29v2.14a1.67,1.67,0,0,1,.54-1.18,3.87,3.87,0,0,1,1.38-.89,4.23,4.23,0,0,1,1.64-.34h1.19v2.08H54.72a5.15,5.15,0,0,0-2.49.45,1.67,1.67,0,0,0-.77,1.6v9.21H49Z" transform="translate(-0.21 -0.35)"/><path class="cls-1" d="M63.15,49.73a8.85,8.85,0,0,1-1.39-.27,2.9,2.9,0,0,1-1.29-.65,3.42,3.42,0,0,1-.79-1.27,5.65,5.65,0,0,1-.32-2v-4.8a4.67,4.67,0,0,1,.84-3.13,3.71,3.71,0,0,1,.93-.83,3.19,3.19,0,0,1,1.22-.39q.76-.11,1.35-.15c.4,0,1,0,1.68,0a17.45,17.45,0,0,1,3.72.41v1.78a16.64,16.64,0,0,0-4-.54A7.82,7.82,0,0,0,63,38a1.44,1.44,0,0,0-.92.73,3.86,3.86,0,0,0-.26,1.61V45.7a3.17,3.17,0,0,0,.28,1.49,1.67,1.67,0,0,0,1,.69,9.21,9.21,0,0,0,2.2.2,15.72,15.72,0,0,0,3.94-.51V49.4a21,21,0,0,1-4.18.38C64.21,49.78,63.55,49.76,63.15,49.73Z" transform="translate(-0.21 -0.35)"/><path class="cls-1" d="M73.71,30.61h2.43V38q.38-1.87,4.29-1.87a5.28,5.28,0,0,1,3.52.91,3.64,3.64,0,0,1,1,2.84v9.59H82.53V40.09a3.85,3.85,0,0,0-.08-.84,1.79,1.79,0,0,0-.32-.65c-.36-.45-1.16-.67-2.4-.67a9.31,9.31,0,0,0-2.26.2,1.67,1.67,0,0,0-1,.66,2.49,2.49,0,0,0-.28,1.3v9.42H73.71Z" transform="translate(-0.21 -0.35)"/></g></svg>