<svg xmlns="http://www.w3.org/2000/svg" xmlns:xlink="http://www.w3.org/1999/xlink" width="21" height="21" viewBox="0 0 21 21">
    <defs>
        <path id="b" d="M0 110h170v2782H0z"/>
        <filter id="a" width="109.4%" height="100.6%" x="-2.4%" y="-.2%" filterUnits="objectBoundingBox">
            <feOffset dx="4" dy="3" in="SourceAlpha" result="shadowOffsetOuter1"/>
            <feGaussianBlur in="shadowOffsetOuter1" result="shadowBlurOuter1" stdDeviation="2"/>
            <feColorMatrix in="shadowBlurOuter1" values="0 0 0 0 0 0 0 0 0 0 0 0 0 0 0 0 0 0 0.239668252 0"/>
        </filter>
    </defs>
    <g fill="none" fill-rule="evenodd">
        <path fill="#EFF3F6" d="M-29-696h1281v3000H-29z"/>
        <g transform="translate(-29 -696)">
            <use fill="#000" filter="url(#a)" xlink:href="#b"/>
            <use fill="#2E3842" xlink:href="#b"/>
        </g>
        <path fill="#CBCBCB" fill-rule="nonzero" d="M1.11 19.584c0 .53-.183.883-.455.883-.273 0-.455-.353-.455-.883V15.35c.09-.353.273-.882.545-.882.273 0 .455.353.455.882v4.235h-.09zm3.09-.842c0 .435-.2.725-.5.725s-.5-.29-.5-.725v-8.55c0-.435.2-.725.5-.725s.5.29.5.724v8.551zm4-.962c0 .412-.2.687-.5.687s-.5-.275-.5-.687v-5.627c0-.412.2-.686.5-.686s.5.274.5.686v5.627zm4 .93c0 .454-.2.757-.5.757s-.5-.303-.5-.756V7.222c0-.453.2-.755.5-.755s.5.302.5.755v11.489zm3 .032c0 .435-.2.725-.5.725s-.5-.29-.5-.725v-8.55c0-.435.2-.725.5-.725s.5.29.5.724v8.551zm4-1.003c0 .436-.2.728-.5.728s-.5-.292-.5-.728V4.195c0-.437.2-.728.5-.728s.5.29.5.728v13.544zm.23-16.272H.97c-.462 0-.77-.2-.77-.5s.308-.5.77-.5h18.46c.462 0 .77.2.77.5s-.308.5-.77.5z"/>
    </g>
</svg>
