<svg xmlns="http://www.w3.org/2000/svg" xmlns:xlink="http://www.w3.org/1999/xlink" width="37" height="37" viewBox="0 0 37 37">
    <defs>
        <path id="b" d="M0 0h65v754H0z"/>
        <filter id="a" width="124.6%" height="102.1%" x="-6.2%" y="-.7%" filterUnits="objectBoundingBox">
            <feOffset dx="4" dy="3" in="SourceAlpha" result="shadowOffsetOuter1"/>
            <feGaussianBlur in="shadowOffsetOuter1" result="shadowBlurOuter1" stdDeviation="2"/>
            <feColorMatrix in="shadowBlurOuter1" values="0 0 0 0 0 0 0 0 0 0 0 0 0 0 0 0 0 0 0.239668252 0"/>
        </filter>
        <path id="c" d="M0 .108h16.079V21.06H0z"/>
    </defs>
    <g fill="none" fill-rule="evenodd">
        <g transform="translate(-14 -263)">
            <use fill="#000" filter="url(#a)" xlink:href="#b"/>
            <use fill="#2E3842" xlink:href="#b"/>
        </g>
        <g transform="translate(-2 -2)">
            <rect width="28.35" height="28.35" x="6.48" y="6.48" fill="#000" rx="5.67" transform="rotate(-45.273 20.655 20.655)"/>
            <g transform="translate(10.53 9.72)">
                <mask id="d" fill="#fff">
                    <use xlink:href="#c"/>
                </mask>
                <path fill="#32FF10" d="M14.048 17.348a7.57 7.57 0 0 1-4.046.926c-3.995-.202-7.19-3.547-7.247-7.578-.06-4.304 3.383-7.812 7.64-7.812a7.56 7.56 0 0 1 3.423.814c.53.269 1.17.18 1.594-.24.67-.666.49-1.798-.353-2.22-1.151-.574-2.762-1.13-4.665-1.13C4.57.108-.135 4.935.003 10.836c.132 5.644 4.763 10.21 10.365 10.224a10.287 10.287 0 0 0 4.981-1.264c.79-.433.977-1.493.37-2.163a1.365 1.365 0 0 0-1.67-.285" mask="url(#d)"/>
            </g>
            <path fill="#CBCBCB" d="M15.752 27.336a1.403 1.403 0 0 0 .373 2.173 10.38 10.38 0 0 0 5.019 1.271c5.643-.014 10.31-4.603 10.443-10.276.139-5.932-4.602-10.784-10.47-10.784-1.916 0-3.54.559-4.7 1.137a1.39 1.39 0 0 0-.355 2.23 1.386 1.386 0 0 0 1.606.242 7.63 7.63 0 0 1 3.449-.819c4.289 0 7.758 3.527 7.697 7.853-.058 4.052-3.277 7.414-7.301 7.617a7.643 7.643 0 0 1-4.077-.931 1.378 1.378 0 0 0-1.684.287" opacity=".441"/>
        </g>
    </g>
</svg>
