<svg xmlns="http://www.w3.org/2000/svg" xmlns:xlink="http://www.w3.org/1999/xlink" width="23" height="32" viewBox="0 0 23 32">
    <defs>
        <path id="b" d="M0 109h100v2782H0z"/>
        <filter id="a" width="116%" height="100.6%" x="-4%" y="-.2%" filterUnits="objectBoundingBox">
            <feOffset dx="4" dy="3" in="SourceAlpha" result="shadowOffsetOuter1"/>
            <feGaussianBlur in="shadowOffsetOuter1" result="shadowBlurOuter1" stdDeviation="2"/>
            <feColorMatrix in="shadowBlurOuter1" values="0 0 0 0 0 0 0 0 0 0 0 0 0 0 0 0 0 0 0.239668252 0"/>
        </filter>
    </defs>
    <g fill="none" fill-rule="evenodd">
        <path fill="#EFF3F6" d="M-39-236h1281v3000H-39z"/>
        <g transform="translate(-39 -236)">
            <use fill="#000" filter="url(#a)" xlink:href="#b"/>
            <use fill="#2E3842" xlink:href="#b"/>
        </g>
        <g fill="#CBCBCB" fill-rule="nonzero">
            <path d="M19.472 1.425c.316 0 .607 0 .923.024.728.025 1.286.493 1.456 1.206.073.345.122.69.122 1.034v24.416c0 .542-.049 1.083-.097 1.625-.049.59-.729 1.156-1.408 1.206-.34.024-.656.024-.996.024-.315 0-.606 0-.922-.024-.825-.05-1.408-.739-1.408-1.65V2.976c.025-.886.583-1.476 1.457-1.526.29-.024.582-.024.873-.024zm0-.985c-.315 0-.63 0-.922.025-1.383.074-2.33 1.058-2.379 2.486v26.336c0 1.452.971 2.56 2.33 2.633.316.025.656.025.996.025.34 0 .68 0 1.044-.025 1.14-.049 2.208-1.009 2.33-2.092.048-.541.097-1.132.097-1.747V3.665c0-.419-.049-.837-.146-1.256-.267-1.157-1.19-1.92-2.379-1.969h-.97zM11.643 13.19c.388 0 .752.049 1.14.123.826.197 1.214.689 1.287 1.526.024.394.024.812.024 1.23V29.36c-.097.985-.68 1.551-1.65 1.576-.292 0-.559.024-.85.024-.243 0-.51 0-.752-.024-.85-.05-1.335-.517-1.457-1.379a8.915 8.915 0 0 1-.097-1.156V15.479c0-.37.073-.763.146-1.132.121-.493.437-.837.898-.96.413-.123.85-.197 1.31-.197zm0-.985c-.534 0-1.093.074-1.602.222-.826.246-1.384.837-1.578 1.673-.122.493-.17.936-.17 1.354v12.922c0 .394.024.788.097 1.28.194 1.329 1.068 2.166 2.379 2.215.243 0 .51.025.8.025.316 0 .608 0 .875-.025 1.456-.025 2.451-.985 2.597-2.461.024-.197.024-.37.024-.517V15.725c0-.32 0-.64-.024-.985-.097-1.28-.801-2.116-2.039-2.412a8.458 8.458 0 0 0-1.36-.123zM4.013 17.325c.219 0 .437 0 .655.024.947.074 1.505.69 1.505 1.772.025 1.699 0 3.372 0 5.07v4.825c0 .344-.097.664-.194 1.009-.194.615-.68.886-1.286.91-.316.025-.607.025-.923.025-.29 0-.582 0-.873-.024-.899-.074-1.457-.64-1.554-1.551V19.245c0-.271.024-.567.121-.837.195-.542.559-.96 1.166-1.01.485-.024.946-.073 1.383-.073zm0-.985c-.51 0-.995.025-1.432.074-.922.074-1.626.64-1.99 1.65a3.432 3.432 0 0 0-.195 1.18v9.821c0 .099 0 .246.025.394.145 1.403 1.068 2.338 2.451 2.437.316.024.631.024.947.024.315 0 .655 0 .97-.024 1.069-.074 1.846-.64 2.137-1.6.121-.394.243-.812.243-1.28a88.671 88.671 0 0 0 0-3.594v-2.756c0-1.157 0-2.388-.025-3.57-.024-1.574-.946-2.633-2.427-2.731-.194 0-.437-.025-.704-.025z"/>
        </g>
    </g>
</svg>
