<svg xmlns="http://www.w3.org/2000/svg" xmlns:xlink="http://www.w3.org/1999/xlink" width="15" height="17" viewBox="0 0 15 17">
    <defs>
        <path id="a" d="M0 17.003h16.823V0H0z"/>
    </defs>
    <g fill="none" fill-rule="evenodd" transform="matrix(1 0 0 -1 -1 16.821)">
        <mask id="b" fill="#fff">
            <use xlink:href="#a"/>
        </mask>
        <g mask="url(#b)">
            <path fill="#FFF" fill-rule="nonzero" d="M12.839 10.739c0-4.922 2.213-4.475 2.213-6.712 0 0 0-.895-.885-.895H2.657c-.886 0-.886.895-.886.895 0 2.237 2.213 1.79 2.213 6.712 0 2.47 1.983 4.474 4.427 4.474 2.445 0 4.428-2.004 4.428-4.474"/>
            <path fill="#FFF" fill-rule="nonzero" d="M9.74 15.213c0 .741-.595 1.342-1.329 1.342-.733 0-1.328-.6-1.328-1.342 0-.741.595-1.342 1.328-1.342.734 0 1.329.6 1.329 1.342M8.411.447c.978 0 1.771.802 1.771 1.79H6.641c0-.988.793-1.79 1.77-1.79"/>
        </g>
    </g>
</svg>
