<svg xmlns="http://www.w3.org/2000/svg" xmlns:xlink="http://www.w3.org/1999/xlink" width="15" height="15" viewBox="0 0 15 15">
    <defs>
        <path id="b" d="M0 0h1281v109H0z"/>
        <filter id="a" width="102.9%" height="133.9%" x="-1.1%" y="-14.2%" filterUnits="objectBoundingBox">
            <feOffset dx="4" dy="3" in="SourceAlpha" result="shadowOffsetOuter1"/>
            <feGaussianBlur in="shadowOffsetOuter1" result="shadowBlurOuter1" stdDeviation="5.5"/>
            <feColorMatrix in="shadowBlurOuter1" values="0 0 0 0 0 0 0 0 0 0 0 0 0 0 0 0 0 0 0.0842108243 0"/>
        </filter>
        <rect id="c" width="695" height="56" x="410" y="27" rx="2"/>
    </defs>
    <g fill="none" fill-rule="evenodd">
        <path fill="#EFF3F6" d="M-1058-48H223v3000h-1281z"/>
        <g transform="translate(-1058 -48)">
            <use fill="#000" filter="url(#a)" xlink:href="#b"/>
            <use fill="#438CEF" xlink:href="#b"/>
        </g>
        <g opacity=".149" transform="translate(-1058 -48)">
            <use fill="#FFF" xlink:href="#c"/>
            <rect width="694" height="55" x="410.5" y="27.5" stroke="#FFF" rx="2"/>
        </g>
        <path fill="#FFF" fill-rule="nonzero" d="M14.7 13.3l-3.81-3.83A5.93 5.93 0 0 0 12 6c0-3.31-2.69-6-6-6S0 2.69 0 6s2.69 6 6 6c1.3 0 2.48-.41 3.47-1.11l3.83 3.81c.19.2.45.3.7.3.25 0 .52-.09.7-.3a.996.996 0 0 0 0-1.41v.01zM6 10.7c-2.59 0-4.7-2.11-4.7-4.7 0-2.59 2.11-4.7 4.7-4.7 2.59 0 4.7 2.11 4.7 4.7 0 2.59-2.11 4.7-4.7 4.7z"/>
    </g>
</svg>
