<svg xmlns="http://www.w3.org/2000/svg" xmlns:xlink="http://www.w3.org/1999/xlink" width="24" height="30" viewBox="0 0 24 30">
    <defs>
        <path id="b" d="M0 109h100v2782H0z"/>
        <filter id="a" width="116%" height="100.6%" x="-4%" y="-.2%" filterUnits="objectBoundingBox">
            <feOffset dx="4" dy="3" in="SourceAlpha" result="shadowOffsetOuter1"/>
            <feGaussianBlur in="shadowOffsetOuter1" result="shadowBlurOuter1" stdDeviation="2"/>
            <feColorMatrix in="shadowBlurOuter1" values="0 0 0 0 0 0 0 0 0 0 0 0 0 0 0 0 0 0 0.239668252 0"/>
        </filter>
    </defs>
    <g fill="none" fill-rule="evenodd">
        <path fill="#EFF3F6" d="M-38-368h1281v3000H-38z"/>
        <g transform="translate(-38 -368)">
            <use fill="#000" filter="url(#a)" xlink:href="#b"/>
            <use fill="#2E3842" xlink:href="#b"/>
        </g>
        <path fill="#CBCBCB" fill-rule="nonzero" d="M12 0l.375.14 5.455 2.075.715.277v6.78l4.534.657.921.138v7.162l-.58.313-3.784 1.97v4.706l-.511.312-6.546 4.29-.51.345-.546-.276-6.545-3.183-.614-.277v-4.982l-3.546-.934L0 19.305v-9.272l.955-.104 4.5-.554V2.491l.715-.277L11.625.137 12 0zm-1.09 2.768L7.635 4.015v5.118l3.273-.414V2.768zm2.18 0v5.708h.171l3.103.45V4.013L13.09 2.768zM12 10.828l-5.455.693v7.265L12 20.206v-9.378zm2.182 0v9.03l3.273-1.694v-6.816l-3.273-.52zm5.454.83v5.364l2.182-1.142v-3.875l-2.182-.347zm-15.272.105l-2.182.276v5.571l2.182.588v-6.435zm13.09 8.89l-3.851 2.008-.376.174-.136-.036v3.045l4.364-2.802v-2.388zm-10.909.383v3.009l4.364 2.076v-3.91l-4.364-1.175z"/>
    </g>
</svg>
