<?xml version="1.0" encoding="utf-8"?>
<!-- Generator: Adobe Illustrator 22.0.1, SVG Export Plug-In . SVG Version: 6.00 Build 0)  -->
<svg version="1.1" xmlns="http://www.w3.org/2000/svg" xmlns:xlink="http://www.w3.org/1999/xlink" x="0px" y="0px"
	 viewBox="0 0 893.7 382" style="enable-background:new 0 0 893.7 382;" xml:space="preserve">
<style type="text/css">
	.st0{fill:#FFFFFF;}
	.st1{fill:#E43131;}
</style>
<g id="Layer_2">
</g>
<g id="Layer_1">
	<g>
		<path class="st0" d="M187.1,377.5c103.3,0.2,187.1-83.6,187.4-187.2C374.8,86.5,291.4,2,188.4,1.8C84.9,1.6,0.8,85.5,0.6,189.2
			C0.5,292.8,84.1,377.3,187.1,377.5z M475.3,275.3c14.5,0,28.2,0,42.3,0c0.9-7.7,1.8-14.8,2.8-22.8c-15.2,0-30,0-44.7,0
			c0-12.7,0-24.8,0-37.2c2.2,0,4,0,5.8,0c13.2,0,26.3,0.1,39.5-0.1c1.4,0,4-1.1,4.1-2.1c1.1-6.6,1.8-13.4,2.6-20.2
			c-26.7,0-52.7,0-78.7,0c0,45.7,0,91.1,0,136.7c9-0.6,17.5-1.1,26.3-1.6c0-9.1,0-17.6,0-26.1C475.3,293.4,475.3,284.8,475.3,275.3z
			 M534.7,235.7c-0.4,0.7-0.7,1-0.7,1.3c0.2,21.6-0.5,43.3,0.8,64.9c1,16.1,11.4,25.9,27.3,28.8c17.7,3.2,34.8,0,51.6-5.3
			c3.4-1.1,4.5-2.7,4.5-6.4c-0.2-26.5-0.1-52.9-0.1-79.4c0-1.6,0-3.2,0-5.3c-9,0.5-17.2,1-25.8,1.5c0,2.4,0,4.2,0,6
			c0,20.5,0,41-0.1,61.4c0,1.6-0.6,4.2-1.7,4.6c-7.8,3.1-15.9,4.7-23.7,0.6c-6.8-3.6-7.6-10.4-7.6-17.3c0-17,0-34,0-51
			c0-1.8,0-3.5,0-5.8C550.6,234.9,542.5,235.3,534.7,235.7z M720.3,328.2c0-22.1,0.7-43.6-0.3-65c-0.7-15.5-11.5-26.1-27.4-29.6
			c-17.8-3.8-35-0.6-52.1,4.7c-3.7,1.2-4.7,3.1-4.7,6.8c0.2,26.3,0.1,52.6,0.1,78.9c0,1.7,0.2,3.5,0.3,5.6c8.6-0.5,16.7-1,25.2-1.5
			c0-2.3,0-4.1,0-5.9c0-20.3,0.1-40.6-0.1-61c0-4,1.4-6,5-6.4c4.9-0.6,9.9-1.4,14.8-1.2c7.2,0.3,12,5,13.2,12.1
			c0.5,2.9,0.7,6,0.7,8.9c0.1,16.5,0,33,0,49.5c0,1.7,0.2,3.5,0.3,5.4C704,329.2,711.9,328.7,720.3,328.2z M535,53.9
			c0.2,3.2,0.4,5.9,0.7,8.5c2.8,26.6,12.2,50.7,27.4,72.5c6,8.6,5.8,9.1-2.4,15.7c-1.9,1.6-4,3.1-6.2,4.1c-5.1,2.4-10.3,4.4-16,6.8
			c1.3,6.7,2.7,13.8,4,21c18.2-3.3,31.8-12.8,42.3-26.5c18-23.4,28.6-50.2,34.6-78.9c1.7-7.9,2.5-16,3.8-24.7
			c-7.7,0.4-14.3,1-20.9,1c-3.7,0-5.1,1-5.3,5c-1,20.6-4.6,40.7-13.4,59.5c-0.6,1.2-1.3,2.4-2.1,4c-13.5-21.6-19.8-44.5-20.9-69.6
			C552,53,543.9,53.5,535,53.9z M519.1,75.8c1.3-5.3,2.4-10.7,4-15.9c1-3.4-0.2-4.7-3.3-5.8c-11.3-3.7-22.8-5-34.5-2.9
			c-16.4,3-27.7,12.5-33.3,28.3c-4.7,13.5-4.7,27.1-0.4,40.7c2.8,9,7.9,16.6,16,21.7c17.2,10.8,35.3,10.2,53.8,3.9
			c1-0.3,2.2-2.5,2.1-3.6c-0.9-5.9-2.2-11.7-3.4-17.8c-14.4,4-29.2,9.8-40.4-5.2c-7-9.4-6.7-30,0.4-39
			C491.2,66.2,505.2,72.2,519.1,75.8z M862.3,146.4c0-2.3,0-4.1,0-5.9c0-20.3,0.1-40.6-0.1-60.9c-0.1-4.2,1.4-6.4,5.3-6.7
			c6.9-0.6,13.8-0.9,21.4-1.3c1-5.8,2.2-12.5,3.5-19.7c-18-3-35-1.3-51.6,4.7c-3.5,1.2-4.3,3.2-4.3,6.6c0.1,26.5,0.1,52.9,0.1,79.4
			c0,1.6,0.1,3.2,0.2,5.3C845.4,147.4,853.4,146.9,862.3,146.4z"/>
		<path class="st1" d="M187.1,377.5C84.1,377.3,0.5,292.8,0.6,189.2C0.8,85.5,84.9,1.6,188.4,1.8c103,0.2,186.5,84.7,186.2,188.4
			C374.2,293.9,290.4,377.6,187.1,377.5z"/>
		<path class="st0" d="M475.3,275.3c0,9.5,0,18.1,0,26.8c0,8.5,0,17,0,26.1c-8.8,0.5-17.3,1.1-26.3,1.6c0-45.7,0-91,0-136.7
			c26,0,52,0,78.7,0c-0.8,6.8-1.5,13.6-2.6,20.2c-0.2,0.9-2.7,2-4.1,2.1c-13.2,0.2-26.3,0.1-39.5,0.1c-1.8,0-3.6,0-5.8,0
			c0,12.4,0,24.4,0,37.2c14.8,0,29.5,0,44.7,0c-1,7.9-1.9,15.1-2.8,22.8C503.5,275.3,489.7,275.3,475.3,275.3z"/>
		<path class="st0" d="M534.7,235.7c7.8-0.4,15.9-0.9,24.7-1.4c0,2.3,0,4,0,5.8c0,17,0,34,0,51c0,6.9,0.8,13.7,7.6,17.3
			c7.8,4.1,15.9,2.4,23.7-0.6c1-0.4,1.6-3,1.7-4.6c0.1-20.5,0.1-41,0.1-61.4c0-1.8,0-3.6,0-6c8.6-0.5,16.8-1,25.8-1.5
			c0,2.1,0,3.7,0,5.3c0,26.5-0.1,53,0.1,79.4c0,3.6-1.1,5.3-4.5,6.4c-16.9,5.2-34,8.4-51.6,5.3c-15.9-2.9-26.3-12.7-27.3-28.8
			c-1.3-21.6-0.6-43.2-0.8-64.9C534,236.7,534.3,236.5,534.7,235.7z"/>
		<path class="st0" d="M720.3,328.2c-8.3,0.5-16.3,1-24.9,1.5c-0.1-1.9-0.3-3.7-0.3-5.4c0-16.5,0-33,0-49.5c0-3-0.2-6-0.7-8.9
			c-1.2-7.1-6-11.8-13.2-12.1c-4.9-0.2-9.9,0.6-14.8,1.2c-3.7,0.4-5.1,2.4-5,6.4c0.2,20.3,0.1,40.6,0.1,61c0,1.8,0,3.6,0,5.9
			c-8.5,0.5-16.6,1-25.2,1.5c-0.1-2.1-0.3-3.8-0.3-5.6c0-26.3,0.1-52.6-0.1-78.9c0-3.7,0.9-5.6,4.7-6.8c17.1-5.3,34.3-8.6,52.1-4.7
			c16,3.5,26.7,14,27.4,29.6C721,284.7,720.3,306.1,720.3,328.2z"/>
		<path class="st0" d="M535,53.9c8.9-0.5,17-0.9,25.6-1.4c1.1,25,7.4,48,20.9,69.6c0.9-1.6,1.6-2.7,2.1-4
			c8.8-18.9,12.4-38.9,13.4-59.5c0.2-4.1,1.6-5,5.3-5c6.6-0.1,13.2-0.6,20.9-1c-1.3,8.7-2.1,16.8-3.8,24.7
			c-6.1,28.7-16.6,55.5-34.6,78.9c-10.6,13.8-24.1,23.2-42.3,26.5c-1.4-7.2-2.7-14.2-4-21c5.6-2.4,10.9-4.4,16-6.8
			c2.2-1,4.3-2.6,6.2-4.1c8.3-6.6,8.4-7.2,2.4-15.7c-15.2-21.9-24.6-46-27.4-72.5C535.3,59.8,535.2,57.2,535,53.9z"/>
		<path class="st0" d="M519.1,75.8c-13.9-3.6-27.9-9.6-39,4.5c-7.1,9-7.5,29.5-0.4,39c11.2,15.1,26,9.2,40.4,5.2
			c1.2,6,2.5,11.9,3.4,17.8c0.2,1.1-1,3.2-2.1,3.6c-18.4,6.3-36.6,6.9-53.8-3.9c-8.1-5.1-13.2-12.7-16-21.7
			c-4.3-13.6-4.3-27.3,0.4-40.7c5.5-15.8,16.8-25.3,33.3-28.3c11.7-2.1,23.2-0.8,34.5,2.9c3.1,1,4.3,2.4,3.3,5.8
			C521.6,65.1,520.4,70.5,519.1,75.8z"/>
		<path class="st0" d="M862.3,146.4c-8.9,0.5-17,1-25.5,1.5c-0.1-2.1-0.2-3.7-0.2-5.3c0-26.5,0.1-52.9-0.1-79.4
			c0-3.5,0.9-5.4,4.3-6.6c16.6-6,33.5-7.7,51.6-4.7c-1.3,7.2-2.4,14-3.5,19.7c-7.7,0.5-14.6,0.8-21.4,1.3c-3.9,0.3-5.3,2.5-5.3,6.7
			c0.3,20.3,0.1,40.6,0.1,60.9C862.3,142.3,862.3,144.1,862.3,146.4z"/>
		<g>
			<path class="st0" d="M819.5,200.2c0-1.6,0-3.2,0-5c-8.8,0.5-16.9,0.9-25.4,1.4c0,12.7,0,24.8,0,37.3c-2.2-0.3-3.8-0.5-5.4-0.8
				c-25.8-3.5-48.6,10.8-54.5,35.3c-1.8,7.6-2.1,15.9-1.5,23.7c1.6,19.5,14.3,33.8,33.2,38.5c16.7,4.1,33,1.7,49.1-3.6
				c3.7-1.2,4.6-3.2,4.6-6.9C819.5,280.1,819.5,240.2,819.5,200.2z M790,310.5c-15.5,4.1-28.4-3.6-30.9-19.5
				c-1-6.4-0.7-13.4,0.8-19.7c3.2-13.6,18.1-20.9,31.5-15.9c1.3,0.5,2.6,2.8,2.6,4.3c0.1,1.9,0.1,3.8,0.1,5.7c0.1,5.7,0,11.5,0,17.2
				c0,7.5-0.2,15,0.1,22.4C794.4,308.4,792.9,309.7,790,310.5z"/>
		</g>
		<g>
			<path class="st0" d="M819.4,85.9c-2-21.1-17.5-35.1-38.7-35.5c-23.7-0.5-41.3,13.9-46,37.4c-5.3,26.1,5.5,49.7,27.2,58.2
				c17.3,6.8,34.7,4.8,51.8-1.2c1-0.4,2.5-2.1,2.3-3c-1-6.2-2.4-12.3-3.7-18.7c-10.8,4.1-21.3,6.4-32.3,4.7
				c-11.1-1.6-18.3-9.7-18.8-21c19.1,0,38.2,0,58.3,0C819.5,99.4,820.1,92.6,819.4,85.9z M795.1,90.8c-11.7,0-23.1,0-34.4,0
				c1-12.8,9.5-20.8,20.6-19.9C790.6,71.7,796,79.3,795.1,90.8z"/>
		</g>
		<g>
			<path class="st0" d="M723.1,93.7c-1.6-25.8-18.7-42.4-44.6-43.3c-5.4-0.2-10.9,0.6-17.2,1c0-12.7,0-25.5,0-38.6
				c-7.1,0.3-13.7,0.9-20.4,0.9c-4,0-5.4,1.1-5.4,5.4c0.2,40,0.2,80,0,120c0,3.7,1.4,5.4,4.6,6.5c12.2,4.1,24.8,5,37.5,4.5
				c23.2-0.9,39.7-14.6,44.2-37.4C723.1,106.4,723.5,100,723.1,93.7z M694.9,113.9c-3.4,12.5-20,19.1-31.5,13.5
				c-1-0.5-1.8-2.6-1.9-3.9c0-1.9-0.1-3.8-0.1-5.7c0-5.7,0-11.5,0-17.2c0-5.5,0.1-11,0.1-16.5c0-1.8-0.1-3.7-0.1-5.5
				c-0.1-3.6,1.3-4.9,4.5-5.9c15.5-4.7,28.7,3,30.6,19.1C697.2,99.1,696.8,106.9,694.9,113.9z"/>
		</g>
	</g>
</g>
</svg>
