<svg xmlns="http://www.w3.org/2000/svg" xmlns:xlink="http://www.w3.org/1999/xlink" width="26" height="24" viewBox="0 0 26 24">
    <defs>
        <path id="b" d="M0 0h170v3000H0z"/>
        <filter id="a" width="109.4%" height="100.5%" x="-2.4%" y="-.2%" filterUnits="objectBoundingBox">
            <feOffset dx="4" dy="3" in="SourceAlpha" result="shadowOffsetOuter1"/>
            <feGaussianBlur in="shadowOffsetOuter1" result="shadowBlurOuter1" stdDeviation="2"/>
            <feColorMatrix in="shadowBlurOuter1" values="0 0 0 0 0 0 0 0 0 0 0 0 0 0 0 0 0 0 0.239668252 0"/>
        </filter>
    </defs>
    <g fill="none" fill-rule="evenodd">
        <path fill="#EFF3F6" d="M-24-262h1281v3000H-24z"/>
        <g transform="translate(-24 -262)">
            <use fill="#000" filter="url(#a)" xlink:href="#b"/>
            <use fill="#004B87" xlink:href="#b"/>
        </g>
        <path fill="#FFF" fill-rule="nonzero" d="M25.344 15.125v-3.344a.698.698 0 0 0-.313-.562c-.187-.125-.437-.094-.625.031l-11.562 7.281-10.938-7.093V9.562l10.75 6.813c.219.125.469.125.656 0L24.97 8.969a.614.614 0 0 0 .281-.531.614.614 0 0 0-.281-.532L13.344.188a.677.677 0 0 0-.688 0L.937 7.875s-.03 0-.03.031a.528.528 0 0 0-.22.313c0 .031-.03.062-.03.094v3.437c0 .219.093.406.28.531l11.532 7.5a.677.677 0 0 0 .687 0l10.938-6.906v1.875l-11.125 7.188L1.625 14.75c-.281-.188-.688-.094-.875.188-.188.28-.094.687.188.874l11.687 7.376a.63.63 0 0 0 .344.093.63.63 0 0 0 .344-.093l11.718-7.532c.188-.125.313-.312.313-.531zM13 1.469l10.531 6.937L13 15.094 2.437 8.406 13 1.47z"/>
    </g>
</svg>
